<?xml version="1.0" encoding="UTF-8" standalone="no"?>
<!-- Created with Inkscape (http://www.inkscape.org/) -->

<svg
   width="48"
   height="48"
   viewBox="0 0 48 48"
   version="1.1"
   id="svg1"
   xml:space="preserve"
   inkscape:version="1.3 (0e150ed, 2023-07-21)"
   sodipodi:docname="MarkupsAddClosedCurve.svg"
   inkscape:export-filename="PNG/SlicerUpArrowV1-24.png"
   inkscape:export-xdpi="48"
   inkscape:export-ydpi="48"
   xmlns:inkscape="http://www.inkscape.org/namespaces/inkscape"
   xmlns:sodipodi="http://sodipodi.sourceforge.net/DTD/sodipodi-0.dtd"
   xmlns="http://www.w3.org/2000/svg"
   xmlns:svg="http://www.w3.org/2000/svg"><sodipodi:namedview
   id="namedview1"
   pagecolor="#ffffff"
   bordercolor="#111111"
   borderopacity="1"
   inkscape:showpageshadow="0"
   inkscape:pageopacity="0"
   inkscape:pagecheckerboard="1"
   inkscape:deskcolor="#d1d1d1"
   inkscape:document-units="px"
   showgrid="true"
   inkscape:zoom="6.8614394"
   inkscape:cx="5.1738415"
   inkscape:cy="33.739276"
   inkscape:window-width="1392"
   inkscape:window-height="773"
   inkscape:window-x="-67"
   inkscape:window-y="117"
   inkscape:window-maximized="0"
   inkscape:current-layer="DarkThemeEnabledLayer"
   showguides="true"><inkscape:grid
     id="grid1"
     units="px"
     originx="0"
     originy="0"
     spacingx="2"
     spacingy="2"
     empcolor="#0099e5"
     empopacity="0.30196078"
     color="#0099e5"
     opacity="0.14902"
     empspacing="1"
     dotted="false"
     gridanglex="30"
     gridanglez="30"
     visible="true" /></sodipodi:namedview><defs
   id="defs1" />&#10;&#10;<!-- PUT FINAL THEME/STATE VERSIONS IN THESE LAYERS. NO GROUPED ELEMENTS. -->&#10;&#10;&#10;&#10;&#10;&#10;&#10;&#10;&#10;&#10;<g
   inkscape:label="DarkThemeEnabledLayer"
   id="DarkThemeEnabledLayer"
   inkscape:groupmode="layer"
   style="display:inline"
   sodipodi:insensitive="true"><path
     id="path3"
     style="display:inline;fill:none;fill-opacity:0.5;stroke:#fd5959;stroke-width:2;stroke-linecap:round;stroke-linejoin:round;paint-order:markers fill stroke"
     d="M 17.181641,8.8828125 C 15.752608,8.869194 14.275714,9.0896508 12.916016,9.5820312 a 3,3 0 0 1 0.01367,0.1210938 3,3 0 0 1 0.0098,0.1464844 3,3 0 0 1 0.0039,0.1484375 3,3 0 0 1 -0.0293,0.4257811 3,3 0 0 1 -0.0918,0.419922 3,3 0 0 1 -0.150391,0.400391 3,3 0 0 1 -0.205078,0.375 3,3 0 0 1 -0.255859,0.34375 3,3 0 0 1 -0.302735,0.302734 3,3 0 0 1 -0.341797,0.255859 3,3 0 0 1 -0.376953,0.205078 3,3 0 0 1 -0.400391,0.150391 3,3 0 0 1 -0.417968,0.08984 3,3 0 0 1 -0.4277346,0.03125 3,3 0 0 1 -0.4257813,-0.03125 3,3 0 0 1 -0.4199219,-0.08984 3,3 0 0 1 -0.4003906,-0.150391 c -2.0152225,2.720532 -3.1266735,6.875298 -2.0449218,11.650391 0.5920226,2.613323 1.8720061,5.16017 3.4355472,7.316406 a 3,3 0 0 1 0.291015,-0.216797 3,3 0 0 1 0.375,-0.205078 3,3 0 0 1 0.400391,-0.15039 3,3 0 0 1 0.417969,-0.08984 A 3,3 0 0 1 12,31 a 3,3 0 0 1 0.146484,0.0039 3,3 0 0 1 0.148438,0.0098 3,3 0 0 1 0.144531,0.01953 3,3 0 0 1 0.146485,0.02539 3,3 0 0 1 0.142578,0.03125 3,3 0 0 1 0.142578,0.03906 3,3 0 0 1 0.138672,0.04687 3,3 0 0 1 0.138672,0.05273 3,3 0 0 1 0.134765,0.05859 3,3 0 0 1 0.130859,0.06641 3,3 0 0 1 0.128907,0.07422 3,3 0 0 1 0.123047,0.07813 3,3 0 0 1 0.121093,0.08398 3,3 0 0 1 0.115235,0.0918 3,3 0 0 1 0.113281,0.0957 3,3 0 0 1 0.105469,0.101562 3,3 0 0 1 0.101562,0.105469 3,3 0 0 1 0.0957,0.113281 3,3 0 0 1 0.0918,0.115235 3,3 0 0 1 0.08399,0.121093 3,3 0 0 1 0.07813,0.123047 3,3 0 0 1 0.07422,0.128907 3,3 0 0 1 0.06641,0.130859 3,3 0 0 1 0.05859,0.134765 3,3 0 0 1 0.05274,0.138672 3,3 0 0 1 0.04687,0.138672 3,3 0 0 1 0.03906,0.142578 3,3 0 0 1 0.03125,0.142578 3,3 0 0 1 0.02539,0.146485 3,3 0 0 1 0.01953,0.144531 3,3 0 0 1 0.0098,0.148438 A 3,3 0 0 1 15,34 a 3,3 0 0 1 -0.03125,0.427734 3,3 0 0 1 -0.08984,0.417969 3,3 0 0 1 -0.15039,0.400391 3,3 0 0 1 -0.205078,0.375 3,3 0 0 1 -0.25586,0.34375 3,3 0 0 1 -0.0039,0.0039 c 2.733326,2.084977 6.486307,4.221336 8.783203,4.802734 4.341342,1.098899 8.168135,0.73642 10.931641,-0.560546 a 3,3 0 0 1 -0.246094,-0.246094 3,3 0 0 1 -0.25586,-0.34375 3,3 0 0 1 -0.205078,-0.375 3,3 0 0 1 -0.15039,-0.400391 A 3,3 0 0 1 33.03125,38.427734 3,3 0 0 1 33,38 a 3,3 0 0 1 0.03125,-0.427734 3,3 0 0 1 0.08984,-0.417969 3,3 0 0 1 0.15039,-0.400391 3,3 0 0 1 0.205078,-0.375 3,3 0 0 1 0.25586,-0.34375 3,3 0 0 1 0.302734,-0.302734 3,3 0 0 1 0.34375,-0.25586 3,3 0 0 1 0.375,-0.205078 3,3 0 0 1 0.400391,-0.15039 3,3 0 0 1 0.417969,-0.08984 A 3,3 0 0 1 36,35 a 3,3 0 0 1 0.146484,0.0039 3,3 0 0 1 0.148438,0.0098 3,3 0 0 1 0.144531,0.01953 3,3 0 0 1 0.146485,0.02539 3,3 0 0 1 0.142578,0.03125 3,3 0 0 1 0.142578,0.03906 3,3 0 0 1 0.138672,0.04687 3,3 0 0 1 0.138672,0.05273 3,3 0 0 1 0.134765,0.05859 3,3 0 0 1 0.130859,0.06641 3,3 0 0 1 0.128907,0.07422 3,3 0 0 1 0.123047,0.07813 3,3 0 0 1 0.121093,0.08398 3,3 0 0 1 0.115235,0.0918 3,3 0 0 1 0.113281,0.0957 3,3 0 0 1 0.105469,0.101562 3,3 0 0 1 0.101562,0.105469 3,3 0 0 1 0.08984,0.105469 c 1.240731,-2.254448 1.622535,-4.847648 1.1875,-7.056641 -1.026824,-5.213938 -6.773757,-5.20525 -10.582031,-6.371094 a 3,3 0 0 1 -0.03906,0.183594 3,3 0 0 1 -0.15039,0.400391 3,3 0 0 1 -0.205078,0.375 3,3 0 0 1 -0.25586,0.34375 3,3 0 0 1 -0.302734,0.302734 3,3 0 0 1 -0.34375,0.25586 3,3 0 0 1 -0.375,0.205078 3,3 0 0 1 -0.400391,0.15039 3,3 0 0 1 -0.417969,0.08984 A 3,3 0 0 1 26,25 a 3,3 0 0 1 -0.427734,-0.03125 3,3 0 0 1 -0.417969,-0.08984 3,3 0 0 1 -0.400391,-0.15039 3,3 0 0 1 -0.375,-0.205078 3,3 0 0 1 -0.34375,-0.25586 3,3 0 0 1 -0.302734,-0.302734 3,3 0 0 1 -0.25586,-0.34375 3,3 0 0 1 -0.205078,-0.375 3,3 0 0 1 -0.15039,-0.400391 A 3,3 0 0 1 23.03125,22.427734 3,3 0 0 1 23,22 a 3,3 0 0 1 0.03125,-0.427734 3,3 0 0 1 0.08984,-0.417969 3,3 0 0 1 0.15039,-0.400391 3,3 0 0 1 0.205078,-0.375 3,3 0 0 1 0.25586,-0.34375 3,3 0 0 1 0.302734,-0.302734 3,3 0 0 1 0.34375,-0.25586 3,3 0 0 1 0.375,-0.205078 A 3,3 0 0 1 25.142578,19.125 C 23.992293,15.526895 24.678631,10.268706 19.783203,9.1757812 18.963873,8.9928623 18.082819,8.8914006 17.181641,8.8828125 Z" /><circle
     style="display:inline;fill:none;fill-opacity:1;stroke:#e5e5f6;stroke-width:2;stroke-linecap:round;stroke-linejoin:round;stroke-dasharray:none;stroke-dashoffset:0;stroke-opacity:1;paint-order:fill markers stroke"
     id="path12-1-9-9-8-7-32-4"
     cx="26"
     cy="22"
     inkscape:transform-center-x="29.308908"
     inkscape:transform-center-y="-8.630843"
     r="3" /><circle
     style="display:inline;fill:none;fill-opacity:1;stroke:#e5e5f6;stroke-width:2;stroke-linecap:round;stroke-linejoin:round;stroke-dasharray:none;stroke-dashoffset:0;stroke-opacity:1;paint-order:fill markers stroke"
     id="path12-1-9-9-8-7-32-5"
     cx="9.9436216"
     cy="9.9975853"
     inkscape:transform-center-x="29.308908"
     inkscape:transform-center-y="-8.630843"
     r="3" /><circle
     style="display:inline;fill:none;fill-opacity:1;stroke:#e5e5f6;stroke-width:2;stroke-linecap:round;stroke-linejoin:round;stroke-dasharray:none;stroke-dashoffset:0;stroke-opacity:1;paint-order:fill markers stroke"
     id="path12-1-9-9-8-7-32-9"
     cx="36"
     cy="38"
     inkscape:transform-center-x="29.308908"
     inkscape:transform-center-y="-8.630843"
     r="3" /><circle
     style="display:inline;fill:none;fill-opacity:1;stroke:#e5e5f6;stroke-width:2;stroke-linecap:round;stroke-linejoin:round;stroke-dasharray:none;stroke-dashoffset:0;stroke-opacity:1;paint-order:fill markers stroke"
     id="path12-1-9-9-8-7-32-7"
     cx="12"
     cy="34"
     inkscape:transform-center-x="29.308908"
     inkscape:transform-center-y="-8.630843"
     r="3" /><rect
     style="display:inline;fill:#e5e5f6;stroke:none;stroke-width:2;stroke-linecap:round;stroke-linejoin:round;stroke-opacity:0.6;paint-order:markers fill stroke"
     id="rect1"
     width="2.0000007"
     height="13.963907"
     x="38"
     y="4" /><rect
     style="display:inline;fill:#e5e5f6;stroke:none;stroke-width:2;stroke-linecap:round;stroke-linejoin:round;stroke-opacity:0.6;paint-order:markers fill stroke"
     id="rect1-3"
     width="2.0000007"
     height="13.963907"
     x="9.9819536"
     y="-45.981953"
     transform="rotate(90)" /></g>&#10;&#10;&#10;<!-- TINKERLAYER FOR USE AS DESIGN SANDBOX. DELETE IN FINAL VERSION -->&#10;</svg>
