<?xml version="1.0" encoding="UTF-8" standalone="no"?>
<!-- Created with Inkscape (http://www.inkscape.org/) -->
<svg xmlns="http://www.w3.org/2000/svg" xmlns:svg="http://www.w3.org/2000/svg" width="48" height="48" viewBox="0 0 48 48" version="1.1" id="svg1" xml:space="preserve">
  <defs id="defs1"/>
  <g id="DarkThemeEnabledLayer" style="display:inline">
    <rect style="display:inline;fill:#d6d6ff;fill-opacity:1;stroke:#9899d5;stroke-width:1.99997;stroke-linecap:round;stroke-dasharray:none;stroke-dashoffset:2.2;stroke-opacity:1;paint-order:fill markers stroke" id="rect3-4-5-5" width="18" height="18" x="-25" y="-33" transform="matrix(0,-1,-1,0,0,0)"/>
    <rect style="display:inline;fill:#010101;fill-opacity:1;stroke-linecap:round;paint-order:fill markers stroke" id="rect5" width="2" height="2" x="20" y="-30" transform="rotate(90)"/>
    <rect style="display:inline;fill:#010101;fill-opacity:1;stroke-linecap:round;paint-order:fill markers stroke" id="rect6" width="2" height="2" x="20" y="18" transform="matrix(0,1,1,0,0,0)"/>
    <rect style="display:inline;fill:#010101;fill-opacity:1;stroke-linecap:round;paint-order:fill markers stroke" id="rect7" width="2" height="2" x="-12" y="-30" transform="matrix(0,-1,-1,0,0,0)"/>
    <rect style="display:inline;fill:#010101;fill-opacity:1;stroke-linecap:round;paint-order:fill markers stroke" id="rect8" width="2" height="2" x="-12" y="18" transform="rotate(-90)"/>
    <path style="display:inline;fill:none;stroke:#010101;stroke-width:2;stroke-linecap:square;stroke-linejoin:miter;stroke-dasharray:none;stroke-opacity:1" d="M 27.000001,19.010297 H 21 v -6 l 6,1e-6 1e-6,5.999999" id="path8"/>
    <rect style="display:inline;fill:#010101;fill-opacity:1;stroke-linecap:round;paint-order:fill markers stroke" id="rect1" width="2" height="2" x="22" y="-32" transform="rotate(90)"/>
    <rect style="display:inline;fill:#010101;fill-opacity:1;stroke-linecap:round;paint-order:fill markers stroke" id="rect2" width="2" height="2" x="-10" y="16" transform="rotate(-90)"/>
    <rect style="display:inline;fill:#010101;fill-opacity:1;stroke-linecap:round;paint-order:fill markers stroke" id="rect3" width="2" height="2" x="-10" y="-32" transform="matrix(0,-1,-1,0,0,0)"/>
    <rect style="display:inline;fill:#010101;fill-opacity:1;stroke-linecap:round;paint-order:fill markers stroke" id="rect4" width="2" height="2" x="22" y="16" transform="matrix(0,1,1,0,0,0)"/>
    <path style="display:inline;fill:none;stroke:#e5e5f6;stroke-width:2;stroke-linecap:round;stroke-linejoin:miter;stroke-dasharray:none;stroke-opacity:1" d="m 16.232082,39.648255 4.666718,-4.646974 -5.646972,-5.66672 v 0" id="path2-5"/>
    <path id="path5" style="display:inline;fill:none;fill-rule:evenodd;stroke:#e5e5f6;stroke-width:2.00001;stroke-linecap:round" d="m 33.324491,37.010855 c 1.115953,0.604228 1.702761,1.287564 1.702761,1.982862 0,2.213317 -5.820298,4.007564 -13,4.007564 v 0 c -7.179703,0 -13.0000009,-1.794247 -13.0000009,-4.007564 10e-7,-2.078483 5.1546729,-3.812016 11.8715489,-3.992436"/>
    <path style="fill:none;stroke:#e5e5f6;stroke-width:0.999999px;stroke-linecap:butt;stroke-linejoin:miter;stroke-opacity:1" d="M 24,26 V 42.325165" id="path6"/>
    <path style="fill:none;stroke:#e5e5f6;stroke-width:0.999999px;stroke-linecap:butt;stroke-linejoin:miter;stroke-opacity:1" d="M 24,1.9794062 V 6.0205938" id="path7"/>
  </g>
</svg>
