<?xml version="1.0" encoding="UTF-8" standalone="no"?>
<!-- Created with Inkscape (http://www.inkscape.org/) -->
<svg xmlns="http://www.w3.org/2000/svg" xmlns:svg="http://www.w3.org/2000/svg" width="48" height="48" viewBox="0 0 48 48" version="1.1" id="svg1" xml:space="preserve">
  <defs id="defs1"/>
  <g id="LightThemeEnabledLayer" style="display:inline">
    <path style="fill:none;stroke:#e5e5f6;stroke-width:2;stroke-linecap:round;stroke-linejoin:miter;stroke-dasharray:none;stroke-opacity:1" d="m 24,22 v 5.76" id="path1"/>
    <path style="fill:none;stroke:#e5e5f6;stroke-width:2;stroke-linecap:round;stroke-linejoin:miter;stroke-dasharray:none;stroke-opacity:1" d="M 39,29 H 9 v 6" id="path2"/>
    <path style="fill:none;stroke:#e5e5f6;stroke-width:2;stroke-linecap:round;stroke-linejoin:miter;stroke-dasharray:none;stroke-opacity:1" d="m 24,29 v 6" id="path3"/>
    <path style="fill:none;stroke:#e5e5f6;stroke-width:2;stroke-linecap:round;stroke-linejoin:miter;stroke-dasharray:none;stroke-opacity:1" d="m 39,29 v 5.520001" id="path4"/>
    <path id="path8" style="display:inline;fill:none;fill-rule:evenodd;stroke:#e5e5f6;stroke-width:2;stroke-linecap:round" d="m 42,38 a 3.0000005,2.9999997 0 0 1 -3,3 3.0000005,2.9999997 0 0 1 -3,-3 3.0000005,2.9999997 0 0 1 3,-3 3.0000005,2.9999997 0 0 1 3,3 z"/>
    <path id="path10" style="display:inline;fill:none;fill-rule:evenodd;stroke:#e5e5f6;stroke-width:2;stroke-linecap:round" d="m 27,38 a 3.0000005,2.9999997 0 0 1 -3,3 3.0000005,2.9999997 0 0 1 -3,-3 3.0000005,2.9999997 0 0 1 3,-3 3.0000005,2.9999997 0 0 1 3,3 z"/>
    <path id="path11" style="display:inline;fill:none;fill-rule:evenodd;stroke:#e5e5f6;stroke-width:2;stroke-linecap:round" d="m 12,38 a 3.0000005,2.9999997 0 0 1 -3,3 3.0000005,2.9999997 0 0 1 -3,-3 3.0000005,2.9999997 0 0 1 3,-3 3.0000005,2.9999997 0 0 1 3,3 z"/>
    <path id="path12" style="fill:none;fill-rule:evenodd;stroke:#e5e5f6;stroke-width:2;stroke-linecap:round" d="M 30.928141,12.999569 A 6.9999998,6.9999998 0 0 1 31,14 v 0 a 6.9999998,6.9999998 0 0 1 -7,7 6.9999998,6.9999998 0 0 1 -6.999999,-7 6.9999998,6.9999998 0 0 1 0.07198,-1.001256"/>
    <path id="path16" style="fill:none;fill-rule:evenodd;stroke:#e5e5f6;stroke-width:2;stroke-linecap:round" d="M 21.927037,7.3139829 A 6.9999998,6.9999998 0 0 1 24,7 6.9999998,6.9999998 0 0 1 26.072769,7.3139224"/>
    <path id="path4-3" style="fill:none;stroke:#e5e5f6;stroke-width:1.5;stroke-linecap:round;stroke-linejoin:round;stroke-dasharray:none;stroke-opacity:1" d="M 20.042998,8.2257353 16,6 l 1.82353,4.705883"/>
    <path id="path5" style="fill:none;stroke:#e5e5f6;stroke-width:1.5;stroke-linecap:round;stroke-linejoin:round;stroke-dasharray:none;stroke-opacity:1" d="M 28.117647,8.2352941 32.303972,6 30.176471,10.705883"/>
    <path style="fill:#e5e5f6;stroke:none;stroke-width:1px;stroke-linecap:butt;stroke-linejoin:round;stroke-opacity:1" d="m 24,16.837916 -1.235293,-1.235293 h 2.470588 z" id="path8-6"/>
  </g>
</svg>
