<?xml version="1.0" encoding="UTF-8" standalone="no"?>
<svg xmlns="http://www.w3.org/2000/svg" xmlns:svg="http://www.w3.org/2000/svg" height="48" viewBox="0 0 48 48" width="48" version="1.1" id="svg1" xml:space="preserve">
  <defs id="defs1"/>
  <g id="DarkThemeEnabledLayer" style="display:inline">
    <path style="fill:#666666;stroke:#e5e5f6;stroke-width:2;stroke-linecap:round;stroke-linejoin:round;stroke-dasharray:none;stroke-opacity:1" d="m 33.126849,29.027848 -6.502965,6.402681 M 33.126849,29.027848 40.75,36.6" id="path3-9-30"/>
    <path style="fill:#666666;stroke:#e5e5f6;stroke-width:2;stroke-linecap:round;stroke-linejoin:round;stroke-dasharray:none;stroke-opacity:1" d="m 17.080598,44.882179 6.502965,-6.402681 m -6.502965,6.402681 -7.6231506,-7.572152" id="path3-9"/>
    <path style="fill:none;stroke:#e5e5f6;stroke-width:2;stroke-linecap:round;stroke-linejoin:round;stroke-dasharray:none;stroke-opacity:1" d="M 33.05,30.871416 V 45.044553" id="path1-7-5"/>
    <path style="fill:none;stroke:#e5e5f6;stroke-width:2;stroke-linecap:round;stroke-linejoin:round;stroke-dasharray:none;stroke-opacity:1" d="M 16.990443,29.007392 V 43.924394" id="path1-7"/>
    <path style="fill:none;stroke:#e5e5f6;stroke-width:2;stroke-linecap:butt;stroke-linejoin:miter;stroke-dasharray:none;stroke-opacity:1" d="M 35.05,7.3018978 V 19.95" id="path3-3"/>
    <path style="fill:none;stroke:#e5e5f6;stroke-width:2;stroke-linecap:butt;stroke-linejoin:miter;stroke-dasharray:none;stroke-opacity:1" d="M 13,6.9500003 V 20.167012" id="path3"/>
    <path id="path2-7" style="fill:none;stroke:#e5e5f6;stroke-width:2;stroke-linecap:round;stroke-linejoin:round;paint-order:fill markers stroke" d="m 13,19.95 a 11,4 0 0 0 11,4 11,4 0 0 0 11,-4"/>
    <path id="path2" style="fill:none;stroke:#e5e5f6;stroke-width:2;stroke-linecap:round;stroke-linejoin:round;paint-order:fill markers stroke" d="m 13,7.05 a 11,4 0 0 1 11,-4 11,4 0 0 1 11,4"/>
    <path id="path1-6" style="fill:none;stroke:#e5e5f6;stroke-width:2;stroke-linecap:round;stroke-linejoin:round;paint-order:fill markers stroke" d="m 35,13.541273 v 0 a 11,4 0 0 1 -11,4 11,4 0 0 1 -11,-4"/>
    <path id="path1" style="fill:none;stroke:#e5e5f6;stroke-width:2;stroke-linecap:round;stroke-linejoin:round;paint-order:fill markers stroke" d="m 35,7.05 v 0 a 11,4 0 0 1 -11,4 11,4 0 0 1 -11,-4"/>
  </g>
</svg>
