<?xml version="1.0" encoding="UTF-8" standalone="no"?>
<!-- Created with Inkscape (http://www.inkscape.org/) -->
<svg xmlns="http://www.w3.org/2000/svg" xmlns:svg="http://www.w3.org/2000/svg" width="48" height="48" viewBox="0 0 48 48" version="1.1" id="svg1" xml:space="preserve">
  <defs id="defs1"/>
  <g id="DarkThemeEnabledLayer" style="display:inline;stroke-width:2.15279" transform="matrix(0.47403832,0,0,0.45517843,12.580129,12.004818)">
    <ellipse style="fill:#808080;fill-opacity:1;stroke:#e5e5f6;stroke-width:2.1528;stroke-linecap:round;stroke-linejoin:round;stroke-dasharray:none;stroke-opacity:1;paint-order:markers fill stroke" id="path4" cx="7.1334038" cy="27.243788" rx="4.2705407" ry="4.2113919"/>
    <path id="path4-9" style="display:inline;fill:none;stroke:#e5e5f6;stroke-width:5.71493;stroke-linecap:round;stroke-linejoin:round;stroke-dasharray:none;paint-order:markers fill stroke" d="m 7.2143345,14.953233 c -8.890239,0 -14.5866847,5.874489 -17.3955135,12.903024 2.8088288,7.028539 8.5052745,11.67809 17.3955135,11.67809 7.1121885,0 14.5867045,-4.649551 17.3955345,-11.67809 C 21.801039,20.827722 14.326523,14.953233 7.2143345,14.953233 Z"/>
    <path id="path3-7-1-7" style="display:inline;fill:none;stroke:#e5e5f6;stroke-width:5.7149;stroke-linecap:round;stroke-linejoin:round;stroke-dasharray:none;stroke-opacity:0.5;paint-order:markers fill stroke" d="m -13.19683,24.748213 c 3.2826927,-8.546994 9.9401942,-14.201056 20.3302595,-14.201056 8.3120505,0 17.0475565,5.654062 20.3302505,14.201056"/>
    <rect style="fill:#f7ce63;stroke:#e5e5f6;stroke-width:4.63451;stroke-linecap:square;stroke-opacity:0.981869;paint-order:fill markers stroke" id="rect1" width="12.657205" height="13.181644" x="43.076412" y="-6.6014075"/>
    <rect style="display:inline;fill:#8ed595;stroke:#e5e5f6;stroke-width:4.63451;stroke-linecap:square;stroke-opacity:0.981869;paint-order:fill markers stroke" id="rect1-5" width="12.657205" height="13.181644" x="43.076412" y="19.554472"/>
    <rect style="display:inline;fill:#f1a16e;fill-opacity:1;stroke:#e5e5f6;stroke-width:4.63451;stroke-linecap:square;stroke-opacity:0.981869;paint-order:fill markers stroke" id="rect1-7" width="12.657205" height="13.181644" x="43.076412" y="46.500378"/>
  </g>
</svg>
