<?xml version="1.0" encoding="UTF-8" standalone="no"?>
<!-- Created with Inkscape (http://www.inkscape.org/) -->
<svg xmlns="http://www.w3.org/2000/svg" xmlns:svg="http://www.w3.org/2000/svg" width="48" height="48" viewBox="0 0 48 48" version="1.1" id="svg1" xml:space="preserve">
  <defs id="defs1"/>
  <g id="LightThemeEnabledLayer" style="display:inline">
    <circle style="fill:#abd4b5;fill-opacity:1;fill-rule:evenodd" id="circle1" cx="29.599918" cy="29.599918" r="8.0883493"/>
    <circle style="fill:#f9e883;fill-opacity:1;fill-rule:evenodd" id="path1" cx="18.327856" cy="18.327856" r="8.0883493"/>
    <path id="circle11" style="display:inline;fill:none;fill-rule:evenodd;stroke:#d1a718;stroke-width:2;stroke-dasharray:none;stroke-opacity:1" d="m 20.481593,27.517754 c -0.106585,-0.105651 -0.21681,-0.207635 -0.330075,-0.305762 -0.233742,-0.202401 -0.481627,-0.387854 -0.741766,-0.554969 -0.260454,-0.167941 -0.532587,-0.317032 -0.814311,-0.446149 -0.281523,-0.128143 -0.571834,-0.236024 -0.868719,-0.322826 -0.291921,-0.08543 -0.597011,-0.154115 -0.885041,-0.221259 -0.270226,-0.09072 -5.827608,-1.740858 -5.841635,-7.238118 0,-4.102672 3.325877,-7.428548 7.428545,-7.428548 l 10e-7,-1.71e-4 v 0 c 3.503521,0.0093 6.524524,2.46461 7.248997,5.892417 v 0 c 0.04322,0.29171 0.131626,0.554746 0.214007,0.837885 0.0868,0.296891 0.196496,0.587199 0.324637,0.868722 0.128528,0.281672 0.277018,0.553808 0.444333,0.814308 0.167693,0.260204 0.35376,0.508085 0.556779,0.741769 0.09696,0.112202 0.197692,0.221018 0.302024,0.326263"/>
    <path id="path25" style="display:inline;fill:none;fill-rule:evenodd;stroke:#abd4b5;stroke-width:2;stroke-linecap:round;stroke-dasharray:none;stroke-dashoffset:0;stroke-opacity:0.8" d="M 17.632975,34.00708 A 13,13 0 0 0 30,43 13,13 0 0 0 43,30 13,13 0 0 0 34.00708,17.63297"/>
    <path id="path26" style="display:inline;fill:none;fill-rule:evenodd;stroke:#f0bd28;stroke-width:2;stroke-linecap:round;stroke-dasharray:none;stroke-dashoffset:0;stroke-opacity:0.8" d="M 30.367025,13.99292 A 13,13 0 0 0 18,5 13,13 0 0 0 5,18 13,13 0 0 0 13.99292,30.36702"/>
    <rect style="display:inline;fill:#28b84d;fill-opacity:1;fill-rule:evenodd;stroke:#010101;stroke-width:0.999998;stroke-dasharray:none;stroke-opacity:1" id="rect2" width="4.9644918" height="4.9644918" x="27.517754" y="27.517754" rx="0.60000002" ry="0.60000002"/>
    <rect style="display:inline;fill:#d1a718;fill-opacity:1;fill-rule:evenodd;stroke:#010101;stroke-width:0.999999;stroke-dasharray:none;stroke-opacity:1" id="rect3" width="4.9631858" height="4.9631858" x="-20.481592" y="-20.481592" rx="0.60000002" ry="0.60000002" transform="scale(-1)"/>
    <path id="path7" style="display:inline;fill:none;fill-rule:evenodd;stroke:#738c79;stroke-width:2;stroke-dasharray:none;stroke-opacity:1" d="m 27.519369,20.481316 c 0.113393,0.114385 0.231035,0.224552 0.352689,0.330263 0.234323,0.202465 0.482816,0.387928 0.74358,0.554968 0.260508,0.167319 0.532638,0.315806 0.81431,0.444338 0.281474,0.128756 0.571786,0.23724 0.868719,0.324637 0.133656,0.03881 0.270841,0.0728 0.409876,0.101558 0.0085,0.0019 0.01684,0.0037 0.02539,0.0056 0.0055,9.29e-4 0.01088,0.0028 0.01632,0.0037 0.142296,0.02851 0.285477,0.05181 0.426199,0.07252 v 0 c 3.402275,0.744822 5.813948,3.769749 5.823499,7.252593 0,4.102672 -3.325876,7.428549 -7.428544,7.428549 -3.495425,-0.0095 -6.511371,-2.454572 -7.243556,-5.872472 v 0 c -0.04246,-0.283631 -0.114542,-0.558701 -0.194058,-0.834254 -0.08739,-0.296937 -0.195878,-0.587245 -0.324636,-0.868722 -0.128529,-0.281672 -0.277018,-0.553808 -0.444335,-0.814308 -0.16711,-0.260148 -0.35257,-0.508029 -0.554964,-0.741769 -0.104784,-0.120947 -0.21445,-0.237946 -0.328265,-0.350763"/>
    <path style="fill:none;stroke:#121212;stroke-width:3;stroke-linecap:round;stroke-linejoin:miter;stroke-dasharray:none;stroke-opacity:1" d="M 38,10 8,40" id="path5"/>
  </g>
</svg>
