<?xml version="1.0" encoding="UTF-8" standalone="no"?>
<!-- Created with Inkscape (http://www.inkscape.org/) -->
<svg xmlns="http://www.w3.org/2000/svg" xmlns:svg="http://www.w3.org/2000/svg" width="48" height="48" viewBox="0 0 48 48" version="1.1" id="svg1" xml:space="preserve"><defs id="defs1"/>

<!-- PUT FINAL THEME/STATE VERSIONS IN THESE LAYERS. NO GROUPED ELEMENTS. -->









<g id="DarkThemeEnabledLayer" style="display:inline"><rect style="display:inline;fill:#e5e5f6;stroke:none;stroke-width:2;stroke-linecap:round;stroke-linejoin:round;stroke-opacity:0.6;paint-order:markers fill stroke" id="rect1-8" width="2.0000007" height="13.963907" x="38" y="4"/><rect style="display:inline;fill:#e5e5f6;stroke:none;stroke-width:2;stroke-linecap:round;stroke-linejoin:round;stroke-opacity:0.6;paint-order:markers fill stroke" id="rect1-3" width="2.0000007" height="13.963907" x="9.9819536" y="-45.981953" transform="rotate(90)"/><path id="path6" style="display:inline;fill:none;stroke:#fd5959;stroke-width:2;stroke-linecap:round;stroke-linejoin:round;stroke-dasharray:none;paint-order:fill markers stroke" d="M 6.0627212,19.50522 C 5.9329097,18.453357 5.9001908,17.330231 6,16.290531 6.2836873,13.335397 7.7583947,10.84406 9.1001401,9.677548 10.614481,8.3609811 13.314985,7.0000212 16.496811,7.0000213 c 1.238477,0 3.192009,0.3169973 5.112957,1.1548294"/><path id="path7" style="display:inline;fill:none;stroke:#fd5959;stroke-width:2;stroke-linecap:round;stroke-linejoin:round;stroke-dasharray:none;paint-order:fill markers stroke" d="M 35.654289,25.407034 C 35.520765,25.206652 35.38709,25.040219 35.256674,24.914996 33.608763,23.332703 33.122546,22.946751 31.268094,22.1 29.77512,21.457535 28.402546,21.386066 27.784501,21.385621 c -1.573301,-0.04264 -2.510142,0.19965 -3.904235,0.859709 -1.783764,0.844559 -3.702703,2.830196 -4.808625,3.519878 -2.071765,1.29201 -4.227965,1.675018 -5.817912,1.549056 -1.713055,-0.135714 -3.084515,-0.638707 -4.8230526,-2.547897"/><path id="path8" style="display:inline;fill:none;stroke:#fd5959;stroke-width:2;stroke-linecap:round;stroke-linejoin:round;stroke-dasharray:none;paint-order:fill markers stroke" d="m 22.996088,40.529203 c 1.450491,0.470778 2.832468,0.470781 3.781409,0.470781 3.181815,0 5.882337,-1.312014 7.396671,-2.581228 1.341742,-1.124553 2.816452,-3.526304 3.100139,-6.375144 0.02905,-0.291717 0.03864,-0.596818 0.03129,-0.909919"/><path id="path12-1-9-9-8-7-3" style="display:inline;fill:none;stroke:#e5e5f6;stroke-width:2;stroke-linecap:round;stroke-linejoin:round;paint-order:fill markers stroke" d="m 27,9.9607887 a 3,3 0 0 1 -3,3.0000003 3,3 0 0 1 -3,-3.0000003 3,3 0 0 1 3,-3 3,3 0 0 1 3,3 z"/><path id="path12-1-9-9-8-7-8" style="display:inline;fill:none;stroke:#e5e5f6;stroke-width:2;stroke-linecap:round;stroke-linejoin:round;paint-order:fill markers stroke" d="m 11,21.793276 a 3,3 0 0 1 -3,3 3,3 0 0 1 -3,-3 3,3 0 0 1 3,-3 3,3 0 0 1 3,3 z"/><path id="path12-1-9-9-8-7-32" style="display:inline;fill:none;stroke:#e5e5f6;stroke-width:2;stroke-linecap:round;stroke-linejoin:round;paint-order:fill markers stroke" d="m 39.205498,28.35 a 3,3 0 0 1 -3,3 3,3 0 0 1 -3,-3 3,3 0 0 1 3,-3 3,3 0 0 1 3,3 z"/><path id="path12-1-9-9-8-7-0" style="display:inline;fill:none;stroke:#e5e5f6;stroke-width:2;stroke-linecap:round;stroke-linejoin:round;paint-order:fill markers stroke" d="m 23,40.478737 a 3,3 0 0 1 -3,3 3,3 0 0 1 -3,-3 3,3 0 0 1 3,-3 3,3 0 0 1 3,3 z"/></g>


<!-- TINKERLAYER FOR USE AS DESIGN SANDBOX. DELETE IN FINAL VERSION -->
</svg>
