<?xml version="1.0" encoding="UTF-8" standalone="no"?>
<!-- Created with Inkscape (http://www.inkscape.org/) -->
<svg xmlns="http://www.w3.org/2000/svg" xmlns:svg="http://www.w3.org/2000/svg" width="48" height="48" viewBox="0 0 48 48" version="1.1" id="svg1" xml:space="preserve">
  <defs id="defs1"/>
  <g id="DarkThemeEnabledLayer" style="display:inline">
    <path d="m 32.034625,38.86925 1.1,1.1 14,-14 -14,-14 -1.1,1.1 c 4.341499,4.233884 8.633238,8.63574 12.9,12.83075 -4.218461,4.3 -8.589999,8.672885 -12.9,12.96925 z" id="path1" style="fill:#e5e5f6;fill-opacity:1;stroke-width:0.0025"/>
    <path id="path2" style="fill:none;stroke:#e5e5f6;stroke-width:2;stroke-linecap:butt;stroke-linejoin:miter;stroke-dasharray:none;stroke-opacity:1" d="M 6.1999019,3.0704841 11.517227,3.1023129 11.8,8 c 2.090936,0.720865 4.006857,1.841904 5.65415,3.259167 l 4.729553,-2.2487495 5.147151,9.0368605 -4.388383,2.881268 c 0.221755,1.069042 0.322361,2.137718 0.322361,3.208752 0,1.071035 -0.100598,2.13971 -0.322361,3.208754 l 4.388383,2.881268 -5.147151,9.036859 -4.729553,-2.24875 C 15.806857,38.432693 13.890936,39.553732 11.8,40.274596 l -0.282773,4.997687 -5.3212261,0.03185"/>
    <path id="path3" style="display:inline;fill:#7396df;fill-opacity:1;stroke:#010101;stroke-width:1.5;stroke-linecap:round;stroke-dasharray:none;stroke-opacity:1;paint-order:fill markers stroke" d="M 6.1995348,14.750001 H 9.229027 v 6.184616 l -3.0294922,1e-6"/>
    <path id="rect1-4-1" style="display:inline;fill:#e5e5e5;fill-opacity:1;stroke:#010101;stroke-width:1.5;stroke-linecap:round;stroke-dasharray:none;stroke-opacity:1;paint-order:fill markers stroke" d="m 9.164488,14.750001 h 6.100003 v 6.184616 H 9.164488 Z"/>
    <path id="path4" style="display:inline;fill:#feffff;fill-opacity:1;stroke:#010101;stroke-width:1.5;stroke-linecap:round;stroke-dasharray:none;stroke-opacity:1;paint-order:fill markers stroke" d="M 6.2000334,20.934623 H 9.238319 v 6.184617 l -3.0382859,-1e-6"/>
    <path id="rect1-4-1-5" style="display:inline;fill:#b2b2b2;fill-opacity:1;stroke:#010101;stroke-width:1.5;stroke-linecap:round;stroke-dasharray:none;stroke-opacity:1;paint-order:fill markers stroke" d="m 9.17378,20.934623 h 6.100003 V 27.11924 H 9.17378 Z"/>
    <path id="path5" style="display:inline;fill:#808080;fill-opacity:1;stroke:#010101;stroke-width:1.5;stroke-linecap:round;stroke-dasharray:none;stroke-opacity:1;paint-order:fill markers stroke" d="m 6.1907034,27.065384 3.0548846,10e-7 v 6.184617 H 6.1907035"/>
    <path id="rect1-4-1-3" style="display:inline;fill:#f1a16e;fill-opacity:1;stroke:#010101;stroke-width:1.5;stroke-linecap:round;stroke-dasharray:none;stroke-opacity:1;paint-order:fill markers stroke" d="m 9.181049,27.065385 h 6.100003 v 6.184617 H 9.181049 Z"/>
  </g>
</svg>
