<?xml version="1.0" encoding="UTF-8" standalone="no"?>
<!-- Created with Inkscape (http://www.inkscape.org/) -->
<svg xmlns="http://www.w3.org/2000/svg" xmlns:svg="http://www.w3.org/2000/svg" width="48" height="48" viewBox="0 0 48 48" version="1.1" id="svg1" xml:space="preserve">
  <defs id="defs1"/>
  <g id="DarkThemeEnabledLayer" style="display:inline">
    <path id="path10" style="fill:none;stroke:#e5e5f6;stroke-width:2;stroke-linecap:butt;stroke-linejoin:miter;stroke-dasharray:none;stroke-opacity:1" d="M 7.4767738,2.040124 C 7.4166909,2.606036 7.388429,3.173093 7.388429,3.740761 v 0 c 0,0.992916 0.086467,1.983961 0.2784402,2.970291 l -4.7085489,3.348393 v 0 l 5.2550338,8.974593 4.9369339,-2.510021 c 1.702356,1.528537 3.266602,2.722452 5.432341,3.418259 l 0.467581,5.295736 10.402185,-0.06227 0.282773,-5.297687 c 2.09093,-0.720862 4.006863,-1.841907 5.65415,-3.259167 l 4.729553,2.248749 5.147151,-9.03686 -4.388383,-2.881268 C 41.099394,5.880474 41.2,4.811792 41.2,3.740761 41.2,3.173329 41.17176,2.606556 41.11223,2.040041"/>
    <path id="path8" style="display:inline;opacity:1;fill:none;stroke:#e5e5f6;stroke-width:2;stroke-linecap:butt;stroke-linejoin:miter;stroke-dasharray:none;stroke-opacity:0.5" d="m 5.7889625,17.946772 -2.835455,2.016379 v 0 l 5.255034,8.974593 4.9369335,-2.510021 c 1.702356,1.528537 3.266602,2.722452 5.432341,3.418258 l 0.467581,5.295736 10.402185,-0.06227 0.282773,-5.297687 c 2.09093,-0.720861 4.006863,-1.841906 5.65415,-3.259166 l 4.729553,2.248749 5.147151,-9.03686 -2.722419,-1.787451"/>
    <path id="path8-9" style="display:inline;opacity:1;fill:none;stroke:#e5e5f6;stroke-width:2;stroke-linecap:butt;stroke-linejoin:miter;stroke-dasharray:none;stroke-opacity:0.2" d="m 6.058607,27.905773 -2.835454,2.016379 v 0 l 5.255033,8.974593 4.936934,-2.510021 c 1.702356,1.528537 3.266602,2.722452 5.432341,3.418258 l 0.467581,5.295736 10.402185,-0.06227 L 30,39.740761 c 2.09093,-0.720861 4.006863,-1.841906 5.65415,-3.259166 l 4.729553,2.248749 5.147151,-9.03686 -2.722419,-1.787451"/>
    <path id="rect1" style="display:inline;fill:#a4c5ac;fill-opacity:1;stroke:#010101;stroke-width:1.5;stroke-linecap:round;stroke-dasharray:none;stroke-opacity:1;paint-order:fill markers stroke" d="m 14.840704,12.690764 h 6.100003 V 6.790766 h -6.100003 z"/>
    <path id="rect1-4" style="display:inline;fill:#989898;fill-opacity:1;stroke:#010101;stroke-width:1.5;stroke-linecap:round;stroke-dasharray:none;stroke-opacity:1;paint-order:fill markers stroke" d="m 20.890705,12.690764 h 6.100003 V 6.790766 h -6.100003 z"/>
    <path id="rect1-4-1" style="display:inline;fill:#f1a16e;fill-opacity:1;stroke:#010101;stroke-width:1.5;stroke-linecap:round;stroke-dasharray:none;stroke-opacity:1;paint-order:fill markers stroke" d="m 26.933365,12.690764 h 6.299842 V 6.790766 h -6.299842 z"/>
    <path id="rect1-0" style="display:inline;fill:#b2b2b2;fill-opacity:1;stroke:#010101;stroke-width:1.5;stroke-linecap:butt;stroke-dasharray:none;stroke-opacity:1;paint-order:fill markers stroke" d="m 14.849996,2.041077 v 4.749683 0 h 6.100003 V 2.041076"/>
    <path id="rect1-4-4" style="display:inline;fill:#feffff;fill-opacity:1;stroke:#010101;stroke-width:1.5;stroke-linecap:butt;stroke-dasharray:none;stroke-opacity:1;paint-order:fill markers stroke" d="m 20.899996,2.041077 10e-7,4.749683 v 0 H 27 V 2.041076"/>
    <path id="rect1-4-1-5" style="display:inline;fill:#b2b2b2;fill-opacity:1;stroke:#010101;stroke-width:1.5;stroke-linecap:butt;stroke-dasharray:none;stroke-opacity:1;paint-order:fill markers stroke" d="m 26.94296,2.041077 1e-6,4.749683 v 0 h 6.299842 V 2.041076"/>
  </g>
</svg>
