<?xml version="1.0" encoding="UTF-8" standalone="no"?>
<!-- Created with Inkscape (http://www.inkscape.org/) -->
<svg xmlns="http://www.w3.org/2000/svg" xmlns:svg="http://www.w3.org/2000/svg" width="48" height="48" viewBox="0 0 48 48" version="1.1" id="svg1" xml:space="preserve">
  <defs id="defs1"/>
  <g id="DarkThemeEnabledLayer" style="display:inline">
    <path id="path71" style="display:inline;fill:none;stroke:#e5e5f6;stroke-width:2;stroke-linecap:round;stroke-linejoin:miter;stroke-dasharray:none;stroke-opacity:1" d="M 30.736676,39.802716 C 30,40 30.106544,39.969892 29.620974,40.137296 l -0.282773,4.997687 -10.402185,0.06227 -0.467581,-4.995734 C 16.30269,39.505708 14.738456,38.311803 13.036094,36.783259 L 8.0991603,39.293276 2.8441265,30.318683 v 0 L 7.5526748,26.970289 C 7.3606991,25.983957 7.274235,24.992917 7.274235,23.999998 v 0 c 0,-0.992919 0.086466,-1.983958 0.2784402,-2.970291 L 2.8441263,17.681314 v 0 L 8.0991601,8.7067208 13.036094,11.216742 C 14.738456,9.6881983 16.30269,8.4942937 18.468435,7.7984826 l 0.467581,-4.8957355 10.402185,0.062266 0.282773,4.8976871 c 2.090936,0.720865 4.006857,1.841904 5.65415,3.2591668 l 4.729553,-2.2487493 5.147151,9.0368603 -4.388383,2.881268 c 0.221755,1.069042 0.322361,2.137718 0.322361,3.208752 0,1.071035 -0.100598,2.13971 -0.322361,3.208754 L 45.151828,30.09002 42.609918,34"/>
    <ellipse style="fill:#99a2e3;fill-opacity:0.5;stroke:#e5e5f6;stroke-width:2.0001;stroke-linecap:round;stroke-linejoin:round;stroke-dasharray:none;stroke-opacity:1;paint-order:fill markers stroke" id="path1-3" cx="28.520803" cy="17.331827" rx="10.761375" ry="10.721485" transform="matrix(0.97044286,0.24133101,-0.22795385,0.97367194,0,0)"/>
    <path style="fill:none;stroke:#e5e5f6;stroke-width:2.00001;stroke-linecap:round;stroke-linejoin:miter;stroke-dasharray:none;stroke-opacity:1" d="m 31.647491,32.733199 11.468668,9.745714" id="path2"/>
  </g>
</svg>
