<?xml version="1.0" encoding="UTF-8" standalone="no"?>
<!-- Created with Inkscape (http://www.inkscape.org/) -->
<svg xmlns="http://www.w3.org/2000/svg" xmlns:svg="http://www.w3.org/2000/svg" width="48" height="48" viewBox="0 0 48 48" version="1.1" id="svg1" xml:space="preserve">
  <defs id="defs1"/>
  <g id="LightThemeEnabledLayer" style="display:inline">
    <path style="display:inline;fill:none;fill-opacity:1;stroke:#e5e5f6;stroke-width:2;stroke-linecap:round;stroke-linejoin:round;stroke-dasharray:none;stroke-opacity:1" d="M 11.3,22.1 29.6028,3.7972 34.986,9.1804 15.9972,28.1692" id="path4"/>
    <path style="fill:none;fill-opacity:1;stroke:#e5e5f6;stroke-width:2.00001;stroke-linecap:round;stroke-linejoin:round;stroke-dasharray:none;stroke-opacity:1" d="M 4.8133144,33.292527 11.505916,22.137591 16,27.9 Z" id="path2"/>
    <path id="path10" style="fill:none;stroke:#28b84d;stroke-width:2;stroke-linecap:butt;stroke-linejoin:round;stroke-opacity:1;paint-order:fill markers stroke" d="M 26.198914,35.689092 C 24,41.296664 20.300399,43 16,43 10.798438,43 6.3078798,39.245332 5.2360609,34"/>
    <path style="display:inline;fill:#abd4b5;fill-opacity:1;stroke:#e5e5f6;stroke-width:2;stroke-linecap:butt;stroke-linejoin:miter;stroke-dasharray:none;stroke-opacity:1" d="m 23.000004,26.999998 v 9.999998 0 h 9.999998 v -9.999998 z" id="path3-9-1-7"/>
    <path style="display:inline;fill:#abd4b5;fill-opacity:1;stroke:#e5e5f6;stroke-width:2;stroke-linecap:butt;stroke-linejoin:miter;stroke-dasharray:none;stroke-opacity:1" d="m 33.000002,26.999998 v 9.999998 0 H 43 v -9.999998 z" id="path3-9-1-7-1"/>
    <path style="fill:#cccccc;fill-opacity:1;stroke:#e5e5f6;stroke-width:2;stroke-linecap:butt;stroke-linejoin:miter;stroke-dasharray:none;stroke-opacity:1" d="m 33.000002,17 v 9.999998 0 H 43 V 17 Z" id="path3-9-1-8"/>
    <path id="path1" style="display:inline;fill:#989898;fill-opacity:1;stroke:#e5e5f6;stroke-width:2;stroke-linecap:butt;stroke-linejoin:miter;stroke-dasharray:none;stroke-opacity:1" d="M 27.171875,17 23,21.197266 V 27 H 33 V 17 Z"/>
    <path style="fill:none;stroke:#010101;stroke-width:2;stroke-linecap:butt;stroke-linejoin:miter;stroke-dasharray:none;stroke-opacity:1" d="M 33,18 V 36" id="path3"/>
    <path style="fill:none;stroke:#010101;stroke-width:2;stroke-linecap:butt;stroke-linejoin:miter;stroke-dasharray:none;stroke-opacity:1" d="M 42,27 H 24" id="path5"/>
  </g>
</svg>
