<?xml version="1.0" encoding="UTF-8" standalone="no"?>
<!-- Created with Inkscape (http://www.inkscape.org/) -->
<svg xmlns="http://www.w3.org/2000/svg" xmlns:svg="http://www.w3.org/2000/svg" width="48" height="48" viewBox="0 0 48 48" version="1.1" id="svg1" xml:space="preserve">
  <defs id="defs1"/>
  <g id="DarkThemeEnabledLayer" style="display:inline">
    <path style="display:inline;fill:#abd4b5;fill-opacity:1;stroke:#56695b;stroke-width:1.50933;stroke-linecap:butt;stroke-linejoin:miter;stroke-dasharray:none;stroke-opacity:1" d="m 4.754665,41.229788 h 15.986701 v 0 -17.219961 H 4.754665 Z" id="path3-9-1-8-2-5"/>
    <path style="display:inline;fill:#abd4b5;fill-opacity:1;stroke:#56695b;stroke-width:1.51094;stroke-linecap:butt;stroke-linejoin:miter;stroke-dasharray:none;stroke-opacity:1" d="m 4.75547,24.005015 h 15.988774 v 0 V 6.75547 H 4.75547 Z" id="path3-9-1-8-95"/>
    <path style="display:inline;fill:#abd4b5;fill-opacity:0.8;stroke:#56695b;stroke-width:1.5;stroke-linecap:round;stroke-linejoin:round;stroke-dasharray:none;stroke-opacity:1" d="M 37.19953,6.739422 31.697028,24.01274 H 44.043222 L 37.19953,6.739422" id="path3-2-2-52"/>
    <g id="g2" transform="matrix(0,-0.99833762,0.99874058,0,0.04327275,47.964955)" style="display:inline;fill:#abd4b5;fill-opacity:1;stroke:#738c79;stroke-width:1.00146;stroke-opacity:1">
      <path style="fill:#abd4b5;fill-opacity:1;stroke:#56695b;stroke-width:1.50219;stroke-linecap:butt;stroke-linejoin:round;stroke-dasharray:none;stroke-opacity:0" d="m 6.7353789,21.269259 -0.00125,15.7792 17.2437801,-5.354789 z" id="path1"/>
      <path style="fill:#abd4b5;fill-opacity:1;stroke:#56695b;stroke-width:1.50219;stroke-linecap:butt;stroke-linejoin:round;stroke-dasharray:none;stroke-opacity:1" d="m 23.978005,31.693672 0.022,-10.937728 -17.2334777,-0.019 17.2113657,10.956728" id="path2"/>
    </g>
    <g id="g4" transform="matrix(0,1.007579,1,0,-0.00509201,-0.14700003)" style="display:inline;fill:#abd4b5;fill-opacity:1;stroke:#738c79;stroke-width:0.996232;stroke-opacity:1">
      <path style="display:inline;fill:#abd4b5;fill-opacity:1;stroke:#56695b;stroke-width:1.49435;stroke-linecap:butt;stroke-linejoin:round;stroke-dasharray:none;stroke-opacity:1" d="m 6.8427811,20.755944 -0.00816,16.348678 17.1432799,-5.4025 z" id="path3"/>
      <path style="display:inline;fill:#abd4b5;fill-opacity:1;stroke:#56695b;stroke-width:1.49435;stroke-linecap:butt;stroke-linejoin:round;stroke-dasharray:none;stroke-opacity:1" d="M 23.978012,31.70212 23.956084,20.755944 H 6.8427811 L 23.978012,31.70212" id="path4"/>
    </g>
    <path style="display:inline;fill:#abd4b5;fill-opacity:0.8;stroke:#56695b;stroke-width:1.5;stroke-linecap:round;stroke-linejoin:round;stroke-dasharray:none;stroke-opacity:0.990099" d="m 37.043367,41.242024 -5.34634,-17.229395 12.446194,1.11e-4 -7.099855,17.229284" id="path3-5-5"/>
    <path style="display:inline;fill:#feffff;fill-opacity:0.35;stroke:none;stroke-width:1px;stroke-linecap:butt;stroke-linejoin:miter;stroke-opacity:1" d="M 22.412324,7.9753175 32.103609,23.294579 42.757872,23.270277 36.514681,7.9877302 Z" id="path6"/>
    <path style="display:inline;fill:#abd4b5;fill-opacity:0.605941;stroke:none;stroke-width:1px;stroke-linecap:butt;stroke-linejoin:miter;stroke-opacity:1" d="m 22.432396,40.001105 9.691285,-15.257504 10.654263,0.0243 -6.135114,15.236228 z" id="path7"/>
    <path style="display:inline;fill:#56695b;fill-opacity:0.4;stroke:none;stroke-width:1px;stroke-linecap:butt;stroke-linejoin:miter;stroke-opacity:1" d="m 22.432396,40.001105 9.691285,-15.257504 10.654263,0.0243 -6.135114,15.236228 z" id="path8"/>
    <path id="rect1-8" style="display:inline;fill:none;fill-opacity:0.8;stroke:#14cc42;stroke-width:2.5;stroke-linecap:round;stroke-dasharray:none;stroke-opacity:1;paint-order:fill markers stroke" d="M 4.994915,40.990641 V 6.990653 h 32.299988 l 6.6,17.038935 -6.6,16.961053 z"/>
  </g>
</svg>
