<?xml version="1.0" encoding="UTF-8" standalone="no"?>
<!-- Created with Inkscape (http://www.inkscape.org/) -->
<svg xmlns="http://www.w3.org/2000/svg" xmlns:svg="http://www.w3.org/2000/svg" width="48" height="48" viewBox="0 0 48 48" version="1.1" id="svg1" xml:space="preserve">
  <defs id="defs1"/>
  <g id="LightThemeEnbledLayer" style="display:inline">
    <g style="fill:#e5e5f6;fill-opacity:1" id="g4" transform="matrix(0.05,0,0,0.05,0,48)">
      <path d="m 312.31,-160 h 335.38 v -120 q 0,-70.62 -48.54,-120.69 -48.53,-50.08 -119.15,-50.08 -70.62,0 -119.15,50.08 -48.54,50.07 -48.54,120.69 z M 200,-120 v -40 h 72.31 v -120 q 0,-74.08 45.42,-131.42 45.42,-57.35 116.42,-68.58 -71,-12 -116.42,-68.96 Q 272.31,-605.92 272.31,-680 V -800 H 200 v -40 h 560 v 40 h -72.31 v 120 q 0,74.08 -45.42,131.04 -45.42,56.96 -116.42,68.96 71,11.23 116.42,68.58 45.42,57.34 45.42,131.42 v 120 H 760 v 40 z" id="path1-0" style="fill:#e5e5f6;fill-opacity:1"/>
    </g>
  </g>
</svg>
