<?xml version="1.0" encoding="UTF-8" standalone="no"?>
<!-- Created with Inkscape (http://www.inkscape.org/) -->
<svg xmlns="http://www.w3.org/2000/svg" xmlns:svg="http://www.w3.org/2000/svg" width="48" height="48" viewBox="0 0 48 48" version="1.1" id="svg1" xml:space="preserve">
  <defs id="defs1"/>
  <g id="DarkThemeEnabledLayer" style="display:inline">
    <rect style="display:inline;fill:#e5e5f6;fill-opacity:0.5;stroke:none;stroke-width:1;stroke-linejoin:round;stroke-dasharray:none;stroke-opacity:1;paint-order:markers fill stroke" id="rect1-0-2" width="1.5" height="24" x="24" y="12"/>
    <path id="rect1-9" style="display:inline;fill:none;stroke:#e5e5f6;stroke-width:2;stroke-linejoin:round;paint-order:markers fill stroke" d="M 4.9845958,20.982029 H 17.099825 V 32.95 H 4.9845958 Z"/>
    <path id="path3-5-7" style="display:inline;fill:none;stroke:#e5e5f6;stroke-width:2;stroke-linejoin:round;paint-order:markers fill stroke" d="m 7.0872028,20.134163 c 0,-0.985545 -0.057906,-2.159843 0.1263283,-3.025499 0.2491628,-1.170734 0.3835209,-1.803252 0.7261435,-2.481615 0.4991803,-0.988331 1.8800521,-1.630845 3.1004344,-1.630845 0.0045,0 0.0089,1.1e-5 0.0021,3.4e-5 -0.0069,-2.3e-5 -0.0024,-3.4e-5 0.0021,-3.4e-5 1.220383,0 2.601255,0.642514 3.100435,1.630845 0.342622,0.678363 0.47698,1.310881 0.726143,2.481615 0.184236,0.865656 0.126329,2.039954 0.126329,3.025499"/>
    <ellipse style="display:inline;fill:#e5e5f6;fill-opacity:1;stroke:#e5e5f6;stroke-width:1;stroke-linejoin:round;stroke-dasharray:none;stroke-opacity:1;paint-order:markers fill stroke" id="path4-3" cx="11.042211" cy="27.231262" rx="1.3868864" ry="1.44183"/>
    <path id="rect1-9-5" style="display:inline;fill:none;stroke:#e5e5f6;stroke-width:2;stroke-linejoin:round;paint-order:markers fill stroke" d="m 31,21.05 h 12 v 12 H 31 Z"/>
    <path id="path4" style="display:inline;fill:none;stroke:#e5e5f6;stroke-width:2;stroke-linejoin:round;paint-order:markers fill stroke" d="m 33.074963,20.07115 c 0,-0.946082 -0.06014,-2.073364 0.1312,-2.904357 0.258771,-1.123857 0.39831,-1.395065 0.754143,-2.046266 0.518426,-0.948756 1.952545,-1.901531 3.21998,-1.901531 0.0047,0 0.0093,1.1e-5 0.0022,3.2e-5 -0.0071,-2.1e-5 -0.0024,-3.2e-5 0.0022,-3.2e-5 0.765041,0 1.590815,0.197142 2.239273,0.681003"/>
    <ellipse style="display:inline;fill:#e5e5f6;fill-opacity:1;stroke:#e5e5f6;stroke-width:1;stroke-linejoin:round;stroke-dasharray:none;stroke-opacity:1;paint-order:markers fill stroke" id="path4-3-0" cx="37" cy="27.331261" rx="1.4339985" ry="1.44183"/>
  </g>
</svg>
