<?xml version="1.0" encoding="UTF-8" standalone="no"?>
<!-- Created with Inkscape (http://www.inkscape.org/) -->
<svg xmlns="http://www.w3.org/2000/svg" xmlns:svg="http://www.w3.org/2000/svg" width="48" height="48" viewBox="0 0 48 48" version="1.1" id="svg1" xml:space="preserve">
  <defs id="defs1"/>
  <g id="DarkThemeEnabledLayer" style="display:inline">
    <path id="rect4-1-1-4" style="display:inline;fill:none;fill-opacity:1;stroke:#e5e5f6;stroke-width:2.08501;stroke-linecap:round;stroke-linejoin:round;stroke-dasharray:none;paint-order:fill markers stroke" d="m 22.270417,32.97503 h 10.331318 c 5.705276,0 10.29834,-4.008438 10.29834,-8.987519 0,-4.979072 -4.593064,-8.987509 -10.29834,-8.987509 v 0 L 22.270417,15"/>
    <path id="path5" style="display:inline;fill:#e5e5f6;fill-opacity:0.5;stroke:#e5e5f6;stroke-width:1.77651;stroke-linecap:butt;stroke-linejoin:round;stroke-dasharray:none;paint-order:fill markers stroke" d="m 31.086963,29.138893 c -2.343228,0 -4.229661,-2.285899 -4.229661,-5.125322 0,-2.839417 1.886433,-5.125316 4.229661,-5.125316 v 0 h 1.40573 l 0.38939,10e-7 v 0 c 2.343229,0 4.229662,2.285899 4.229662,5.125316 0,2.839424 -1.886433,5.125322 -4.229662,5.125322 l -0.408855,-1e-6 z"/>
    <path id="rect4-1-1-9-1" style="display:inline;fill:none;fill-opacity:1;stroke:#e5e5f6;stroke-width:2.08501;stroke-linecap:round;stroke-linejoin:round;stroke-dasharray:none;paint-order:fill markers stroke" d="M 25.685313,32.97503 H 15.353995 c -5.7052758,0 -10.2983398,-4.008438 -10.2983398,-8.987519 0,-4.979072 4.593064,-8.987509 10.2983398,-8.987509 v 0 L 25.685313,15"/>
  </g>
</svg>
