<?xml version="1.0" encoding="UTF-8" standalone="no"?>
<!-- Created with Inkscape (http://www.inkscape.org/) -->
<svg xmlns="http://www.w3.org/2000/svg" xmlns:svg="http://www.w3.org/2000/svg" width="48" height="48" viewBox="0 0 48 48" version="1.1" id="svg1" xml:space="preserve">
  <defs id="defs1"/>
  <g id="LightThemeEnabledLayer" style="display:inline">
    <g id="g45">
      <path style="fill:#f7ce63;fill-opacity:1;stroke:none;stroke-width:0.1;stroke-linecap:butt;stroke-linejoin:miter;stroke-dasharray:none;stroke-opacity:1" d="m 39.92286,13.413879 -5.206612,-2.861813 -1.398811,7.752391 z" id="path42"/>
      <path style="fill:#d53f37;stroke:none;stroke-width:0.1;stroke-linecap:butt;stroke-linejoin:miter;stroke-dasharray:none;stroke-opacity:1" d="M 28.880944,12.112146 25.240932,5.5278723 32.205794,9.1860596 Z" id="path43"/>
      <path style="fill:#fc8400;fill-opacity:1;stroke:none;stroke-width:0.1;stroke-linecap:butt;stroke-linejoin:miter;stroke-dasharray:none;stroke-opacity:1" d="m 33.33986,18.366004 -4.485162,-6.221789 3.172759,-3.0730282 4.621961,2.3305502 z" id="path44"/>
      <path style="fill:#f7ce63;fill-opacity:1;stroke:none;stroke-width:0.1;stroke-linecap:butt;stroke-linejoin:miter;stroke-dasharray:none;stroke-opacity:1" d="m 35.264543,22.798634 -2.171722,-3.597957 7.233199,-4.815848 -0.0024,5.09633 z" id="path38"/>
      <path style="fill:#28b1a3;fill-opacity:1;stroke:none;stroke-width:0.1;stroke-linecap:butt;stroke-linejoin:miter;stroke-dasharray:none;stroke-opacity:1" d="m 40.309477,23.855608 -3.838089,1.068245 3.86889,7.096404 z" id="path39"/>
      <path style="fill:#14cc42;stroke:none;stroke-width:0.1;stroke-linecap:butt;stroke-linejoin:miter;stroke-dasharray:none;stroke-opacity:1" d="m 40.321083,23.96757 -0.02819,-5.117822 -5.770251,2.456435 1.771039,4.017744 z" id="path40"/>
      <path style="fill:#2454cd;fill-opacity:1;stroke:none;stroke-width:0.1;stroke-linecap:butt;stroke-linejoin:miter;stroke-dasharray:none;stroke-opacity:1" d="M 38.598702,34.266962 24.746417,35.93434 24.508315,42.785951 Z" id="path36"/>
      <path style="fill:#28b1a3;fill-opacity:1;stroke:none;stroke-width:0.1;stroke-linecap:butt;stroke-linejoin:miter;stroke-dasharray:none;stroke-opacity:1" d="M 11.793311,25.244805 36.372134,24.953489 38.840311,29.920983 23.961704,33.987531 9.496227,29.751374 Z" id="path31"/>
      <path style="fill:#14cc42;stroke:none;stroke-width:1px;stroke-linecap:butt;stroke-linejoin:miter;stroke-opacity:1" d="m 26.972101,29.393466 4.40924,-6.897844 1.373155,-2.87535 1.687074,2.824876 1.502335,2.560242 c 0,0 -6.634373,3.689697 -8.971804,4.388076 z" id="path33"/>
      <path style="fill:#1c81a8;fill-opacity:1;stroke:none;stroke-width:0.1;stroke-linecap:butt;stroke-linejoin:miter;stroke-dasharray:none;stroke-opacity:1" d="M 37.740058,28.42145 26.448552,31.969142 24.116071,35.43202 40.318413,32.998726 Z" id="path34"/>
      <path style="fill:#14cc42;stroke:none;stroke-width:0.1;stroke-linecap:butt;stroke-linejoin:miter;stroke-dasharray:none;stroke-opacity:1" d="m 20.271301,29.05384 -4.211665,-8.371413 15.666721,0.110605 -4.526037,8.425534 -3.346898,0.673758 z" id="path35"/>
      <path style="fill:#2454cd;fill-opacity:1;stroke:#fd5959;stroke-width:0.1;stroke-linecap:butt;stroke-linejoin:miter;stroke-dasharray:none;stroke-opacity:1" d="m 9.4070356,34.04704 14.1455134,1.520764 -0.05513,6.998225 z" id="path1"/>
      <path style="fill:#1c81a8;fill-opacity:1;stroke:none;stroke-width:0.1;stroke-linecap:butt;stroke-linejoin:miter;stroke-dasharray:none;stroke-opacity:1" d="M 10.346924,28.42145 21.63843,31.969142 23.970911,35.43202 7.7685692,32.998726 Z" id="path32"/>
      <path style="fill:#14cc42;stroke:none;stroke-width:1px;stroke-linecap:butt;stroke-linejoin:miter;stroke-opacity:1" d="m 20.915933,29.100237 -4.40924,-6.897844 -1.373155,-2.87535 -1.687074,2.824876 -1.942179,3.293314 c 0,0 7.074217,2.956625 9.411648,3.655004 z" id="path30"/>
      <path style="fill:#f7ce63;fill-opacity:1;stroke:none;stroke-width:0.1;stroke-linecap:butt;stroke-linejoin:miter;stroke-dasharray:none;stroke-opacity:1" d="m 12.584349,22.945248 2.171722,-3.597957 -7.2331995,-4.815848 0.00239,5.09633 z" id="path4"/>
      <path style="fill:#28b1a3;fill-opacity:1;stroke:none;stroke-width:0.1;stroke-linecap:butt;stroke-linejoin:miter;stroke-dasharray:none;stroke-opacity:1" d="m 7.5394153,24.002222 3.8380887,1.068245 -3.8688901,7.096404 z" id="path2"/>
      <path style="fill:#14cc42;stroke:none;stroke-width:0.1;stroke-linecap:butt;stroke-linejoin:miter;stroke-dasharray:none;stroke-opacity:1" d="m 7.5278087,24.114184 0.2481159,-5.264436 5.5503294,2.603049 -1.771039,4.017744 z" id="path3"/>
      <path style="fill:#f7ce63;fill-opacity:1;stroke:none;stroke-width:0.1;stroke-linecap:butt;stroke-linejoin:miter;stroke-dasharray:none;stroke-opacity:1" d="m 13.388944,21.56975 2.230849,-2.353467 16.546408,0.110605 2.350315,2.166349 -10.600951,3.128052 z" id="path37"/>
      <path style="fill:#fc8400;fill-opacity:1;stroke:none;stroke-width:1px;stroke-linecap:butt;stroke-linejoin:miter;stroke-opacity:1" d="m 19.4446,11.230037 -3.951308,7.070763 8.420676,2.754552 8.684333,-2.390615 -4.575201,-7.38271 z" id="path45"/>
      <path style="fill:#d53f37;fill-opacity:1;stroke:none;stroke-width:1px;stroke-linecap:butt;stroke-linejoin:miter;stroke-opacity:1" d="m 23.967441,4.9409801 -4.609123,6.9321209 4.923372,2.083833 4.294874,-1.862595 z" id="path41"/>
      <path style="fill:#f7ce63;fill-opacity:1;stroke:none;stroke-width:0.1;stroke-linecap:butt;stroke-linejoin:miter;stroke-dasharray:none;stroke-opacity:1" d="m 8.4657816,13.569852 5.2066124,-2.861813 1.398811,7.752391 z" id="path5"/>
      <path style="fill:#d53f37;stroke:none;stroke-width:0.1;stroke-linecap:butt;stroke-linejoin:miter;stroke-dasharray:none;stroke-opacity:1" d="M 19.507698,12.268119 23.14771,5.683845 16.182848,9.3420323 Z" id="path6"/>
      <path style="fill:#fc8400;fill-opacity:1;stroke:none;stroke-width:0.1;stroke-linecap:butt;stroke-linejoin:miter;stroke-dasharray:none;stroke-opacity:1" d="M 15.048782,18.521977 19.533944,12.300188 16.361185,9.2271595 11.739224,11.245764 Z" id="path29"/>
    </g>
    <g id="g46">
      <path style="display:inline;fill:none;fill-opacity:1;stroke:#e5e5f6;stroke-width:1.5;stroke-linecap:butt;stroke-linejoin:round;stroke-dasharray:none;stroke-opacity:1" d="m 14.992538,18.762851 h 17.914924 l -8.914924,16.624297 -9,-16.624297" id="path1-4-7"/>
      <path style="display:inline;fill:none;fill-opacity:1;stroke:#e5e5f6;stroke-width:1.5;stroke-linecap:round;stroke-linejoin:round;stroke-dasharray:none;stroke-opacity:1" d="m 14.992538,18.812851 h 17.914924 l -8.764924,-14.0242975 -9.15,14.0242975" id="path1-0-9-8"/>
      <path style="display:inline;fill:none;fill-opacity:1;stroke:#e5e5f6;stroke-width:1.5;stroke-linecap:round;stroke-linejoin:round;stroke-dasharray:none;stroke-opacity:1" d="M 32.957462,18.912851 40.7,13.606132 v 20.050793 z" id="path2-3-9"/>
      <path style="display:inline;fill:none;fill-opacity:1;stroke:#e5e5f6;stroke-width:1.5;stroke-linecap:round;stroke-linejoin:round;stroke-dasharray:none;stroke-opacity:1" d="M 14.992538,18.86285 7.3,13.606132 v 19.800792 z" id="path2-6-0-7"/>
      <path style="display:inline;fill:none;fill-opacity:1;stroke:#e5e5f6;stroke-width:1.5;stroke-linecap:round;stroke-linejoin:round;stroke-dasharray:none;stroke-opacity:1" d="m 7.35,33.456924 16.642538,2.080224 v 7.678578 L 7.35,33.456924" id="path3-5-5"/>
      <path style="display:inline;fill:none;fill-opacity:1;stroke:#e5e5f6;stroke-width:1.5;stroke-linecap:round;stroke-linejoin:round;stroke-dasharray:none;stroke-opacity:1" d="m 40.696269,33.695599 -16.742538,1.830224 v 7.678578 l 16.742538,-9.508802" id="path3-2-2-52"/>
      <path style="display:inline;fill:none;fill-opacity:1;stroke:#e5e5f6;stroke-width:1.5;stroke-linecap:round;stroke-linejoin:round;stroke-dasharray:none;stroke-opacity:1" d="M 7.496269,13.612557 24.138807,4.7949792 15.046269,18.806425 Z" id="path6-38-49"/>
      <path style="display:inline;fill:none;fill-opacity:1;stroke:#e5e5f6;stroke-width:1.5;stroke-linecap:round;stroke-linejoin:round;stroke-dasharray:none;stroke-opacity:1" d="M 40.4,13.606132 24.142538,4.7885535 32.9,18.849999 Z" id="path6-3-7-4"/>
      <path style="display:inline;fill:none;fill-opacity:1;stroke:#e5e5f6;stroke-width:1.5;stroke-linecap:round;stroke-linejoin:round;stroke-dasharray:none;stroke-opacity:1" d="M 23.992538,35.537148 32.9,18.899999 l 7.796269,14.6956 z" id="path7-8-4"/>
      <path style="display:inline;fill:none;fill-opacity:1;stroke:#e5e5f6;stroke-width:1.5;stroke-linecap:round;stroke-linejoin:round;stroke-dasharray:none;stroke-opacity:1" d="m 7.315673,33.369012 7.749999,-14.506924 8.903731,16.675824 -16.65373,-2.1689" id="path8-0-7"/>
    </g>
  </g>
</svg>
