<?xml version="1.0" encoding="UTF-8" standalone="no"?>
<svg xmlns="http://www.w3.org/2000/svg" xmlns:svg="http://www.w3.org/2000/svg" height="48" viewBox="0 -960 1920 1920" width="48" fill="#000000" version="1.1" id="svg1" xml:space="preserve">
  <defs id="defs1"/>
  <g id="layer1" style="fill:#e5e5f6">
    <path d="m 260,-200 q -74.85,0 -127.42,-52.23 Q 80,-304.46 80,-379.31 q 0,-68.77 47,-122.07 47,-53.31 116.85,-57.24 10.07,-74.3 74.61,-136.61 64.54,-62.31 141.54,-62.31 16.08,0 28.04,11.96 11.96,11.96 11.96,28.04 v 291.23 l 82.46,-82 L 610.77,-480 480,-349.23 349.23,-480 l 28.31,-28.31 82.46,82 v -291.23 q -75.23,3.23 -127.62,65.42 Q 280,-589.92 280,-520 h -20 q -58,0 -99,41 -41,41 -41,99 0,58 41,99 41,41 99,41 h 480 q 42,0 71,-29 29,-29 29,-71 0,-42 -29,-71 -29,-29 -71,-29 h -60 v -80 q 0,-49.54 -22,-91.04 -22,-41.5 -58,-68.96 v -47.62 q 56.31,31.16 88.15,86.97 Q 720,-584.85 720,-520 v 40 h 24.62 q 57.46,1.85 96.42,42.19 38.96,40.35 38.96,97.81 0,58.85 -40.58,99.42 Q 798.85,-200 740,-200 Z m 220,-298.77 z" id="path1" style="fill:#e5e5f6" transform="matrix(2,0,0,2,1.55844,875.46208)"/>
  </g>
</svg>
