<?xml version="1.0" encoding="UTF-8" standalone="no"?>
<!-- Created with Inkscape (http://www.inkscape.org/) -->
<svg xmlns="http://www.w3.org/2000/svg" xmlns:svg="http://www.w3.org/2000/svg" width="48" height="48" viewBox="0 0 48 48" version="1.1" id="svg1" xml:space="preserve">
  <defs id="defs1"/>
  <g id="DarkThemeEnabledLayer" style="display:inline">
    <path id="path2" style="fill:none;fill-opacity:1;stroke:#e5e5f6;stroke-width:1.75;stroke-linecap:round;stroke-linejoin:round;stroke-dasharray:none;stroke-opacity:1;paint-order:fill markers stroke" d="m 21.99375,4.8816404 c -1.253764,0.086197 -4.910629,0.210438 -5.234444,3.3930776 -0.104982,3.207682 1.273841,3.512818 2.00905,4.810935 v 1.774894 H 4.897656 V 24.91914 c 1.8988931,-0.636887 2.2046753,-1.179676 4.5190158,-1.2526 1.8576562,0.299435 3.6335542,1.27019 3.8122162,4.296166 -0.05285,2.976216 -1.889955,4.375231 -3.8122162,4.535579 -1.9448757,-0.05112 -2.1877224,-0.400693 -4.5250277,-1.356135 0.011315,3.536234 0.00141,7.994339 0.00601,11.989881 H 18.870312 c 0.179921,-1.405154 -1.212893,-2.732011 -1.115262,-4.466817 -0.08352,-2.906969 1.760621,-3.986129 4.352015,-4.031074 2.873266,0.10996 4.464356,1.490582 4.310588,4.055322 -0.01863,2.186226 -1.317624,3.00157 -1.220556,4.500605 0,0 1.112265,0.01763 1.61405,-0.008 h 6.298228 V 30.845703 c 0.644059,0.01122 1.625638,0.01808 1.697003,0 1.143793,1.373849 2.318237,2.241751 4.254213,2.245015 3.050951,-0.113522 4.078836,-3.006555 4.028174,-5.244813 -0.04934,-2.179751 -1.169409,-4.858773 -3.948841,-4.823841 -1.895125,-0.03942 -3.258256,0.817082 -4.446959,1.946838 -0.209948,-0.0018 -1.325276,-0.0067 -1.58359,0 V 14.860557 H 24.862109 V 13.159385 C 25.709439,12.06657 27.372644,11.851624 27.227612,8.274718 26.961861,5.3314828 23.127638,4.9983484 21.99375,4.8816404 Z"/>
  </g>
</svg>
