<?xml version="1.0" encoding="UTF-8" standalone="no"?>
<!-- Created with Inkscape (http://www.inkscape.org/) -->
<svg xmlns="http://www.w3.org/2000/svg" xmlns:svg="http://www.w3.org/2000/svg" width="48" height="48" viewBox="0 0 48 48" version="1.1" id="svg1" xml:space="preserve">
  <defs id="defs1"/>
  <g id="LightThemeEnabledLayer" style="display:inline">
    <path style="opacity:0.5;fill:none;stroke:none;stroke-width:1px;stroke-linecap:butt;stroke-linejoin:miter;stroke-opacity:1" d="M 5.2151039,12.927104 13.342283,4.9380407 43.150255,5.0761565 43.215154,34.31919 34.875812,42.656869 34.738527,13.136773 Z" id="path71"/>
    <path style="display:inline;fill:none;stroke:#e5e5f6;stroke-width:1.7609;stroke-linecap:round;stroke-linejoin:miter;stroke-dasharray:none;stroke-opacity:1" d="m 34.992028,12.983176 7.95358,-7.9790487" id="path4-8"/>
    <path style="display:inline;fill:none;stroke:#e5e5f6;stroke-width:1.76088;stroke-linecap:round;stroke-linejoin:miter;stroke-dasharray:none;stroke-opacity:1" d="M 35.042201,43.022691 42.94561,34.591552" id="path6-5"/>
    <path style="display:inline;fill:none;stroke:#e5e5f6;stroke-width:2;stroke-linecap:round;stroke-linejoin:round;stroke-dasharray:none;stroke-opacity:1" d="M 13.20266,5.0041273 H 42.945608 V 34.381105" id="path7"/>
    <path style="display:inline;fill:none;stroke:#e5e5f6;stroke-width:1.7609;stroke-linecap:round;stroke-linejoin:miter;stroke-dasharray:none;stroke-opacity:1" d="M 4.9920264,12.983176 13.00266,5.0041273" id="path1-4"/>
    <path id="rect1" style="display:inline;fill:#333333;fill-opacity:1;stroke:#e5e5f6;stroke-width:2;stroke-linecap:round;stroke-linejoin:round;paint-order:fill markers stroke" d="M 5,13 35.001278,12.9945 34.998678,43.005452 5,43 Z"/>
    <g id="g70" transform="matrix(1,0,0,0.96213828,0,1.6024199)" style="display:inline;stroke-width:1.01949">
      <path id="path58" style="display:inline;opacity:0.625175;fill:#345fff;fill-opacity:1;fill-rule:evenodd;stroke-width:1.01948" d="m 15.983617,13.486565 c -0.605866,0.05979 -1.247909,0.08226 -1.791196,0.357009 -0.66782,0.337728 -1.388787,0.815206 -1.658395,1.513314 -0.323766,0.838342 0.06147,1.806135 0.253068,2.684163 0.342582,1.569954 2.681362,3.374046 1.588007,4.551624 -1.176254,1.266862 -3.633269,-2.152864 -5.0098217,-1.341006 -0.9340702,0.550894 -1.6526888,0.488984 -2.1102391,1.145709 -1.6776537,2.407947 -1.7347265,5.817428 -1.2602771,8.713568 0.4964879,3.030668 1.5942305,6.331179 4.1593479,8.220879 3.361437,2.476341 8.125395,2.144305 12.282608,2.290902 2.142407,0.07555 4.479893,0.274693 6.39224,-0.731987 3.335418,-1.755799 4.556364,-4.777051 4.319534,-7.445932 -0.286183,-3.225036 -3.408001,-3.79543 -3.10824,-6.064602 0.279942,-2.119138 4.23734,-2.540299 4.263975,-4.640911 0.05129,-4.045364 -3.981647,-8.540961 -7.982319,-9.142809 -1.335629,-0.200928 -2.940267,-0.02064 -4.41029,-0.0406 -1.287002,-0.01748 -5.180906,-0.151831 -3.86074,-0.06932 1.65381,0.103363 -1.381506,-0.06767 -2.067262,3e-6 z"/>
      <path id="path57" style="display:inline;opacity:0.556643;fill:#41e8ff;fill-opacity:1;fill-rule:evenodd;stroke-width:1.01948" d="m 25.640609,13.139141 c -1.722223,-0.537131 -3.718253,-0.04185 -5.363406,0.724531 -1.408005,0.655904 -3.070571,1.608273 -3.499889,3.148624 -0.699305,2.50904 3.749754,5.461162 2.180612,7.50169 -1.040593,1.353198 -3.320808,-0.380697 -4.98749,-0.369562 -0.935803,0.0063 -1.892028,-5.55e-4 -2.797562,0.244899 -1.058841,0.28701 -2.5033361,0.421692 -2.9891026,1.410556 -1.4706883,2.99385 -0.1412393,7.349719 2.1510976,9.772785 2.40099,2.537916 6.613161,2.693812 10.095443,2.816722 2.058612,0.07266 4.20153,-0.324008 6.063036,-1.240505 1.071331,-0.527461 2.308803,-1.207065 2.741905,-2.353992 0.588558,-1.558605 -0.708011,-3.306339 -0.637902,-4.979102 0.05394,-1.287077 0.145656,-2.684238 0.809488,-3.772205 0.902209,-1.478648 3.622559,-1.51207 3.992794,-3.220178 0.542208,-2.501519 -1.665628,-4.980234 -3.336939,-6.866429 -1.171245,-1.321834 -3.033871,-1.755624 -4.42195,-2.817711 -4.8e-5,-3.7e-5 -7.7e-5,-1.04e-4 -1.35e-4,-1.23e-4 z"/>
      <path id="path52" style="display:inline;opacity:0.735664;fill:#14cc42;fill-rule:evenodd;stroke-width:1.01948" d="m 25.884515,14.470137 c -1.973387,-0.269083 -4.212511,0.1396 -5.828515,1.347135 -0.773151,0.577725 -1.267889,1.576306 -1.475965,2.542085 -0.424244,1.969117 1.554195,4.267408 0.595226,6.021952 -0.586694,1.073425 -2.307957,0.800778 -3.23122,1.56141 -0.0039,0.0032 -0.0048,0.0093 -0.009,0.01202 -1.481156,0.94112 -4.203679,-0.283927 -5.190325,1.136819 -1.5513215,2.233868 -0.495785,6.1114 1.398676,7.949925 2.788312,2.705984 8.149548,3.455029 11.372391,1.333545 1.307482,-0.860668 1.707014,-2.660559 1.501439,-4.566377 -0.142194,-1.318238 -0.317298,-2.760587 0.08204,-4.043095 0.266097,-0.854587 0.77206,-1.693109 1.474374,-2.216539 1.384873,-1.032135 4.035426,0.0055 4.915685,-1.459668 1.296254,-2.157606 -0.003,-5.377923 -1.501346,-7.400392 -0.925669,-1.249435 -2.574709,-2.010365 -4.103463,-2.21882 z"/>
      <path id="path56" style="display:inline;opacity:0.806993;fill:#86bf11;fill-opacity:1;fill-rule:evenodd;stroke-width:1.01948" d="m 25.177682,15.274563 c -1.534121,-0.185091 -4.089313,-0.06825 -4.401562,1.503798 -0.427468,2.152127 -0.664093,3.964087 -1.019899,7.218966 -0.722918,0.89661 -1.57981,2.589863 -2.978011,2.806646 -2.11139,0.327359 -3.847941,0.177608 -4.454104,1.418884 -0.645856,1.322558 -0.343692,4.209043 0.916816,5.556075 2.098352,2.242387 6.12583,3.165454 8.853098,1.842642 1.070172,-0.519068 1.386902,-2.0477 1.698245,-3.231716 0.39894,-1.517144 -0.447553,-3.271989 0.15285,-4.715678 0.424652,-1.021089 1.363121,-1.765432 2.263382,-2.367024 1.48563,-0.99276 4.168503,-0.326963 4.96948,-1.910637 0.813735,-1.608899 -0.376044,-3.777225 -1.428325,-5.216932 -1.080504,-1.478322 -2.797666,-2.690956 -4.571968,-2.905024 z"/>
      <path id="path68" style="opacity:0.762987;fill:#ffcc36;fill-opacity:1;fill-rule:evenodd;stroke-width:1.01949" d="m 30.18192,21.363407 a 3.2174341,3.3209938 0 0 1 -3.217434,3.320994 3.2174341,3.3209938 0 0 1 -3.217434,-3.320994 3.2174341,3.3209938 0 0 1 3.217434,-3.320994 3.2174341,3.3209938 0 0 1 3.217434,3.320994 z"/>
      <path id="path67" style="opacity:0.762987;fill:#ffcc36;fill-opacity:1;fill-rule:evenodd;stroke-width:1.01949" d="m 20.02067,30.235913 a 3.2174341,3.3209938 0 0 1 -3.217434,3.320994 3.2174341,3.3209938 0 0 1 -3.217434,-3.320994 3.2174341,3.3209938 0 0 1 3.217434,-3.320994 3.2174341,3.3209938 0 0 1 3.217434,3.320994 z"/>
      <path id="path51" style="display:inline;opacity:0.652597;fill:#ffcc36;fill-opacity:1;fill-rule:evenodd;stroke-width:1.01948" d="m 23.138795,15.687131 c -0.919526,0.105296 -1.699651,0.83521 -2.374983,1.492321 -0.493991,0.480664 -1.00517,1.045745 -1.162394,1.72981 -0.421546,1.834104 1.362448,4.536254 0.763242,5.601233 -1.205703,2.142916 -5.731395,1.913432 -6.809942,4.468489 -0.624604,1.479677 -0.198898,3.56503 0.838511,4.768482 1.124721,1.304739 3.170887,1.710584 4.844721,1.504923 1.271034,-0.15617 2.592255,-0.950341 3.321079,-2.002842 0.895718,-1.293514 0.408641,-3.598361 0.964713,-5.301442 0.376468,-1.153008 0.636808,-2.543798 1.58351,-3.260987 1.26378,-0.957397 3.719203,0.558947 4.634383,-0.759063 1.195483,-1.721692 0.322457,-4.667402 -1.001931,-6.283981 -1.276933,-1.558653 -3.643116,-2.181132 -5.600909,-1.956943 z"/>
      <path id="path69" style="display:inline;opacity:0.689935;fill:#da6c00;fill-opacity:1;fill-rule:evenodd;stroke-width:1.01948" d="m 21.262442,17.783998 c -0.722036,0.715659 -1.005011,1.98231 -0.748741,3.012054 0.332981,1.337988 0.656755,2.90782 0.06514,4.145515 -0.958159,2.004529 -4.485781,1.861088 -5.211624,3.968398 -0.534722,1.552435 -0.135695,3.873348 1.181897,4.791803 1.417649,0.988203 3.78152,0.427564 5.072002,-0.733715 2.032895,-1.829363 0.528212,-5.90155 2.243983,-8.05347 1.363031,-1.709513 5.217235,-0.850253 5.717384,-3.008761 0.477747,-2.061826 -1.699794,-4.380092 -3.603672,-5.143007 -1.498368,-0.600421 -3.554226,-0.130696 -4.716369,1.021183 z"/>
      <path id="path70" style="fill:#ff0000;fill-rule:evenodd" d="m 27.946016,21.37051 c -0.127738,1.207559 -1.839892,1.850677 -3.008551,1.872074 -1.448915,0.02653 -3.425361,-0.729856 -3.806371,-2.18303 -0.401809,-1.532498 0.821872,-3.880628 2.33539,-4.100593 2.037205,-0.296074 4.704336,2.286383 4.479532,4.411549 z"/>
      <path id="ellipse70" style="fill:#ff0000;fill-rule:evenodd" d="m 21.913258,30.11199 c 0.151978,1.645062 -2.039581,3.50659 -3.620277,3.264901 -1.331068,-0.20352 -3.016018,-2.468592 -2.157605,-3.545318 1.291122,-1.619483 4.953833,-4.39613 5.80301,-4.39613 0.849177,0 -0.180351,2.996367 -0.02513,4.676547 z"/>
    </g>
  </g>
</svg>
