<?xml version="1.0" encoding="UTF-8" standalone="no"?>
<!-- Created with Inkscape (http://www.inkscape.org/) -->
<svg xmlns="http://www.w3.org/2000/svg" xmlns:svg="http://www.w3.org/2000/svg" width="48" height="48" viewBox="0 0 48 48" version="1.1" id="svg1" xml:space="preserve"><defs id="defs1"><filter style="color-interpolation-filters:sRGB;" id="filter1" x="-0.74880251" y="-0.74280248" width="2.497605" height="2.485605"><feGaussianBlur stdDeviation="0.91 0.9" result="blur" id="feGaussianBlur1"/></filter><filter style="color-interpolation-filters:sRGB;" id="filter2" x="-0.56136328" y="-0.55519442" width="2.1227266" height="2.1103888"><feGaussianBlur stdDeviation="0.91 0.9" result="blur" id="feGaussianBlur2"/></filter></defs>
<!-- PUT FINAL THEME/STATE VERSIONS IN THESE LAYERS. NO GROUPED ELEMENTS. -->
<g id="LightThemeEnabledLayer" style="display:inline"><path style="display:inline;fill:#2e5ed5;fill-opacity:1;stroke:none;stroke-width:1;stroke-linecap:butt;stroke-linejoin:round;stroke-dasharray:none;stroke-dashoffset:0;stroke-opacity:1" d="M 3.8262783,34.260681 12.312461,19.991267 c 0,0 8.70054,-8.671456 15.763955,-8.076863 7.063416,0.594591 14.879496,13.596846 14.879496,13.596846 L 34.8921,44.450288 c 0,0 -7.392564,-6.405857 -12.55833,-8.498807 -5.165768,-2.092953 -18.5074917,-1.6908 -18.5074917,-1.6908 z" id="path11"/><path style="display:inline;fill:#12c13e;fill-opacity:0.874336;stroke:none;stroke-width:1;stroke-linecap:butt;stroke-linejoin:round;stroke-dasharray:none;stroke-dashoffset:0;stroke-opacity:1" d="M 3.9606063,25.842557 15.577488,13.981717 c 0,0 10.502758,-6.370685 17.225794,-4.1243199 6.723037,2.2463639 11.246355,16.7270179 11.246355,16.7270179 l -9.153509,18.326263 c 0,0 -8.826134,-9.799094 -13.351272,-13.053123 C 17.019717,28.603522 3.9606063,25.842557 3.9606063,25.842557 Z" id="path111"/><path style="display:inline;fill:#fdca1f;fill-opacity:0.867257;stroke:none;stroke-width:2;stroke-linecap:butt;stroke-linejoin:round;stroke-dasharray:none;stroke-dashoffset:0;stroke-opacity:1" d="m 5.2603375,20.374802 9.8314715,-8.811921 c 0,0 8.847531,-4.224554 14.721061,-2.4136511 5.873532,1.8109011 10.54891,12.9685491 10.54891,12.9685491 l -7.898734,13.212938 c 0,0 -7.849055,-7.573313 -11.837543,-10.113584 C 16.637008,22.676861 5.2603375,20.374802 5.2603375,20.374802 Z" id="path10"/><path style="display:inline;fill:#f48c00;fill-opacity:1;stroke:none;stroke-width:2;stroke-linecap:butt;stroke-linejoin:round;stroke-dasharray:none;stroke-dashoffset:0;stroke-opacity:1" d="M 9.1623533,15.531935 16.743399,7.8808996 c 0,0 6.759458,-3.7233444 11.168491,-2.2566653 4.409035,1.4666791 7.753811,10.9252227 7.753811,10.9252227 l -6.194773,11.380674 c 0,0 -5.804549,-6.357457 -8.776318,-8.471757 C 17.722837,17.344075 9.1623533,15.531935 9.1623533,15.531935 Z" id="path107"/><path style="display:inline;fill:#ff2c3d;fill-opacity:1;stroke:none;stroke-width:0.999996px;stroke-linecap:butt;stroke-linejoin:miter;stroke-opacity:1" d="m 21.341299,6.1601433 c 0,0 3.95689,-1.9173888 5.385477,-2.0398508 0.901359,-0.077266 2.528788,0.2471279 3.198398,0.8671613 1.274167,1.1798301 2.311143,4.9834918 2.311143,4.9834918 l -3.579023,7.0804264 c 0,0 -3.508756,-2.048991 -5.30952,-3.227673 -1.800764,-1.17868 -5.943843,-2.682949 -5.943843,-2.682949 z" id="path113"/></g>


<!-- TINKERLAYER FOR USE AS DESIGN SANDBOX. DELETE IN FINAL VERSION -->
</svg>
