<?xml version="1.0" encoding="UTF-8" standalone="no"?>
<!-- Created with Inkscape (http://www.inkscape.org/) -->
<svg xmlns="http://www.w3.org/2000/svg" xmlns:svg="http://www.w3.org/2000/svg" width="48" height="48" viewBox="0 0 48 48" version="1.1" id="svg1" xml:space="preserve">
  <defs id="defs1"/>
  <g id="DarkThemeEnabledLayer" style="display:inline;stroke:#e5e5f6;stroke-width:2.15279" transform="matrix(0.47403832,0,0,0.45517843,12.580129,12.004818)">
    <ellipse style="fill:#808080;fill-opacity:1;stroke:#e5e5f6;stroke-width:2.89447;stroke-linecap:round;stroke-linejoin:round;stroke-dasharray:none;stroke-opacity:1;paint-order:markers fill stroke" id="path4" cx="2.6927092" cy="24.809959" rx="3.792798" ry="3.7339125"/>
    <path id="path4-9" style="display:inline;fill:none;stroke:#e5e5f6;stroke-width:5.91458;stroke-linecap:round;stroke-linejoin:round;stroke-dasharray:none;paint-order:markers fill stroke" d="m 2.6926981,12.578449 c -9.2008211,0 -15.0962721,6.079716 -18.0032281,13.353794 2.906956,7.274082 8.802407,12.086066 18.0032281,12.086066 7.3606559,0 15.0962949,-4.811984 18.0032519,-12.086066 C 17.788993,18.658165 10.053354,12.578449 2.6926981,12.578449 Z"/>
    <path id="path3-7-1-7" style="display:inline;fill:none;stroke:#e5e5f6;stroke-width:5.7149;stroke-linecap:round;stroke-linejoin:round;stroke-dasharray:none;stroke-opacity:0.5;paint-order:markers fill stroke" d="m -17.507512,21.704332 c 3.282693,-8.546994 9.9401935,-14.2010559 20.3302588,-14.2010559 8.3120512,0 17.0475572,5.6540619 20.3302512,14.2010559"/>
    <rect style="fill:none;fill-opacity:1;stroke:#e5e5f6;stroke-width:4.54732;stroke-linecap:square;stroke-opacity:0.981869;paint-order:fill markers stroke" id="rect1" width="12.328953" height="13.028204" x="51.678677" y="-6.765317"/>
    <rect style="display:inline;fill:none;fill-opacity:1;stroke:#e5e5f6;stroke-width:4.60324;stroke-linecap:square;stroke-opacity:0.981869;paint-order:fill markers stroke" id="rect1-5" width="12.273033" height="12.972289" x="51.706638" y="19.625927"/>
    <rect style="display:inline;fill:none;fill-opacity:1;stroke:#e5e5f6;stroke-width:4.63451;stroke-linecap:square;stroke-opacity:0.981869;paint-order:fill markers stroke" id="rect1-7" width="12.241763" height="12.941015" x="51.722271" y="46.245483"/>
    <path style="fill:none;stroke:#e5e5f6;stroke-width:4.30559;stroke-linecap:butt;stroke-linejoin:miter;stroke-dasharray:none;stroke-opacity:1" d="M 49.664357,54.807085 H 38.92218 V -2.2575855 h 10.751223" id="path1"/>
    <path style="fill:none;stroke:#e5e5f6;stroke-width:4.30558;stroke-linecap:butt;stroke-linejoin:miter;stroke-dasharray:none;stroke-opacity:1" d="M 28.679452,24.199909 H 49.405018" id="path2"/>
  </g>
</svg>
