<?xml version="1.0" encoding="UTF-8" standalone="no"?>
<!-- Created with Inkscape (http://www.inkscape.org/) -->
<svg xmlns="http://www.w3.org/2000/svg" xmlns:svg="http://www.w3.org/2000/svg" width="48" height="48" viewBox="0 0 48 48" version="1.1" id="svg1" xml:space="preserve">
  <defs id="defs1"/>
  <g id="DarkThemeEnabledLayer" style="display:inline;stroke-width:2.15279" transform="matrix(0.47403832,0,0,0.45517843,12.580129,12.004818)">
    <ellipse style="fill:#e5e5f6;fill-opacity:0.967949;stroke:#e5e5f6;stroke-width:2.1528;stroke-linecap:round;stroke-linejoin:round;stroke-dasharray:none;stroke-opacity:1;paint-order:markers fill stroke" id="path4" cx="-0.66036111" cy="26.187946" rx="3.2172265" ry="3.3484094"/>
    <path id="path4-9" style="display:inline;fill:none;stroke:#e5e5f6;stroke-width:4.25055;stroke-linecap:round;stroke-linejoin:round;stroke-dasharray:none;paint-order:markers fill stroke" d="m -0.59171148,15.166311 c -7.54111152,0 -12.37310052,5.267984 -14.75567852,11.570867 2.382578,6.302886 7.214567,10.4724 14.75567852,10.4724 6.03288608,0 12.37311548,-4.169514 14.75569548,-10.4724 C 11.781404,20.434295 5.4411746,15.166311 -0.59171148,15.166311 Z"/>
    <rect style="fill:#e5e5f6;fill-opacity:0.5;stroke:none;stroke-width:2.1528;stroke-linejoin:round;stroke-dasharray:none;stroke-opacity:1;paint-order:markers fill stroke" id="rect1" width="3.1643012" height="52.726574" x="24.090607" y="-0.01058486"/>
    <path id="path3-7-1" style="display:inline;fill:none;stroke:#e5e5f6;stroke-width:4.25054;stroke-linecap:round;stroke-linejoin:round;stroke-dasharray:none;stroke-opacity:0.5;paint-order:markers fill stroke" d="m 35.424479,25.049697 c 2.382577,-6.30288 7.214594,-10.472401 14.755697,-10.472401 6.03288,0 12.373099,4.169521 14.755677,10.472401"/>
    <path id="path3-6" style="display:inline;fill:none;stroke:#e5e5f6;stroke-width:4.25054;stroke-linecap:round;stroke-linejoin:round;stroke-dasharray:none;paint-order:markers fill stroke" d="m 35.245363,26.682244 c 2.382577,6.30288 7.214594,10.472401 14.755697,10.472401 6.032879,0 12.373099,-4.169521 14.755676,-10.472401"/>
    <path id="path3-7-1-7" style="display:inline;fill:none;stroke:#e5e5f6;stroke-width:4.25053;stroke-linecap:round;stroke-linejoin:round;stroke-dasharray:none;stroke-opacity:0.5;paint-order:markers fill stroke" d="m -17.905405,23.95002 c 2.784532,-7.66457 8.431733,-12.734885 17.24506622,-12.734885 7.05066418,0 14.46052378,5.070315 17.24505678,12.734885"/>
    <path id="path3-7-1-7-6" style="display:inline;fill:none;stroke:#e5e5f6;stroke-width:4.25053;stroke-linecap:round;stroke-linejoin:round;stroke-dasharray:none;stroke-opacity:0.5;paint-order:markers fill stroke" d="m 32.755988,28.371023 c 2.784532,7.66457 8.431739,12.734885 17.245073,12.734885 7.050664,0 14.460517,-5.070315 17.24505,-12.734885"/>
  </g>
</svg>
