<?xml version="1.0" encoding="UTF-8" standalone="no"?>
<!-- Created with Inkscape (http://www.inkscape.org/) -->
<svg xmlns="http://www.w3.org/2000/svg" xmlns:svg="http://www.w3.org/2000/svg" width="48" height="48" viewBox="0 0 48 48" version="1.1" id="svg1" xml:space="preserve">
  <defs id="defs1"/>
  <g id="DarkThemeEnabledLayer" style="display:inline">
    <path id="path7-0" style="display:inline;fill:none;fill-opacity:1;stroke:#e5e5f6;stroke-width:2;stroke-linecap:round;stroke-linejoin:round;stroke-dasharray:none;paint-order:markers fill stroke" d="m 23.993659,43.05047 c -3.849218,-0.07594 -5.46332,-0.427021 -7.016172,-1.481107 l -0.09563,-7.276541 C 15.226466,33.031014 15.53279,33.458638 13.960483,32.095018 9.2125388,27.896719 7.6448955,18.840619 10.402824,12.584437 c 1.530761,-2.9667625 3.440728,-6.1176258 6.560763,-7.5171748 -6.46e-4,3.9807888 -9.2e-5,5.7129138 -2.76e-4,9.6942118 0.220115,4.004567 1.559335,5.651273 3.074866,6.08752 1.861866,0.174792 2.723593,0.10319 3.955482,0.11189 1.305636,0.06505 2.592391,0.0629 4.380511,-0.11189 1.242536,-0.540229 2.454751,-2.082953 2.674866,-6.08752 -1.85e-4,-3.981298 3.69e-4,-5.713423 -2.76e-4,-9.6942118 3.120034,1.3995488 5.202713,4.5504114 6.629492,7.5171748 2.757928,6.256182 1.396878,15.497431 -3.557658,19.510581 -1.196779,0.911729 -1.693609,1.323555 -3.090101,2.197804 l -0.13939,7.276541 c -1.323995,0.949481 -2.865139,1.300561 -6.897444,1.481107 z"/>
  </g>
</svg>
