<?xml version="1.0" encoding="UTF-8" standalone="no"?>
<!-- Created with Inkscape (http://www.inkscape.org/) -->
<svg xmlns="http://www.w3.org/2000/svg" xmlns:svg="http://www.w3.org/2000/svg" width="48" height="48" viewBox="0 0 48 48" version="1.1" id="svg1" xml:space="preserve">
  <defs id="defs1"/>
  <g id="LightThemeEnabledLayer" style="display:inline">
    <path style="fill:#ffdd79;fill-opacity:0.9;stroke:none;stroke-width:1;stroke-linecap:round;stroke-linejoin:round;stroke-dasharray:none;stroke-opacity:1" d="M 4.9621296,35.235978 V 14.611652 L 9.9962342,12.22302 27.989296,20.096493 27.961018,40.806914 23.006942,43.570436 4.9151703,35.1951" id="path84"/>
    <path style="fill:#aad4b4;fill-opacity:1;stroke:none;stroke-width:1;stroke-linecap:round;stroke-linejoin:round;stroke-dasharray:none;stroke-opacity:1" d="M 19,9 23,7 41.230164,14.593446 41,35 36.975042,37.012984 C 36.967042,37.056934 37,17 37,17" id="path85"/>
    <path style="display:none;fill:#ffdd79;fill-opacity:0.8;stroke:#000000;stroke-width:1px;stroke-linecap:butt;stroke-linejoin:miter;stroke-opacity:1" d="m 14.402148,10.822972 8.475218,-4.177028 18,7.645944 L 41,36 l -8,3.516596 -0.597852,-21.04768 -18,-7.645944" id="path79"/>
    <path style="display:none;fill:#abd3b5;fill-opacity:1;stroke:#000000;stroke-width:1px;stroke-linecap:butt;stroke-linejoin:miter;stroke-opacity:1" d="M 5,15 13.877366,10.645944 33,19 v 20 0.516596 L 23,43.8 5,35.8 V 15" id="path76"/>
    <path style="fill:none;stroke:#e5e5f6;stroke-width:2;stroke-linecap:round;stroke-linejoin:miter;stroke-dasharray:4, 4;stroke-dashoffset:0;stroke-opacity:1" d="M 33,19 V 38.5" id="path3"/>
    <path style="fill:none;stroke:#e5e5f6;stroke-width:2;stroke-linecap:round;stroke-linejoin:miter;stroke-dasharray:none;stroke-opacity:1" d="M 41,15 V 34.896026" id="path67"/>
    <path style="fill:none;stroke:#e5e5f6;stroke-width:2;stroke-linecap:round;stroke-linejoin:miter;stroke-dasharray:none;stroke-opacity:1" d="M 5,15 V 35.259575" id="path70"/>
    <path style="fill:none;stroke:#e5e5f6;stroke-width:0.999998px;stroke-linecap:round;stroke-linejoin:miter;stroke-opacity:1" d="M 4.8773661,14.545944 11.941159,11.347153" id="path71"/>
    <path style="fill:none;stroke:#e5e5f6;stroke-width:1px;stroke-linecap:round;stroke-linejoin:miter;stroke-opacity:1" d="m 22.877366,6.645944 18,7.645944" id="path72"/>
    <path style="fill:none;stroke:#e5e5f6;stroke-width:0.999998px;stroke-linecap:round;stroke-linejoin:miter;stroke-opacity:1" d="m 5,35.8 18,8" id="path73"/>
    <path style="fill:none;stroke:#e5e5f6;stroke-width:0.999998px;stroke-linecap:round;stroke-linejoin:miter;stroke-opacity:1" d="m 5,14.645944 18,8" id="path13"/>
    <path style="fill:none;stroke:#e5e5f6;stroke-width:1px;stroke-linecap:round;stroke-linejoin:miter;stroke-opacity:1" d="m 23,22.645944 7.580071,-3.188066" id="path62"/>
    <path style="fill:none;stroke:#e5e5f6;stroke-width:2;stroke-linecap:round;stroke-linejoin:miter;stroke-dasharray:none;stroke-opacity:1" d="M 23,23 V 43.354056" id="path68"/>
    <path style="fill:none;stroke:#e5e5f6;stroke-width:0.999998px;stroke-linecap:round;stroke-linejoin:miter;stroke-opacity:1" d="M 18.427487,8.8601067 22.931638,6.6512209" id="path88"/>
    <path style="fill:none;stroke:#e5e5f6;stroke-width:0.999998px;stroke-linecap:round;stroke-linejoin:miter;stroke-opacity:1" d="m 35.926028,17.318885 5.304136,-2.725439" id="path89"/>
    <path style="fill:none;stroke:#e5e5f6;stroke-width:1px;stroke-linecap:round;stroke-linejoin:miter;stroke-opacity:1" d="m 36.706466,37.43515 4.141238,-1.913268" id="path90"/>
    <path style="fill:none;stroke:#e5e5f6;stroke-width:1px;stroke-linecap:round;stroke-linejoin:miter;stroke-opacity:1" d="m 23,43.9 7.6,-3.8" id="path74"/>
    <path style="fill:none;stroke:#e5e5f6;stroke-width:2;stroke-linecap:round;stroke-linejoin:miter;stroke-dasharray:4, 4;stroke-dashoffset:0.8;stroke-opacity:1" d="m 14.862868,10.508095 17.293555,7.506924" id="path2"/>
  </g>
</svg>
