<?xml version="1.0" encoding="UTF-8" standalone="no"?>
<!-- Created with Inkscape (http://www.inkscape.org/) -->
<svg xmlns="http://www.w3.org/2000/svg" xmlns:svg="http://www.w3.org/2000/svg" width="48" height="48" viewBox="0 0 48 48" version="1.1" id="svg1" xml:space="preserve">
  <defs id="defs1"/>
  <g id="LightThemeEnabledLayer" style="display:inline">
    <path style="fill:none;stroke:#e5e5f6;stroke-width:2;stroke-linecap:round;stroke-linejoin:miter;stroke-dasharray:none;stroke-opacity:1" d="m 24,22 v 5.76" id="path1"/>
    <path style="fill:none;stroke:#e5e5f6;stroke-width:2;stroke-linecap:round;stroke-linejoin:miter;stroke-dasharray:none;stroke-opacity:1" d="M 39,29 H 9 v 6" id="path2"/>
    <path style="fill:none;stroke:#e5e5f6;stroke-width:2;stroke-linecap:round;stroke-linejoin:miter;stroke-dasharray:none;stroke-opacity:1" d="m 24,29 v 6" id="path3"/>
    <path style="fill:none;stroke:#e5e5f6;stroke-width:2;stroke-linecap:round;stroke-linejoin:miter;stroke-dasharray:none;stroke-opacity:1" d="m 39,29 v 5.520001" id="path4"/>
    <path id="path8" style="display:inline;fill:none;fill-rule:evenodd;stroke:#e5e5f6;stroke-width:2;stroke-linecap:round" d="m 42,38 a 3.0000005,2.9999997 0 0 1 -3,3 3.0000005,2.9999997 0 0 1 -3,-3 3.0000005,2.9999997 0 0 1 3,-3 3.0000005,2.9999997 0 0 1 3,3 z"/>
    <path id="path10" style="display:inline;fill:none;fill-rule:evenodd;stroke:#e5e5f6;stroke-width:2;stroke-linecap:round" d="m 27,38 a 3.0000005,2.9999997 0 0 1 -3,3 3.0000005,2.9999997 0 0 1 -3,-3 3.0000005,2.9999997 0 0 1 3,-3 3.0000005,2.9999997 0 0 1 3,3 z"/>
    <path id="path11" style="display:inline;fill:none;fill-rule:evenodd;stroke:#e5e5f6;stroke-width:2;stroke-linecap:round" d="m 12,38 a 3.0000005,2.9999997 0 0 1 -3,3 3.0000005,2.9999997 0 0 1 -3,-3 3.0000005,2.9999997 0 0 1 3,-3 3.0000005,2.9999997 0 0 1 3,3 z"/>
    <path id="path19" style="fill:none;fill-rule:evenodd;stroke:#e5e5f6;stroke-width:1.99999;stroke-linecap:round;stroke-opacity:0.97" d="M 21.419986,9.0297691 A 6.2631579,6.2631579 0 0 1 24,8.4736837 6.2631579,6.2631579 0 0 1 26.58042,9.0299525"/>
    <path id="path16" style="fill:none;fill-rule:evenodd;stroke:#e5e5f6;stroke-width:1.99999;stroke-linecap:round;stroke-opacity:0.97" d="m 30.087336,13.263244 a 6.2631579,6.2631579 0 0 1 0.175822,1.473598 v 0 A 6.2631579,6.2631579 0 0 1 24,21 6.2631579,6.2631579 0 0 1 17.736842,14.736842 6.2631579,6.2631579 0 0 1 17.912896,13.26229"/>
    <path id="path4-0" style="fill:none;fill-rule:evenodd;stroke:#e5e5f6;stroke-width:2;stroke-linecap:round" d="M 18.320049,12.082371 A 1.8421053,1.8421053 0 0 1 17,10.315789 1.8421053,1.8421053 0 0 1 18.842105,8.4736837 1.8421053,1.8421053 0 0 1 20.506243,9.5258526"/>
    <path id="path5-7" style="fill:none;fill-rule:evenodd;stroke:#e5e5f6;stroke-width:2;stroke-linecap:round" d="M 29.679951,12.082371 A 1.8421053,1.8421053 0 0 0 31,10.315789 1.8421053,1.8421053 0 0 0 29.157895,8.4736837 1.8421053,1.8421053 0 0 0 27.493758,9.5258526"/>
  </g>
</svg>
