<?xml version="1.0" encoding="UTF-8" standalone="no"?>
<!-- Created with Inkscape (http://www.inkscape.org/) -->
<svg xmlns="http://www.w3.org/2000/svg" xmlns:svg="http://www.w3.org/2000/svg" width="48" height="48" viewBox="0 0 48 48" version="1.1" id="svg1" xml:space="preserve">
  <defs id="defs1"/>
  <g id="LightThemeEnabledLayer" style="display:inline">
    <path id="path6" style="fill:none;fill-rule:evenodd;stroke:#000000;stroke-width:2" d="M 6.6923506,14.977761 A 20,20 0 0 1 24,5 20,20 0 0 1 41.31877,14.996991"/>
    <path style="fill:none;stroke:#000000;stroke-width:1px;stroke-linecap:butt;stroke-linejoin:miter;stroke-opacity:1" d="m 23.47492,5 v 6" id="path7"/>
    <path style="fill:none;stroke:#000000;stroke-width:1px;stroke-linecap:butt;stroke-linejoin:miter;stroke-opacity:1" d="M 17.015388,6.04067 18,11.95933" id="path9"/>
    <path style="fill:none;stroke:#000000;stroke-width:0.999998px;stroke-linecap:butt;stroke-linejoin:miter;stroke-opacity:1" d="m 11.132982,10 1.991141,4" id="path11"/>
    <path style="fill:none;stroke:#000000;stroke-width:1px;stroke-linecap:butt;stroke-linejoin:miter;stroke-opacity:1" d="m 30,6.04067 -0.984612,5.91866" id="path12"/>
    <path style="fill:none;stroke:#000000;stroke-width:0.999998px;stroke-linecap:butt;stroke-linejoin:miter;stroke-opacity:1" d="m 37.124123,10 -1.991141,4" id="path13"/>
    <path style="font-weight:600;font-size:21.3333px;line-height:1.25;font-family:'Lucida Grande';-inkscape-font-specification:'Lucida Grande Semi-Bold';fill-opacity:0.6" d="M 8.0000001,35.416641 V 19.999999 h 9.6979009 v 2.11458 h -6.489573 v 4.687493 h 5.333325 v 2.124996 h -5.333325 v 6.489573 z M 20.635397,38.49997 26.187472,19.999999 h 1.874997 L 22.510394,38.49997 Z M 35.70829,33.677061 c 0.826387,0 1.475692,-0.184028 1.947914,-0.552083 0.479165,-0.368055 0.718748,-0.868054 0.718748,-1.499997 0,-0.499999 -0.149305,-0.920138 -0.447916,-1.260415 -0.298611,-0.347222 -0.864582,-0.756944 -1.697914,-1.229165 l -1.031248,-0.572916 c -1.381942,-0.777776 -2.357635,-1.52083 -2.927079,-2.229163 -0.569443,-0.715277 -0.854165,-1.548609 -0.854165,-2.499996 0,-1.270831 0.465277,-2.291663 1.395831,-3.062495 0.937499,-0.770832 2.173608,-1.156248 3.708328,-1.156248 1.229165,0 2.614579,0.177083 4.156243,0.531249 v 2.468746 c -1.576386,-0.590277 -2.822912,-0.885415 -3.739577,-0.885415 -0.708333,0 -1.277776,0.159722 -1.708331,0.479166 -0.423611,0.312499 -0.635416,0.725693 -0.635416,1.239581 0,0.423611 0.149305,0.795138 0.447916,1.114582 0.298611,0.319444 0.86111,0.711804 1.687498,1.177081 l 1.104165,0.614583 c 1.486109,0.833332 2.510412,1.600692 3.072911,2.302079 0.562499,0.701388 0.843749,1.555553 0.843749,2.562496 0,1.430553 -0.531249,2.552079 -1.593747,3.364578 -1.062499,0.812499 -2.527774,1.218748 -4.395827,1.218748 -1.236109,0 -1.232637,-2.124996 -0.05208,-2.124996 z" id="text15" aria-label="F/S"/>
    <text xml:space="preserve" style="font-weight:600;font-size:21.3333px;line-height:1.25;font-family:'Lucida Grande';-inkscape-font-specification:'Lucida Grande Semi-Bold'" x="31.58993" y="41.805767" id="text16">
      <tspan id="tspan16" x="31.58993" y="41.805767"/>
    </text>
    <path style="display:inline;fill:none;stroke:#000000;stroke-width:2;stroke-linecap:butt;stroke-linejoin:miter;stroke-dasharray:none;stroke-opacity:1" d="M 6.0000004,6.0000004 42,42" id="path19"/>
    <path style="display:inline;fill:none;stroke:#ffffff;stroke-width:5.3;stroke-linecap:butt;stroke-linejoin:miter;stroke-dasharray:none;stroke-opacity:1" d="M 10.07218,4.9240086 44.148174,39.000002" id="path19-3"/>
  </g>
</svg>
