<?xml version="1.0" encoding="UTF-8" standalone="no"?>
<!-- Created with Inkscape (http://www.inkscape.org/) -->
<svg xmlns:inkscape="http://www.inkscape.org/namespaces/inkscape" xmlns:sodipodi="http://sodipodi.sourceforge.net/DTD/sodipodi-0.dtd" xmlns="http://www.w3.org/2000/svg" xmlns:svg="http://www.w3.org/2000/svg" width="48" height="48" viewBox="0 0 48 48" version="1.1" id="svg1" xml:space="preserve" sodipodi:docname="3DViewersViewFromSuperior.svg" inkscape:version="1.4 (e7c3feb1, 2024-10-09)">
  <sodipodi:namedview id="namedview1" pagecolor="#ffffff" bordercolor="#111111" borderopacity="1" inkscape:showpageshadow="0" inkscape:pageopacity="0" inkscape:pagecheckerboard="1" inkscape:deskcolor="#d1d1d1" showgrid="false" inkscape:zoom="1.9583333" inkscape:cx="23.744681" inkscape:cy="23.744681" inkscape:window-width="1200" inkscape:window-height="769" inkscape:window-x="0" inkscape:window-y="25" inkscape:window-maximized="0" inkscape:current-layer="layer6"/>
  <defs id="defs1"/>
  <g inkscape:groupmode="layer" id="layer6" inkscape:label="EnabledLayer" sodipodi:insensitive="true">
    <path style="font-weight:500;font-size:18.6667px;line-height:1.25;font-family:'Lucida Grande';-inkscape-font-specification:'Lucida Grande Medium';text-align:end;text-anchor:end" d="m 24.366539,21.999998 q -1.358075,0 -3.472663,-0.592449 v -1.895837 q 2.27865,1.057294 3.746101,1.057294 1.13021,0 1.813805,-0.592449 0.69271,-0.592449 0.69271,-1.558597 0,-0.79297 -0.45573,-1.34896 -0.446616,-0.555991 -1.658857,-1.239586 l -0.929689,-0.537761 q -1.72266,-0.984377 -2.433599,-1.850264 -0.701824,-0.875002 -0.701824,-2.032556 0,-1.5585965 1.130211,-2.5612024 1.13021,-1.0117206 2.880213,-1.0117206 1.558597,0 3.290371,0.5195322 v 1.7500028 q -2.132817,-0.8385428 -3.180996,-0.8385428 -0.993491,0 -1.640628,0.5286468 -0.647136,0.528647 -0.647136,1.330732 0,0.67448 0.473959,1.194012 0.473959,0.519532 1.731774,1.239586 l 0.966148,0.546876 q 1.750003,0.993491 2.442712,1.877607 0.69271,0.884116 0.69271,2.123702 0,1.759118 -1.303388,2.825526 -1.294273,1.066408 -3.436204,1.066408 z" id="text7" aria-label="S"/>
    <path style="fill:none;stroke:#000000;stroke-width:2;stroke-linecap:square;stroke-linejoin:miter;stroke-dasharray:none;stroke-opacity:0.5" d="M 25,32.403883 V 48" id="path2"/>
  </g>
</svg>
