<?xml version="1.0" encoding="UTF-8" standalone="no"?>
<!-- Created with Inkscape (http://www.inkscape.org/) -->
<svg xmlns="http://www.w3.org/2000/svg" xmlns:svg="http://www.w3.org/2000/svg" width="48" height="48" viewBox="0 0 48 48" version="1.1" id="svg1" xml:space="preserve">
  <defs id="defs1"/>
  <g id="DarkThemeEnabledLayer" style="display:inline">
    <path id="path9" style="display:inline;fill:none;stroke:#000000;stroke-width:2;stroke-linecap:round;stroke-dasharray:none;paint-order:fill markers stroke" d="m 32.000002,14.99374 c 4.974008,0 9.006238,4.03223 9.006238,9.006238 v 0 c 0,1.641168 -0.446426,3.217357 -1.252225,4.581223 -0.477438,0.808094 -1.081037,1.541651 -1.792689,2.17002"/>
    <path id="path3" style="display:inline;fill:none;stroke:#000000;stroke-width:1.98752;stroke-linecap:square;paint-order:fill markers stroke" d="M 14.000002,33.006236 A 9.006238,9.006238 0 0 1 4.9937639,23.999998 9.006238,9.006238 0 0 1 14.000002,14.99376"/>
    <path id="path5" style="display:inline;fill:none;stroke:#000000;stroke-width:2;stroke-linecap:butt;stroke-linejoin:miter;stroke-dasharray:none;stroke-opacity:1" d="m 14,23 6.000001,1e-6"/>
    <path style="display:inline;fill:#989898;stroke:#989898;stroke-width:2;stroke-linecap:butt;stroke-linejoin:miter;stroke-dasharray:none;stroke-opacity:1" d="M 14.014605,25 H 22" id="path4-3"/>
    <path style="display:inline;fill:none;stroke:#000000;stroke-width:2;stroke-linecap:round;stroke-linejoin:miter;stroke-dasharray:none;stroke-opacity:1" d="m 26.888966,15 h 5.449977" id="path4-7-9"/>
    <path style="display:inline;fill:none;stroke:#000000;stroke-width:2;stroke-linecap:round;stroke-linejoin:miter;stroke-dasharray:none;stroke-opacity:1" d="m 14.857143,33 h 4.285714" id="path4-7-0"/>
    <path style="display:inline;fill:none;stroke:#000000;stroke-width:2.00001;stroke-linecap:round;stroke-linejoin:miter;stroke-dasharray:none;stroke-opacity:1" d="m 26.888893,32.999999 h 6.111106" id="path4-7-9-1"/>
    <path style="fill:#000000;stroke:none;stroke-width:1px;stroke-linecap:butt;stroke-linejoin:miter;stroke-opacity:1" d="m 28.32806,22.00944 c 0,0 3.67194,-0.0095 3.67194,0.0089 V 24 l -1.709993,-0.0085 z" id="path6"/>
    <path style="display:inline;fill:#989898;fill-opacity:1;stroke:none;stroke-width:0.999997px;stroke-linecap:butt;stroke-linejoin:miter;stroke-opacity:1" d="m 30.290007,23.991495 c 0,0 1.709993,-0.0099 1.709993,0.0085 v 1.691455 c -0.565172,-0.575251 -1.137525,-1.135841 -1.709993,-1.699955 z" id="path6-8"/>
    <path style="fill:#989898;stroke:none;stroke-width:1px;stroke-linecap:butt;stroke-linejoin:miter;stroke-opacity:1" d="m 22,24 h 0.582031 l 2.003907,2 H 22 Z" id="path7"/>
    <path style="display:inline;fill:#000000;stroke:none;stroke-width:1px;stroke-linecap:butt;stroke-linejoin:miter;stroke-opacity:1" d="m 20,22.000001 h 0.582031 l 2.003907,2 H 20 Z" id="path7-2"/>
    <path style="display:inline;fill:none;stroke:#000000;stroke-width:2;stroke-linecap:butt;stroke-linejoin:miter;stroke-dasharray:none;stroke-opacity:1" d="M 6.0000004,6.0000004 42,42" id="path19"/>
  </g>
</svg>
