<?xml version="1.0" encoding="UTF-8" standalone="no"?>
<!-- Created with Inkscape (http://www.inkscape.org/) -->
<svg xmlns="http://www.w3.org/2000/svg" xmlns:svg="http://www.w3.org/2000/svg" width="48" height="48" viewBox="0 0 48 48" version="1.1" id="svg1" xml:space="preserve">
  <defs id="defs1"/>
  <g id="DarkThemeEnabledLayer" style="display:inline">
    <rect style="display:inline;fill:#d6d6ff;fill-opacity:0.8;stroke:#9899d5;stroke-width:1.99997;stroke-linecap:round;stroke-dasharray:none;stroke-dashoffset:2.2;stroke-opacity:1;paint-order:fill markers stroke" id="rect3-4-5-5" width="18" height="18" x="23" y="15"/>
    <rect style="display:inline;fill:#010101;fill-opacity:1;stroke-linecap:round;paint-order:fill markers stroke" id="rect5" width="2" height="2" x="-28" y="18" transform="scale(-1,1)"/>
    <rect style="display:inline;fill:#010101;fill-opacity:1;stroke-linecap:round;paint-order:fill markers stroke" id="rect6" width="2" height="2" x="-28" y="-30.011019" transform="scale(-1)"/>
    <rect style="display:inline;fill:#010101;fill-opacity:1;stroke-linecap:round;paint-order:fill markers stroke" id="rect7" width="2" height="2" x="36" y="18"/>
    <rect style="display:inline;fill:#010101;fill-opacity:1;stroke-linecap:round;paint-order:fill markers stroke" id="rect8" width="2" height="2" x="36.090248" y="-30.037327" transform="scale(1,-1)"/>
    <path style="display:inline;fill:none;stroke:#010101;stroke-width:2;stroke-linecap:square;stroke-linejoin:miter;stroke-dasharray:none;stroke-opacity:1" d="m 29,21 v 6.000001 h 6 l -10e-7,-6 L 29,21" id="path8"/>
    <rect style="display:inline;fill:#010101;fill-opacity:1;stroke-linecap:round;paint-order:fill markers stroke" id="rect1" width="2" height="2" x="-26" y="16" transform="scale(-1,1)"/>
    <rect style="display:inline;fill:#010101;fill-opacity:1;stroke-linecap:round;paint-order:fill markers stroke" id="rect2" width="2" height="2" x="38" y="-32" transform="scale(1,-1)"/>
    <rect style="display:inline;fill:#010101;fill-opacity:1;stroke-linecap:round;paint-order:fill markers stroke" id="rect3" width="2" height="2" x="38" y="16"/>
    <rect style="display:inline;fill:#010101;fill-opacity:1;stroke-linecap:round;paint-order:fill markers stroke" id="rect4" width="2" height="2" x="-25.995237" y="-32.011017" transform="scale(-1)"/>
    <path style="display:inline;fill:none;stroke:#000000;stroke-width:2;stroke-linecap:round;stroke-linejoin:miter;stroke-dasharray:none;stroke-opacity:1" d="m 15.736316,32.143632 -4.646974,-4.666718 -5.666719,5.646972 v 0" id="path2-5"/>
    <path id="path5" style="display:inline;fill:none;fill-rule:evenodd;stroke:#000000;stroke-width:2.00001;stroke-linecap:round" d="m 13.020898,16.662065 c 0.604228,-1.115953 1.287564,-1.702762 1.982862,-1.702762 2.213317,0 4.007564,5.820299 4.007564,13 v 0 c 0,7.179702 -1.794247,13 -4.007564,13 -2.078483,-10e-7 -3.812016,-5.154672 -3.992436,-11.871548"/>
    <path style="fill:none;stroke:#000000;stroke-width:1px;stroke-linecap:butt;stroke-linejoin:miter;stroke-opacity:1" d="M 22,24 H 4.4247586" id="path6"/>
    <path style="fill:none;stroke:#000000;stroke-width:0.999999px;stroke-linecap:butt;stroke-linejoin:miter;stroke-opacity:1" d="M 46.041188,24 H 42" id="path7"/>
  </g>
</svg>
