<?xml version="1.0" encoding="UTF-8" standalone="no"?>
<!-- Created with Inkscape (http://www.inkscape.org/) -->
<svg xmlns="http://www.w3.org/2000/svg" xmlns:svg="http://www.w3.org/2000/svg" width="48" height="48" viewBox="0 0 48 48" version="1.1" id="svg1" xml:space="preserve">
  <defs id="defs1"/>
  <g id="layer4">
    <g style="fill:#000000;stroke-width:0.927794" id="g1" transform="matrix(0.05412586,0,0,0.05365766,-1.9777569,49.755679)">
      <path d="M 785.85,-135.54 483.31,-438.08 347.85,-302.62 q 10.23,16.24 14.27,32.24 4.03,16 4.03,35 0,54.11 -36.76,90.9 -36.77,36.79 -90.85,36.79 -54.08,0 -90.92,-36.77 -36.85,-36.76 -36.85,-90.84 0,-54.08 36.79,-90.93 36.79,-36.85 90.9,-36.85 18.77,0 35.5,5 16.73,5 33.42,15 L 441.85,-478.31 306.15,-614 q -16.23,8.77 -32.57,12.92 -16.35,4.16 -35.12,4.16 -54.11,0 -90.9,-36.77 -36.79,-36.76 -36.79,-90.84 0,-54.09 36.76,-90.93 36.77,-36.85 90.85,-36.85 54.08,0 90.93,36.79 36.84,36.79 36.84,90.9 0,19 -3.65,35.62 -3.65,16.62 -13.19,31.62 l 500.15,500.15 v 21.69 z m -201.47,-399.92 -42.92,-42.92 244.39,-244.39 h 63.61 v 21.46 z m -345.92,-92.23 q 40,0 68.46,-28.46 28.46,-28.47 28.46,-68.47 0,-40 -28.46,-68.46 -28.46,-28.46 -68.46,-28.46 -40,0 -68.46,28.46 -28.46,28.46 -28.46,68.46 0,40 28.46,68.47 28.46,28.46 68.46,28.46 z m 246.08,149.15 q -0.77,0 -0.5,0.12 l 0.27,0.11 q 0,0.77 -0.27,0.5 -0.27,-0.27 0.5,-0.27 l 0.11,0.27 q 0.12,0.27 0.12,-0.5 l -0.12,-0.11 z m -246.08,340.08 q 40,0 68.46,-28.46 28.46,-28.46 28.46,-68.46 0,-40 -28.46,-68.47 -28.46,-28.46 -68.46,-28.46 -40,0 -68.46,28.46 -28.46,28.47 -28.46,68.47 0,40 28.46,68.46 28.46,28.46 68.46,28.46 z" id="path1" style="fill:#000000;stroke-width:0.927794"/>
    </g>
    <path style="fill:#abd4b5;fill-opacity:1;stroke:#56695b;stroke-width:1px;stroke-linecap:round;stroke-linejoin:round;stroke-opacity:1" d="M 32.046774,24.027881 41.5,33.500079 v -19.00015 z" id="path2"/>
  </g>
</svg>
