<?xml version="1.0" encoding="UTF-8" standalone="no"?>
<!-- Created with Inkscape (http://www.inkscape.org/) -->
<svg xmlns="http://www.w3.org/2000/svg" xmlns:svg="http://www.w3.org/2000/svg" width="48" height="48" viewBox="0 0 48 48" version="1.1" id="svg1" xml:space="preserve">
  <defs id="defs1"/>
  <g id="LightThemeEnabledLayer" style="display:inline">
    <path id="circle11" style="fill:#abd4b5;fill-opacity:1;fill-rule:evenodd;stroke:#738c79;stroke-width:2;stroke-dasharray:none;stroke-opacity:1" d="m 10.000001,17.999999 c 0.0096,3.773041 2.654198,7.026435 6.345703,7.806641 v 0 c 0.314145,0.04654 0.597413,0.141752 0.902342,0.23047 0.319724,0.09348 0.632367,0.211612 0.935547,0.34961 0.30334,0.138416 0.596405,0.298329 0.876953,0.478515 0.280214,0.180593 0.54717,0.380973 0.798828,0.59961 0.252161,0.217896 0.488438,0.453521 0.707031,0.705078 0.21804,0.252349 0.417769,0.519958 0.597656,0.800781 0.180188,0.280548 0.3401,0.573613 0.478516,0.876953 0.138663,0.303127 0.255497,0.615772 0.34961,0.935547 0.04183,0.143937 0.07836,0.291676 0.109374,0.441406 0.0019,0.0092 0.004,0.01813 0.0059,0.02734 0.0013,0.0059 0.0026,0.01172 0.0039,0.01758 0.03072,0.153242 0.05576,0.307438 0.07813,0.458985 v 0 c 0.802116,3.664005 4.059742,6.261198 7.81051,6.271484 4.418278,0 8,-3.581722 8,-8 -0.01023,-3.764321 -2.643394,-7.01227 -6.324219,-7.800781 v 0 c -0.305453,-0.04573 -0.601686,-0.123354 -0.898435,-0.208987 -0.319775,-0.09411 -0.63242,-0.210946 -0.935547,-0.349609 -0.303341,-0.138416 -0.596406,-0.298328 -0.876953,-0.478516 -0.280152,-0.179965 -0.547107,-0.379692 -0.798828,-0.597656 -0.25223,-0.218522 -0.48851,-0.456755 -0.707032,-0.708984 -0.217964,-0.251723 -0.41769,-0.518677 -0.597656,-0.798828 -0.180857,-0.28049 -0.341423,-0.573557 -0.480469,-0.876953 -0.137997,-0.30318 -0.254178,-0.615824 -0.347656,-0.935547 -0.09201,-0.314378 -0.165976,-0.642938 -0.238281,-0.953125 -0.09766,-0.291014 -1.874776,-6.275908 -7.794924,-6.291014 -4.418278,0 -8,3.581722 -8,8 z"/>
    <rect style="display:inline;fill:#28b84d;fill-opacity:1;fill-rule:evenodd;stroke:#010101;stroke-width:0.999999;stroke-dasharray:none;stroke-opacity:1" id="rect1" width="5.08463" height="5.08463" x="-20.542313" y="15.457686" rx="0.60000002" ry="0.60000002" transform="rotate(-90)"/>
    <rect style="display:inline;fill:#28b84d;fill-opacity:1;fill-rule:evenodd;stroke:#010101;stroke-width:0.999999;stroke-dasharray:none;stroke-opacity:1" id="rect2" width="5.0846295" height="5.0846295" x="-32.542316" y="27.457687" rx="0.59999996" ry="0.59999996" transform="rotate(-90)"/>
    <path id="path25" style="fill:none;fill-rule:evenodd;stroke:#000000;stroke-width:2;stroke-linecap:round;stroke-dasharray:8, 4;stroke-dashoffset:1.6;stroke-opacity:1" d="m 34.007079,17.632974 a 13,13 0 0 1 8.99292,12.367025 13,13 0 0 1 -13,13 13,13 0 0 1 -12.367025,-8.99292"/>
    <path id="path26" style="fill:none;fill-rule:evenodd;stroke:#000000;stroke-width:2;stroke-linecap:round;stroke-dasharray:8, 4;stroke-dashoffset:1.4;stroke-opacity:1" d="m 13.992921,30.367024 a 13,13 0 0 1 -8.99292,-12.367025 13,13 0 0 1 13,-13 13,13 0 0 1 12.367025,8.99292"/>
  </g>
</svg>
