<?xml version="1.0" encoding="UTF-8" standalone="no"?>
<!-- Created with Inkscape (http://www.inkscape.org/) -->
<svg xmlns="http://www.w3.org/2000/svg" xmlns:svg="http://www.w3.org/2000/svg" width="48" height="48" viewBox="0 0 48 48" version="1.1" id="svg1" xml:space="preserve">
  <defs id="defs1"/>
  <g id="DarkThemeEnabledLayer" style="display:inline">
    <path id="path7" style="display:inline;fill:none;stroke:#000000;stroke-width:2;stroke-linecap:round;stroke-linejoin:miter;stroke-dasharray:none;stroke-opacity:1" d="m 37.874554,19.17141 5.832931,4.939123 -5.832804,5.164282"/>
    <path style="display:inline;fill:#abd4b5;fill-opacity:1;stroke:#738c79;stroke-width:1.50934;stroke-linecap:butt;stroke-linejoin:round;stroke-dasharray:none;stroke-opacity:1" d="M 4.8656345,37.131663 H 16.738206 v 0 V 24.0118 H 4.8656345 Z" id="path3-9-1-8-2-5"/>
    <path style="display:inline;fill:#ffdd79;fill-opacity:1;stroke:#d1a718;stroke-width:1.51094;stroke-linecap:butt;stroke-linejoin:round;stroke-dasharray:none;stroke-opacity:1" d="M 4.7573876,24.008133 H 17.458765 v 0 V 10.86573 H 4.7573876 Z" id="path3-9-1-8-95"/>
    <path style="display:inline;fill:#ffe7ac;fill-opacity:1;stroke:#d1a718;stroke-width:1.5;stroke-linecap:round;stroke-linejoin:round;stroke-dasharray:none;stroke-opacity:1" d="M 29.137636,10.853503 25.021215,24.01402 h 9.236187 L 29.137636,10.853503" id="path3-2-2-52"/>
    <g id="g2" transform="matrix(0,-0.76063199,0.74715779,0,1.3410423,42.263176)" style="display:inline;fill:#abd4b5;fill-opacity:1;stroke:#56695b;stroke-width:1.3265;stroke-opacity:1">
      <path style="fill:#abd4b5;fill-opacity:1;stroke:#738c79;stroke-width:1.98975;stroke-linecap:butt;stroke-linejoin:round;stroke-dasharray:none;stroke-opacity:1" d="m 6.7353789,21.269259 -0.00125,15.7792 17.2437801,-5.354789 z" id="path1-5"/>
      <path style="fill:#abd4b5;fill-opacity:1;stroke:#738c79;stroke-width:1.98975;stroke-linecap:butt;stroke-linejoin:round;stroke-dasharray:none;stroke-opacity:1" d="m 23.978005,31.693672 0.022,-10.937728 -17.2334777,-0.019 17.2113657,10.956728" id="path2-2"/>
    </g>
    <g id="g4" transform="matrix(0,0.76767298,0.75475795,0,1.0578183,5.6067492)" style="display:inline;fill:#ffdd79;fill-opacity:1;stroke:#d1a718;stroke-width:1.31373;stroke-opacity:1">
      <path style="display:inline;fill:#ffe7ac;fill-opacity:1;stroke:#d1a718;stroke-width:1.97061;stroke-linecap:butt;stroke-linejoin:round;stroke-dasharray:none;stroke-opacity:1" d="m 6.8427811,20.755944 -0.00816,16.348678 17.1432799,-5.4025 z" id="path3-4"/>
      <path style="display:inline;fill:#ffdd79;fill-opacity:1;stroke:#bc9614;stroke-width:1.97061;stroke-linecap:butt;stroke-linejoin:round;stroke-dasharray:none;stroke-opacity:1" d="M 23.978012,31.70212 23.956084,20.755944 H 6.8427811 L 23.978012,31.70212" id="path4-8"/>
    </g>
    <path style="display:inline;fill:#abd4b5;fill-opacity:0.8;stroke:#738c79;stroke-width:1.5;stroke-linecap:round;stroke-linejoin:round;stroke-dasharray:none;stroke-opacity:0.990099" d="m 29.020811,37.140986 -3.999596,-13.127052 9.310996,8.6e-5 -5.311401,13.126966" id="path3-5-5"/>
    <path style="display:inline;fill:#feffff;fill-opacity:0.419802;stroke:none;stroke-width:1px;stroke-linecap:butt;stroke-linejoin:miter;stroke-opacity:1" d="m 18.332283,12.000562 6.901732,11.073096 7.622136,-0.01771 -4.431062,-11.090269 z" id="path6-3"/>
    <path style="display:inline;fill:#abd4b5;fill-opacity:0.605941;stroke:none;stroke-width:1px;stroke-linecap:butt;stroke-linejoin:miter;stroke-opacity:1" d="m 18.809234,35.987509 6.657143,-11.264459 7.393347,0.03763 -4.440582,11.244759 z" id="path7-2"/>
    <path style="display:inline;fill:#738c79;fill-opacity:0.4;stroke:none;stroke-width:1px;stroke-linecap:butt;stroke-linejoin:miter;stroke-opacity:1" d="m 18.753321,36.022111 6.697486,-11.278877 7.427719,-0.0034 -4.468428,11.269058 z" id="path8-9"/>
    <path id="path2" style="display:inline;fill:none;fill-opacity:0.8;stroke:#14cc42;stroke-width:2.00001;stroke-linecap:round;stroke-linejoin:round;stroke-opacity:1;paint-order:fill markers stroke" d="M 5.0018259,24.7001 V 37.009377 H 29.090635 L 33.966105,24.7"/>
    <path id="path3" style="display:inline;fill:none;fill-opacity:0.8;stroke:#d1a718;stroke-width:2.00001;stroke-linecap:round;stroke-linejoin:round;stroke-opacity:1;paint-order:fill markers stroke" d="M 5.0038923,23.263643 V 10.954366 H 29.092701 l 4.87547,12.309377"/>
    <path style="fill:none;stroke:#d1a718;stroke-width:1.7;stroke-linecap:round;stroke-linejoin:miter;stroke-dasharray:none;stroke-opacity:1" d="m 4.9419754,23.819709 c 9.7918646,0.13469 19.5837286,0.09561 29.3755936,0.09209" id="path4"/>
  </g>
</svg>
