<?xml version="1.0" encoding="UTF-8" standalone="no"?>
<!-- Created with Inkscape (http://www.inkscape.org/) -->
<svg xmlns="http://www.w3.org/2000/svg" xmlns:svg="http://www.w3.org/2000/svg" width="48" height="48" viewBox="0 0 48 48" version="1.1" id="svg1" xml:space="preserve">
  <defs id="defs1"/>
  <g id="LightThemeEnabledLayer" style="display:inline">
    <path d="m 16.440703,38.86925 -1.1,1.1 -14,-14 14,-14 1.1,1.1 c -4.341499,4.233884 -8.633238,8.63574 -12.9,12.83075 4.218461,4.3 8.589999,8.672885 12.9,12.96925 z" id="path1" style="fill:#000000;fill-opacity:1;stroke-width:0;stroke-dasharray:none"/>
    <path id="path2" style="fill:none;stroke:#000000;stroke-width:2;stroke-linecap:butt;stroke-linejoin:miter;stroke-dasharray:none;stroke-opacity:1" d="M 41.875426,3.0704841 36.558101,3.1023129 36.275328,8 c -2.090936,0.720865 -4.006857,1.841904 -5.65415,3.259167 l -4.729553,-2.2487495 -5.147151,9.0368605 4.388383,2.881268 c -0.221755,1.069042 -0.322361,2.137718 -0.322361,3.208752 0,1.071035 0.100598,2.13971 0.322361,3.208754 l -4.388383,2.881268 5.147151,9.036859 4.729553,-2.24875 c 1.647293,1.417264 3.563214,2.538303 5.65415,3.259167 l 0.282773,4.997687 5.321226,0.03185"/>
    <path id="path3" style="display:inline;fill:#7396df;fill-opacity:1;stroke:#010101;stroke-width:1.5;stroke-linecap:round;stroke-dasharray:none;stroke-opacity:1;paint-order:fill markers stroke" d="m 41.875793,14.750001 h -3.029492 v 6.184616 l 3.029492,1e-6"/>
    <path id="rect1-4-1" style="display:inline;fill:#e5e5e5;fill-opacity:1;stroke:#010101;stroke-width:1.5;stroke-linecap:round;stroke-dasharray:none;stroke-opacity:1;paint-order:fill markers stroke" d="m 38.91084,14.750001 h -6.100003 v 6.184616 h 6.100003 z"/>
    <path id="path4" style="display:inline;fill:#feffff;fill-opacity:1;stroke:#010101;stroke-width:1.5;stroke-linecap:round;stroke-dasharray:none;stroke-opacity:1;paint-order:fill markers stroke" d="m 41.875295,20.934623 h -3.038286 v 6.184617 l 3.038286,-1e-6"/>
    <path id="rect1-4-1-5" style="display:inline;fill:#b2b2b2;fill-opacity:1;stroke:#010101;stroke-width:1.5;stroke-linecap:round;stroke-dasharray:none;stroke-opacity:1;paint-order:fill markers stroke" d="m 38.901548,20.934623 h -6.100003 v 6.184617 h 6.100003 z"/>
    <path id="path5" style="display:inline;fill:#808080;fill-opacity:1;stroke:#010101;stroke-width:1.5;stroke-linecap:round;stroke-dasharray:none;stroke-opacity:1;paint-order:fill markers stroke" d="m 41.884625,27.065384 -3.054885,10e-7 v 6.184617 h 3.054884"/>
    <path id="rect1-4-1-3" style="display:inline;fill:#a4c5ac;fill-opacity:1;stroke:#010101;stroke-width:1.5;stroke-linecap:round;stroke-dasharray:none;stroke-opacity:1;paint-order:fill markers stroke" d="m 38.894279,27.065385 h -6.100003 v 6.184617 h 6.100003 z"/>
  </g>
</svg>
