<?xml version="1.0" encoding="UTF-8" standalone="no"?>
<!-- Created with Inkscape (http://www.inkscape.org/) -->
<svg xmlns="http://www.w3.org/2000/svg" xmlns:svg="http://www.w3.org/2000/svg" width="48" height="48" viewBox="0 0 48 48" version="1.1" id="svg1" xml:space="preserve">
  <defs id="defs1"/>
  <g id="layer1">
    <path id="path1" style="fill:none;stroke:#000000;stroke-width:2;stroke-linecap:round;stroke-linejoin:miter;stroke-dasharray:none;stroke-opacity:1" d="m 24,15 c 1.157243,-0.09998 3.206342,-0.07756 4.179013,-0.01668 2.384767,0.14926 6.020732,1.164532 7.820987,2.425059 1.800255,1.260527 2.421821,2.148986 3,3.59162 0.578179,1.442634 1,4 1,5 0,1 -0.338009,3 -1,3 H 5 c -0.5079652,0 -0.2439787,-1.462679 0,-1.999999 0.2439787,-0.53732 1,-1.456624 1,-1.456624 0,0 4.333314,-4.838434 8,-7.543376"/>
    <path id="path2" style="fill:none;fill-rule:evenodd;stroke:#000000;stroke-width:2;stroke-linecap:round" d="M 14,17.327238 C 18.191968,10.747767 22,13 22,13 c 0,0 -1,3 -2,4 l -1,1"/>
    <path style="fill:none;stroke:#000000;stroke-width:2;stroke-linecap:round;stroke-linejoin:miter;stroke-dasharray:none;stroke-opacity:1" d="m 40,27 c 0,0 1.757901,-0.357167 2.517127,0 1.174578,0.552565 2.543884,1.703374 2.482873,3 -0.06647,1.412651 -1.585786,3 -3,3 -4,0 -12.875,0 -12.875,0 H 16" id="path6"/>
  </g>
</svg>
