<?xml version="1.0" encoding="UTF-8" standalone="no"?>
<!-- Created with Inkscape (http://www.inkscape.org/) -->
<svg xmlns="http://www.w3.org/2000/svg" xmlns:svg="http://www.w3.org/2000/svg" width="48" height="48" viewBox="0 0 48 48" version="1.1" id="svg1" xml:space="preserve">
  <defs id="defs1"/>
  <g id="DarkThemeEnabledLayer" style="display:inline">
    <path style="display:inline;fill:none;stroke:#000000;stroke-width:2.00267;stroke-linecap:butt;stroke-linejoin:miter;stroke-dasharray:none;stroke-opacity:1" d="M 25.001335,33.974006 V 23.947635" id="path15-5-5-4-2-5-4"/>
    <path style="display:inline;fill:none;stroke:#000000;stroke-width:1.99999;stroke-linecap:butt;stroke-linejoin:miter;stroke-dasharray:none;stroke-opacity:1" d="m 12.984982,29.999341 10e-6,-6.051704" id="path15-5-5-4-2-5-2-1"/>
    <path style="display:inline;fill:none;stroke:#000000;stroke-width:1.99999;stroke-linecap:butt;stroke-linejoin:miter;stroke-dasharray:none;stroke-opacity:0.7" d="m 19.051183,28 10e-6,-4.052363" id="path15-5-5-4-2-5-2-1-0"/>
    <path style="display:inline;fill:none;stroke:#000000;stroke-width:2.00458;stroke-linecap:butt;stroke-linejoin:miter;stroke-dasharray:none;stroke-opacity:0.7" d="m 31.036849,28 10e-6,-4.066488" id="path15-5-5-4-2-5-2-1-5"/>
    <path style="display:inline;fill:none;stroke:#000000;stroke-width:2.00898;stroke-linecap:butt;stroke-linejoin:miter;stroke-dasharray:none;stroke-opacity:1" d="m 36.974401,30.000774 1e-5,-6.05498" id="path15-5-5-4-2-5-2-1-7"/>
    <path style="display:inline;fill:none;stroke:#000000;stroke-width:1.99999;stroke-linecap:butt;stroke-linejoin:miter;stroke-dasharray:none;stroke-opacity:0.7" d="m 7.006979,33.975271 1.01e-5,-12.0011" id="path15-5-5-4-2-5-2-1-8"/>
    <path style="display:inline;fill:none;stroke:#000000;stroke-width:2;stroke-linecap:butt;stroke-linejoin:miter;stroke-dasharray:none;stroke-opacity:0.7" d="M 43,33.97507 V 22" id="path15-5-5-4-2-5-2-1-6"/>
    <path style="fill:none;stroke:#000000;stroke-width:1.94657;stroke-linecap:butt;stroke-linejoin:miter;stroke-dasharray:none;stroke-opacity:1" d="M 6.006984,22.973285 42,22.973286" id="path17"/>
    <path style="display:inline;fill:none;stroke:#000000;stroke-width:2.00009;stroke-linecap:butt;stroke-linejoin:miter;stroke-dasharray:none;stroke-opacity:0.5" d="m 6.001335,34.975115 38,10e-7" id="path17-2"/>
    <path style="font-size:13.3333px;line-height:1.25;font-family:'Arial Unicode MS';-inkscape-font-specification:'Arial Unicode MS';fill:#000000;stroke:none;stroke-width:0.999997" d="M 23.592863,19.971498 H 22.443937 V 15.60953 q 0,-0.481769 -0.06382,-0.82031 -0.06381,-0.345051 -0.331911,-0.605467 -0.261699,-0.266927 -0.823397,-0.266927 -0.67659,0 -1.168077,0.48177 -0.491483,0.48177 -0.491483,1.562496 v 4.010406 h -1.148926 v -4.492176 q 0,-0.898435 -0.312765,-1.230465 -0.306379,-0.332031 -0.87446,-0.332031 -0.74042,0 -1.219139,0.520832 -0.472335,0.520832 -0.472335,1.94661 v 3.58723 H 14.38869 v -6.907534 h 1.034032 v 0.963539 h 0.02553 q 0.689357,-1.119789 2.023387,-1.119789 0.746803,0 1.225524,0.305989 0.485099,0.299478 0.702122,0.904946 0.753183,-1.210935 2.087215,-1.210935 1.053182,0 1.576582,0.579426 0.529783,0.579425 0.529783,1.738277 z" id="path1" aria-label="m"/>
    <path style="font-size:13.3333px;line-height:1.25;font-family:'Arial Unicode MS';-inkscape-font-specification:'Arial Unicode MS';fill:#000000;stroke:none;stroke-width:0.999997" d="M 35.592863,19.971498 H 34.443937 V 15.60953 q 0,-0.481769 -0.06382,-0.82031 -0.06381,-0.345051 -0.331911,-0.605467 -0.261699,-0.266927 -0.823397,-0.266927 -0.67659,0 -1.168077,0.48177 -0.491483,0.48177 -0.491483,1.562496 v 4.010406 h -1.148926 v -4.492176 q 0,-0.898435 -0.312765,-1.230465 -0.306379,-0.332031 -0.87446,-0.332031 -0.74042,0 -1.219139,0.520832 -0.472335,0.520832 -0.472335,1.94661 v 3.58723 H 26.38869 v -6.907534 h 1.034032 v 0.963539 h 0.02553 q 0.689357,-1.119789 2.023387,-1.119789 0.746803,0 1.225524,0.305989 0.485099,0.299478 0.702122,0.904946 0.753183,-1.210935 2.087215,-1.210935 1.053182,0 1.576582,0.579426 0.529783,0.579425 0.529783,1.738277 z" id="path2" aria-label="m"/>
  </g>
</svg>
