<?xml version="1.0" encoding="UTF-8" standalone="no"?>
<!-- Created with Inkscape (http://www.inkscape.org/) -->
<svg xmlns="http://www.w3.org/2000/svg" xmlns:svg="http://www.w3.org/2000/svg" width="48" height="48" viewBox="0 0 48 48" version="1.1" id="svg1" xml:space="preserve">
  <defs id="defs1"/>
  <g id="DarkThemeEnabledLayer" style="display:inline">
    <path style="display:inline;fill:none;stroke:#000000;stroke-width:2;stroke-linecap:butt;stroke-linejoin:miter;stroke-dasharray:none;stroke-opacity:0.5" d="M 33,16.145334 V 16.430824 9 H 8.9999996 V 33 L 16.5,33.000005 V 33 33" id="path2"/>
    <path style="display:inline;fill:none;stroke:#000000;stroke-width:2;stroke-linecap:butt;stroke-linejoin:miter;stroke-dasharray:none;stroke-opacity:0.3" d="M 20.999999,9.9999997 V 16.042679 16.02999" id="path4"/>
    <path style="display:inline;fill:none;stroke:#000000;stroke-width:2;stroke-linecap:butt;stroke-linejoin:miter;stroke-dasharray:none;stroke-opacity:0.3" d="M 9.9653785,20.989991 H 16.083563" id="path7"/>
    <path style="display:inline;fill:#abd4b5;fill-opacity:1;stroke:#738c79;stroke-width:1;stroke-linecap:butt;stroke-linejoin:miter;stroke-dasharray:none;stroke-opacity:1" d="m 16.839038,41.147805 h 10.711129 v 0 -12.140281 H 16.839038 Z" id="path3-9-1-8-2-5-7"/>
    <path style="display:inline;fill:#abd4b5;fill-opacity:1;stroke:#738c79;stroke-width:1;stroke-linecap:butt;stroke-linejoin:miter;stroke-dasharray:none;stroke-opacity:1" d="m 16.838343,28.953818 h 10.712518 v 0 V 16.79268 H 16.838343 Z" id="path3-9-1-8-95-3"/>
    <path style="display:inline;fill:#abd4b5;fill-opacity:1;stroke:#738c79;stroke-width:1;stroke-linecap:round;stroke-linejoin:round;stroke-dasharray:none;stroke-opacity:1" d="M 38.472548,41.156432 34.890487,29.0095 l 8.338981,7.8e-5 -4.756921,12.146854" id="path3-5-5-7"/>
    <path style="display:inline;fill:#abd4b5;fill-opacity:1;stroke:#738c79;stroke-width:1;stroke-linecap:round;stroke-linejoin:round;stroke-dasharray:none;stroke-opacity:1" d="m 38.577178,16.83168 -3.68669,12.177898 h 8.27198 L 38.577178,16.83168" id="path3-2-2-52-9"/>
    <path style="display:inline;fill:#abd4b5;fill-opacity:0.8;stroke:#738c79;stroke-width:1;stroke-linecap:butt;stroke-linejoin:round;stroke-dasharray:none;stroke-opacity:1" d="m 27.914902,41.155549 10.558789,8.8e-4 -3.583204,-12.136864 z" id="path1"/>
    <path style="fill:#abd4b5;fill-opacity:1;stroke:#738c79;stroke-width:1;stroke-linecap:butt;stroke-linejoin:round;stroke-dasharray:none;stroke-opacity:1" d="m 34.884826,28.969398 -7.333965,-0.01558 V 16.797294 l 7.333965,12.172104" id="path4-3"/>
    <path style="fill:#abd4b5;fill-opacity:1;stroke:#738c79;stroke-width:1;stroke-linecap:butt;stroke-linejoin:round;stroke-dasharray:none;stroke-opacity:1" d="m 27.556522,16.828469 10.953655,-0.0058 -3.619688,12.192742 z" id="path3-2"/>
    <path style="display:inline;fill:#abd4b5;fill-opacity:1;stroke:#738c79;stroke-width:1;stroke-linecap:butt;stroke-linejoin:round;stroke-dasharray:none;stroke-opacity:1" d="m 34.890489,29.019498 -7.319076,-0.01548 -0.01271,12.129613 7.33179,-12.11405" id="path2-0"/>
    <path id="rect1" style="display:inline;fill:none;fill-opacity:0.8;stroke:#000000;stroke-width:2.00001;stroke-linecap:round;stroke-opacity:1;paint-order:fill markers stroke" d="M 17.000005,40.999778 V 17.000005 h 21.574073 l 4.65539,12.015481 -4.58839,11.984292 z"/>
    <path style="display:inline;fill:#abd4b5;fill-opacity:0.6826;stroke:none;stroke-width:0.636389px;stroke-linecap:butt;stroke-linejoin:miter;stroke-opacity:1" d="m 29.168809,39.982266 6.043387,-10.507354 6.763025,0.01612 -4.022703,10.511703 z" id="path5"/>
    <path style="display:inline;fill:#feffff;fill-opacity:0.35;stroke:none;stroke-width:0.678058px;stroke-linecap:butt;stroke-linejoin:miter;stroke-opacity:1" d="m 28.858485,18.033526 6.330147,10.535727 6.741994,-0.03503 -4.047779,-10.547925 z" id="path9"/>
    <path style="display:inline;fill:#56695b;fill-opacity:0.4;stroke:none;stroke-width:0.636389px;stroke-linecap:butt;stroke-linejoin:miter;stroke-opacity:1" d="m 29.16315,39.988655 6.043387,-10.507354 6.763025,0.01612 -4.022703,10.511703 z" id="path10"/>
  </g>
</svg>
