<?xml version="1.0" encoding="UTF-8" standalone="no"?>
<!-- Created with Inkscape (http://www.inkscape.org/) -->
<svg xmlns="http://www.w3.org/2000/svg" xmlns:svg="http://www.w3.org/2000/svg" width="48" height="48" viewBox="0 0 48 48" version="1.1" id="svg1" xml:space="preserve">
  <defs id="defs1"/>
  <g id="LightThemeEnabledLayer" style="display:inline">
    <path id="path71" style="fill:none;stroke:#000000;stroke-width:2;stroke-linecap:butt;stroke-linejoin:miter;stroke-dasharray:none;stroke-opacity:1" d="m 7.274235,23.999998 c 0,-0.99292 0.086466,-1.983957 0.2784402,-2.970291 L 2.8441263,17.681314 v 0 L 8.0991601,8.7067208 13.036094,11.216742 c 1.702364,-1.5285452 3.266594,-2.7224476 5.432341,-3.4182594 l 0.467581,-4.8957355 10.402185,0.062266 0.282773,4.8976871 c 2.090938,0.7208657 4.006855,1.8419026 5.65415,3.2591668 l 4.729553,-2.2487493 5.147151,9.0368603 -4.388383,2.881268 c 0.221755,1.069043 0.322361,2.137717 0.322361,3.208752 0,1.071036 -0.100598,2.139709 -0.322361,3.208754 l 4.388383,2.881268 -5.147151,9.036859 -4.729553,-2.24875 c -1.647295,1.417265 -3.563212,2.538302 -5.65415,3.259167 l -0.282773,4.997687 -10.402185,0.06227 -0.467581,-4.995734 c -2.165747,-0.695812 -3.729977,-1.889714 -5.432341,-3.41826 L 8.0991603,39.293276 2.8441265,30.318683 v 0 L 7.5526748,26.970289 C 7.3606989,25.983956 7.274235,24.992918 7.274235,23.999998 Z"/>
    <path id="rect1" style="fill:#e5e5e5;fill-opacity:1;stroke:#010101;stroke-width:1.5;stroke-linecap:round;stroke-dasharray:none;stroke-opacity:1;paint-order:fill markers stroke" d="m 14.75,14.750001 h 6.19986 v 6.184615 H 14.75 Z"/>
    <path id="rect1-4" style="display:inline;fill:#7396df;fill-opacity:1;stroke:#010101;stroke-width:1.5;stroke-linecap:round;stroke-dasharray:none;stroke-opacity:1;paint-order:fill markers stroke" d="m 20.89904,14.750001 h 6.199861 v 6.184615 H 20.89904 Z"/>
    <path id="rect1-4-1" style="display:inline;fill:#e5e5e5;fill-opacity:1;stroke:#010101;stroke-width:1.5;stroke-linecap:round;stroke-dasharray:none;stroke-opacity:1;paint-order:fill markers stroke" d="m 27.033305,14.750001 h 6.199861 v 6.184615 h -6.199861 z"/>
    <path id="rect1-0" style="fill:#b2b2b2;fill-opacity:1;stroke:#010101;stroke-width:1.5;stroke-linecap:round;stroke-dasharray:none;stroke-opacity:1;paint-order:fill markers stroke" d="m 14.759443,20.934622 h 6.199861 v 6.184616 h -6.199861 z"/>
    <path id="rect1-4-4" style="display:inline;fill:#feffff;fill-opacity:1;stroke:#010101;stroke-width:1.5;stroke-linecap:round;stroke-dasharray:none;stroke-opacity:1;paint-order:fill markers stroke" d="m 20.908484,20.934622 h 6.199861 v 6.184616 h -6.199861 z"/>
    <path id="rect1-4-1-5" style="display:inline;fill:#b2b2b2;fill-opacity:1;stroke:#010101;stroke-width:1.5;stroke-linecap:round;stroke-dasharray:none;stroke-opacity:1;paint-order:fill markers stroke" d="m 27.042749,20.934622 h 6.199861 v 6.184616 h -6.199861 z"/>
    <path id="rect1-6" style="fill:#a4c5ac;fill-opacity:1;stroke:#010101;stroke-width:1.5;stroke-linecap:round;stroke-dasharray:none;stroke-opacity:1;paint-order:fill markers stroke" d="m 14.766831,27.065384 h 6.199861 V 33.25 h -6.199861 z"/>
    <path id="rect1-4-0" style="display:inline;fill:#808080;fill-opacity:1;stroke:#010101;stroke-width:1.5;stroke-linecap:round;stroke-dasharray:none;stroke-opacity:1;paint-order:fill markers stroke" d="m 20.915872,27.065384 h 6.199861 V 33.25 h -6.199861 z"/>
    <path id="rect1-4-1-3" style="display:inline;fill:#f1a16e;fill-opacity:1;stroke:#010101;stroke-width:1.5;stroke-linecap:round;stroke-dasharray:none;stroke-opacity:1;paint-order:fill markers stroke" d="m 27.050137,27.065384 h 6.199861 V 33.25 h -6.199861 z"/>
  </g>
</svg>
