<?xml version="1.0" encoding="UTF-8" standalone="no"?>
<!-- Created with Inkscape (http://www.inkscape.org/) -->
<svg xmlns="http://www.w3.org/2000/svg" xmlns:svg="http://www.w3.org/2000/svg" width="48" height="48" viewBox="0 0 48 48" version="1.1" id="svg1" xml:space="preserve">
  <defs id="defs1"/>
  <g id="layer4">
    <g id="g1" transform="matrix(1.0280711,0,0,1.010553,-0.6753938,-1.4756892)" style="stroke-width:0.98109">
      <path style="display:inline;fill:#9fb0a2;fill-opacity:1;stroke:#000000;stroke-width:0.98109;stroke-linecap:round;stroke-linejoin:round;stroke-dasharray:none;stroke-opacity:1" d="M 41.014271,15.475631 40.967591,33.055582 24,45.076276 l 0.0037,-9.553314 8.94128,-5.691879 -0.04527,-9.241762 z" id="path12"/>
      <path style="display:inline;fill:#abd4b5;fill-opacity:1;stroke:#000000;stroke-width:0.98109;stroke-linecap:round;stroke-linejoin:round;stroke-dasharray:none;stroke-opacity:1" d="m 6.9857283,15.475631 0.04668,17.579951 16.9675907,12.020694 -0.0037,-9.553314 -9.052672,-5.734955 0.04554,-9.20877 z" id="path13"/>
      <path style="display:inline;fill:#d0e1d5;fill-opacity:1;stroke:#000000;stroke-width:0.98109;stroke-linecap:round;stroke-linejoin:round;stroke-dasharray:none;stroke-opacity:1" d="M 6.9772869,15.439866 24.001641,5.9070834 41.022712,15.439866 33.191507,20.589321 24.094303,15.35728 14.989167,20.579237 Z" id="path9"/>
      <path style="fill:#9fb0a2;fill-opacity:1;stroke:#000000;stroke-width:0.98109;stroke-linecap:round;stroke-linejoin:round;stroke-dasharray:none;stroke-opacity:1" d="m 24.094303,15.451416 v 9.120491 l -9.345203,5.2161 0.04527,-9.19722 9.299932,-5.233507" id="path15"/>
      <path style="fill:#abd4b5;fill-opacity:1;stroke:#000000;stroke-width:0.98109;stroke-linecap:round;stroke-linejoin:round;stroke-dasharray:none;stroke-opacity:1" d="m 24.094303,15.44995 v 9.120492 l 9.142474,5.260641 -0.04527,-9.241762 -9.097203,-5.233507" id="path16"/>
      <path style="fill:#d0e1d5;fill-opacity:1;stroke:#000000;stroke-width:0.98109;stroke-linecap:round;stroke-linejoin:round;stroke-dasharray:none;stroke-opacity:1" d="m 24.094303,24.571907 9.142474,5.259176 -9.236778,5.685061 -9.250899,-5.728137 z" id="path17"/>
    </g>
  </g>
</svg>
