<?xml version="1.0" encoding="UTF-8" standalone="no"?>
<!-- Created with Inkscape (http://www.inkscape.org/) -->
<svg xmlns="http://www.w3.org/2000/svg" xmlns:svg="http://www.w3.org/2000/svg" width="48" height="48" viewBox="0 0 48 48" version="1.1" id="svg1" xml:space="preserve">
  <defs id="defs1"/>
  <g id="LightThemeEnabledLayer" style="display:inline">
    <rect style="fill:none;stroke:#000000;stroke-width:2;stroke-linejoin:round;stroke-dasharray:none;stroke-opacity:1;paint-order:markers fill stroke" id="rect1-9" width="28" height="24" x="11" y="19"/>
    <path id="path3-5-7" style="fill:none;stroke:#000000;stroke-width:2;stroke-linejoin:round;paint-order:markers fill stroke" d="m 16.947947,18.027 c 0,-1.794923 -0.117925,-3.933611 0.257265,-5.510187 0.507414,-2.132199 0.781031,-2.6467335 1.478774,-3.882201 1.016569,-1.7999982 3.828682,-3.6076118 6.313961,-3.6076118 0.0092,0 0.01829,1.98e-5 0.0044,5.94e-5 -0.01394,-3.94e-5 -0.0048,-5.92e-5 0.0044,-5.92e-5 2.485279,0 5.297392,1.8076136 6.313961,3.6076118 0.697743,1.2354675 0.97136,1.7500018 1.478774,3.8822008 0.37519,1.576576 0.257265,3.715264 0.257265,5.510187"/>
    <circle style="fill:#000000;fill-opacity:0.5;stroke:#000000;stroke-width:2;stroke-linejoin:round;stroke-dasharray:none;stroke-opacity:1;paint-order:markers fill stroke" id="path4-3" cx="25" cy="31" r="4"/>
  </g>
</svg>
