<?xml version="1.0" encoding="UTF-8" standalone="no"?>
<!-- Created with Inkscape (http://www.inkscape.org/) -->
<svg xmlns="http://www.w3.org/2000/svg" xmlns:svg="http://www.w3.org/2000/svg" width="48" height="48" viewBox="0 0 48 48" version="1.1" id="svg1" xml:space="preserve"><defs id="defs1"><filter style="color-interpolation-filters:sRGB;" id="filter1" x="-0.74880251" y="-0.74280248" width="2.497605" height="2.485605"><feGaussianBlur stdDeviation="0.91 0.9" result="blur" id="feGaussianBlur1"/></filter><filter style="color-interpolation-filters:sRGB;" id="filter2" x="-0.56136328" y="-0.55519442" width="2.1227266" height="2.1103888"><feGaussianBlur stdDeviation="0.91 0.9" result="blur" id="feGaussianBlur2"/></filter></defs>
<!-- PUT FINAL THEME/STATE VERSIONS IN THESE LAYERS. NO GROUPED ELEMENTS. -->
<g id="LightThemeEnabledLayer" style="display:inline"><path style="display:inline;fill:#35728a;fill-opacity:1;stroke:none;stroke-width:1;stroke-linecap:butt;stroke-linejoin:round;stroke-dasharray:none;stroke-dashoffset:0;stroke-opacity:1" d="M 3.8013464,33.816088 12.287529,19.118012 c 0,0 10.071793,-9.8294981 15.763955,-8.319497 3.119964,0.827655 7.978557,3.961357 11.394515,7.841255 2.816226,3.198712 4.53212,7.335847 4.53212,7.335847 l -9.110951,18.33618 c 0,0 -7.392564,-6.598293 -12.55833,-8.754117 C 17.14307,33.401854 3.8013464,33.816088 3.8013464,33.816088 Z" id="path11"/><path style="display:inline;fill:#0e8d35;fill-opacity:0.806801;stroke:none;stroke-width:1;stroke-linecap:butt;stroke-linejoin:round;stroke-dasharray:none;stroke-dashoffset:0;stroke-opacity:1" d="M 5.0768054,31.650803 11.212797,21.403119 c 0,0 11.050731,-9.23182 18.114146,-8.619365 7.063416,0.612453 11.683705,12.001603 11.683705,12.001603 l -6.222342,19.657972 c 0,0 -5.621401,-6.748287 -11.204009,-11.050934 C 18.001689,29.089749 5.0768054,31.650803 5.0768054,31.650803 Z" id="path2"/><path style="display:inline;fill:#12c13e;fill-opacity:0.874336;stroke:none;stroke-width:1;stroke-linecap:butt;stroke-linejoin:round;stroke-dasharray:none;stroke-dashoffset:0;stroke-opacity:1" d="M 3.9606063,25.269737 15.577488,13.052591 c 0,0 5.725326,-10.3556435 12.448362,-8.0417963 6.723037,2.3138464 16.023787,21.0230863 16.023787,21.0230863 l -9.153509,18.876795 c 0,0 -8.826134,-10.093465 -13.351272,-13.445247 C 17.019717,28.113643 3.9606063,25.269737 3.9606063,25.269737 Z" id="path111"/><path style="display:inline;fill:#fdca1f;fill-opacity:0.867257;stroke:none;stroke-width:2;stroke-linecap:butt;stroke-linejoin:round;stroke-dasharray:none;stroke-dashoffset:0;stroke-opacity:1" d="m 5.2603375,19.637728 9.8314715,-9.076637 c 0,0 8.498483,-4.1520049 14.721061,-2.4861583 6.222578,1.6658466 10.673569,11.6378323 10.673569,11.6378323 l -8.023393,15.330162 c 0,0 -7.849055,-7.80082 -11.837543,-10.417402 C 16.637008,22.008942 5.2603375,19.637728 5.2603375,19.637728 Z" id="path10"/><path style="display:inline;fill:#e09900;fill-opacity:1;stroke:none;stroke-width:2;stroke-linecap:butt;stroke-linejoin:round;stroke-dasharray:none;stroke-dashoffset:0;stroke-opacity:1" d="M 9.1623533,14.649378 16.743399,6.768501 c 0,0 6.759458,-3.8351959 11.168491,-2.3244569 4.409035,1.510739 8.93633,9.4167909 8.93633,9.4167909 l -6.468728,13.489298 c 0,0 -6.713113,-6.478549 -9.684882,-8.656363 C 17.722837,16.515956 9.1623533,14.649378 9.1623533,14.649378 Z" id="path107"/><path style="display:inline;opacity:0.728198;fill:#eb5800;fill-opacity:1;stroke:none;stroke-width:0.999996px;stroke-linecap:butt;stroke-linejoin:miter;stroke-opacity:1" d="m 20.402644,5.11862 c 0,0 3.531725,-1.0197571 5.302,-1.1760682 1.116945,-0.098622 2.669973,0.5440906 3.639274,1.1567126 2.027694,1.2815537 4.529246,4.58727 4.529246,4.58727 L 28.729673,21.027202 c 0,0 -4.594055,-4.787941 -6.825524,-6.292416 -2.231469,-1.504473 -8.771643,-1.939919 -8.771643,-1.939919 z" id="path113"/><path style="display:inline;fill:#ff3130;fill-opacity:1;stroke:none;stroke-width:0.999994px;stroke-linecap:butt;stroke-linejoin:miter;stroke-opacity:1" d="m 21.995818,5.5229126 c 0,0 2.932531,-1.4637036 3.991286,-1.5571892 0.668016,-0.058983 1.874136,0.1886535 2.370398,0.661977 0.94431,0.9006633 1.712834,3.8043175 1.712834,3.8043175 L 27.41785,13.837101 c 0,0 -2.60041,-1.564167 -3.934992,-2.463954 -1.334583,-0.899784 -4.405103,-2.0481189 -4.405103,-2.0481189 z" id="path1"/><path style="display:inline;fill:none;stroke:#000000;stroke-width:2;stroke-linecap:butt;stroke-linejoin:miter;stroke-dasharray:none;stroke-opacity:1" d="M 1.864409,3.8150364 43.246872,45.197499" id="path19"/><path style="display:inline;opacity:0.7;fill:none;stroke:#ffffff;stroke-width:5.3;stroke-linecap:butt;stroke-linejoin:miter;stroke-dasharray:none;stroke-opacity:1" d="M 4.6028127,1.4546417 45.617541,42.469369" id="path19-3"/></g>


<!-- TINKERLAYER FOR USE AS DESIGN SANDBOX. DELETE IN FINAL VERSION -->
</svg>
