<?xml version="1.0" encoding="UTF-8" standalone="no"?>
<!-- Created with Inkscape (http://www.inkscape.org/) -->
<svg xmlns="http://www.w3.org/2000/svg" xmlns:svg="http://www.w3.org/2000/svg" width="48" height="48" viewBox="0 0 48 48" version="1.1" id="svg1" xml:space="preserve"><defs id="defs1"/>
<!-- PUT FINAL THEME/STATE VERSIONS IN THESE LAYERS. NO GROUPED ELEMENTS. -->
<g id="LightThemeEnabledLayer" style="display:inline"><circle style="fill:none;fill-opacity:1;fill-rule:evenodd;stroke:#fe6700;stroke-width:1.99999;stroke-dasharray:none;stroke-opacity:0.94902" id="circle79" cx="-10.414489" cy="35.536831" r="4.6333036" transform="rotate(-57.993361)"/><path id="path80" style="fill:none;fill-rule:evenodd;stroke:#6db60f;stroke-width:2;stroke-opacity:1" d="M 39.652451,22.818927 C 42.454031,33.826883 34.346027,42.90793 24.336935,42.90793 14.327843,42.90793 8.1767664,33.936195 7.8496525,27.124487 7.6638231,23.254839 8.1731287,19.519411 9.5591213,15.518962 12.072349,8.2649276 17.548369,5.4177874 21.774783,4.8978977 c 4.07888,-0.5017416 10.027501,2.6400307 13.493493,7.9886483 2.187437,3.375589 3.033293,4.624502 4.384175,9.932381 z"/><path id="path81" style="fill:none;fill-rule:evenodd;stroke:#dbaf00;stroke-width:1.99999;stroke-linejoin:round;stroke-opacity:1" d="m 33.928203,27.619393 v 0 C 33.928203,32.80016 29.728361,37 24.547596,37 c -5.180766,0 -9.380607,-4.19984 -9.380607,-9.380607 0,-3.649853 2.117037,-6.968339 5.406703,-8.473364 L 20.365713,17.81212 c -0.176832,-0.03031 -0.386517,-0.140275 -0.587012,-0.26559 -2.196609,-1.372947 -2.86432,-4.266647 -1.491371,-6.463257 1.372948,-2.1966098 4.266648,-2.8643197 6.463257,-1.491371 v 0 c 2.196611,1.372948 2.86432,4.266646 1.491372,6.463256 -0.29547,0.472731 -0.672851,0.889 -1.11035,1.191882 l 0.20356,1.104199 c 4.84186,0.313669 8.593034,4.381688 8.593034,9.268154 z"/></g>


<!-- TINKERLAYER FOR USE AS DESIGN SANDBOX. DELETE IN FINAL VERSION -->
</svg>
