<?xml version="1.0" encoding="UTF-8" standalone="no"?>
<!-- Uploaded to: SVG Repo, www.svgrepo.com, Generator: SVG Repo Mixer Tools -->
<svg xmlns="http://www.w3.org/2000/svg" xmlns:svg="http://www.w3.org/2000/svg" fill="#000000" width="48" height="48" viewBox="0 0 48 48" id="icons" version="1.1" xml:space="preserve">
  <defs id="defs3"/>
  <g id="layer1">
    <path style="fill:#000000;fill-opacity:1;stroke:none;stroke-width:0.200001;stroke-linecap:butt;stroke-linejoin:miter;stroke-dasharray:none;stroke-opacity:1" d="M 27.254493,27.929762 C 24.406169,31.182389 24,42.350636 24,42.350636 c 0,0 -0.40617,-11.168247 -3.254494,-14.420874 -2.848324,-3.252629 -10.464358,-3.870929 -10.464358,-3.870929 0,0 7.616034,-0.618301 10.464358,-3.870928 C 23.59383,16.935276 24,5.7670295 24,5.7670295 c 0,0 0.406169,11.1682465 3.254493,14.4208755 2.848324,3.252627 10.464359,3.870928 10.464359,3.870928 0,0 -7.616035,0.6183 -10.464359,3.870929 z" id="path6"/>
    <path style="fill:#000000;fill-opacity:1;stroke:none;stroke-width:0.200001;stroke-linecap:butt;stroke-linejoin:miter;stroke-dasharray:none;stroke-opacity:1" d="M 37.397606,13.68928 C 36.174425,15.086085 36,20.171742 36,20.171742 c 0,0 -0.174425,-5.085657 -1.397605,-6.482462 -1.223183,-1.396804 -4.493803,-1.662327 -4.493803,-1.662327 0,0 3.27062,-0.265523 4.493803,-1.662327 C 35.825575,8.9678208 36,4.171742 36,4.171742 c 0,0 0.174425,4.7960788 1.397606,6.192884 1.22318,1.396804 4.493802,1.662327 4.493802,1.662327 0,0 -3.270622,0.265523 -4.493802,1.662327 z" id="path7"/>
  </g>
</svg>
