<?xml version="1.0" encoding="UTF-8" standalone="no"?>
<!-- Created with Inkscape (http://www.inkscape.org/) -->

<svg
   width="48"
   height="48"
   viewBox="0 0 48 48"
   version="1.1"
   id="svg1"
   xml:space="preserve"
   inkscape:version="1.3 (0e150ed, 2023-07-21)"
   sodipodi:docname="SlicerInvisible.svg"
   inkscape:export-filename="PNG/SlicerUpArrowV1-24.png"
   inkscape:export-xdpi="48"
   inkscape:export-ydpi="48"
   xmlns:inkscape="http://www.inkscape.org/namespaces/inkscape"
   xmlns:sodipodi="http://sodipodi.sourceforge.net/DTD/sodipodi-0.dtd"
   xmlns="http://www.w3.org/2000/svg"
   xmlns:svg="http://www.w3.org/2000/svg"><sodipodi:namedview
     id="namedview1"
     pagecolor="#ffffff"
     bordercolor="#111111"
     borderopacity="1"
     inkscape:showpageshadow="0"
     inkscape:pageopacity="0"
     inkscape:pagecheckerboard="1"
     inkscape:deskcolor="#d1d1d1"
     inkscape:document-units="px"
     showgrid="true"
     inkscape:zoom="6.2842381"
     inkscape:cx="30.154809"
     inkscape:cy="19.493214"
     inkscape:window-width="1392"
     inkscape:window-height="773"
     inkscape:window-x="64"
     inkscape:window-y="25"
     inkscape:window-maximized="0"
     inkscape:current-layer="LightThemeEnabledLayer"
     showguides="true"><inkscape:grid
       id="grid1"
       units="px"
       originx="0"
       originy="0"
       spacingx="2"
       spacingy="2"
       empcolor="#0099e5"
       empopacity="0.30196078"
       color="#0099e5"
       opacity="0.14902"
       empspacing="1"
       dotted="false"
       gridanglex="30"
       gridanglez="30"
       visible="true" /></sodipodi:namedview><defs
     id="defs1" /><g
     inkscape:label="LightThemeEnabledLayer"
     id="LightThemeEnabledLayer"
     inkscape:groupmode="layer"
     style="display:inline"
     sodipodi:insensitive="true"><path
       style="fill:none;stroke:#000000;stroke-width:2;stroke-linecap:butt;stroke-linejoin:miter;stroke-dasharray:none;stroke-opacity:1"
       d="M 9.407107,11.407107 38.57868,40.57868"
       id="path1" /><path
       id="path4-5-4-5"
       style="display:inline;fill:none;fill-opacity:0.3;stroke:#000000;stroke-width:2;stroke-linecap:round;stroke-linejoin:round;stroke-opacity:0.5;paint-order:markers fill stroke"
       d="m 20.475715,22.476528 a 5,5 0 0 1 3.524287,-1.453255 5,5 0 0 1 5,5 v 0 a 5,5 0 0 1 -1.45279,3.523819" /><path
       id="path32"
       style="display:inline;fill:none;fill-opacity:0.3;stroke:#000000;stroke-width:2;stroke-linecap:round;stroke-linejoin:round;stroke-opacity:0.5;paint-order:markers fill stroke"
       d="m 27.547212,29.547092 a 5,5 0 0 1 -3.54721,1.476181 5,5 0 0 1 -5,-5 5,5 0 0 1 1.475713,-3.546745" /><path
       id="path30"
       style="display:inline;fill:none;stroke:#000000;stroke-width:2;stroke-linecap:round;stroke-linejoin:round;stroke-dasharray:none;stroke-opacity:1;paint-order:markers fill stroke"
       d="M 35.953988,29.953451 C 36.75526,28.913344 37.421167,27.762662 37.910202,26.520437 35.664146,20.815109 29.687195,16.046546 24,16.046546 v 0 c -0.633877,0 -1.247452,0.03791 -1.840894,0.111021" /><path
       id="path22"
       style="display:inline;fill:none;stroke:#000000;stroke-width:2;stroke-linecap:round;stroke-linejoin:round;stroke-dasharray:none;stroke-opacity:0.5;paint-order:markers fill stroke"
       d="m 12.319554,22.320097 c -0.902834,1.291379 -1.644643,2.714075 -2.229751,4.20034 C 12.335861,32.22577 16.890994,36 24,36 c 0.620085,0 1.243616,-0.04487 1.865379,-0.132214" /><path
       id="path3-7-1-7-1-9"
       style="display:inline;fill:none;stroke:#000000;stroke-width:4;stroke-linecap:round;stroke-linejoin:round;stroke-dasharray:none;stroke-opacity:0.3;paint-order:markers fill stroke"
       d="m 21.799072,14.660436 c 0.713943,-0.09066 1.448288,-0.137163 2.200936,-0.137163 5.545015,0 12.310084,3.943851 14.499992,10" /></g></svg>
