<?xml version="1.0" encoding="UTF-8" standalone="no"?>
<!-- Uploaded to: SVG Repo, www.svgrepo.com, Generator: SVG Repo Mixer Tools -->
<svg xmlns="http://www.w3.org/2000/svg" xmlns:svg="http://www.w3.org/2000/svg" fill="#000000" width="48" height="48" viewBox="0 0 48 48" id="icons" version="1.1" xml:space="preserve">
  <defs id="defs3"/>
  <g id="layer1">
    <rect style="fill:#ed8800;fill-rule:evenodd;stroke-width:0.999996" id="rect9" width="22" height="1.9999993" x="20" y="10"/>
    <path id="rect1" style="fill:none;fill-rule:evenodd;stroke:#000000;stroke-width:2" d="M 19,9 H 43 V 37 H 19 Z"/>
    <path style="fill:none;stroke:#000000;stroke-width:2;stroke-linecap:butt;stroke-linejoin:miter;stroke-dasharray:none;stroke-opacity:1" d="m 44.000001,13 h -24" id="path4"/>
    <path style="fill:none;stroke:#000000;stroke-width:2.00001;stroke-linecap:butt;stroke-linejoin:miter;stroke-dasharray:none;stroke-opacity:1" d="M 27,12.000001 V 36.5" id="path5"/>
    <path style="fill:none;stroke:#000000;stroke-width:2.00001;stroke-linecap:butt;stroke-linejoin:miter;stroke-dasharray:none;stroke-opacity:1" d="M 35,12.000001 V 36.5" id="path6"/>
    <path style="fill:none;stroke:#000000;stroke-width:2;stroke-linecap:butt;stroke-linejoin:miter;stroke-dasharray:none;stroke-opacity:1" d="m 44.000001,21 h -24" id="path7"/>
    <path style="fill:none;stroke:#000000;stroke-width:2;stroke-linecap:butt;stroke-linejoin:miter;stroke-dasharray:none;stroke-opacity:1" d="m 44.000001,29 h -24" id="path8"/>
    <path id="rect1-9" style="display:inline;fill:none;stroke:#000000;stroke-width:2;stroke-linejoin:round;paint-order:markers fill stroke" d="M 4.9806075,11.031933 H 14.980608 v 9.87845 H 4.9806075 Z"/>
    <path id="path3-5-7" style="display:inline;fill:none;stroke:#000000;stroke-width:2;stroke-linejoin:round;paint-order:markers fill stroke" d="m 6.7161146,10.332098 c 0,-0.813477 -0.047799,-1.782751 0.1042658,-2.4972687 C 7.026042,6.8684958 7.1369415,6.346411 7.4197455,5.7864854 7.8317727,4.9707093 8.9715542,4.4403735 9.9788664,4.4403735 c 0.0037,0 0.0073,9.1e-6 0.0018,2.8e-5 -0.0058,-1.89e-5 -0.0019,-2.8e-5 0.0018,-2.8e-5 1.0073116,0 2.1470936,0.5303358 2.5591206,1.3461119 0.282803,0.5599256 0.393703,1.0820104 0.599364,2.0483439 0.15207,0.7145177 0.10428,1.6837917 0.10428,2.4972687"/>
    <ellipse style="display:inline;fill:#000000;fill-opacity:1;stroke:#000000;stroke-width:0.999999;stroke-linejoin:round;stroke-dasharray:none;stroke-opacity:1;paint-order:markers fill stroke" id="path4-3" cx="9.9806042" cy="16.190098" rx="1.1447464" ry="1.1900972"/>
  </g>
</svg>
