<?xml version="1.0" encoding="UTF-8" standalone="no"?>
<svg xmlns="http://www.w3.org/2000/svg" xmlns:svg="http://www.w3.org/2000/svg" height="48" viewBox="0 -960 1920 1920" width="48" fill="#000000" version="1.1" id="svg1" xml:space="preserve">
  <defs id="defs1"/>
  <g id="layer1" style="fill:#000000">
    <path d="m 260,-200 q -74.85,0 -127.42,-52.06 Q 80,-304.11 80,-379.31 q 0,-71.07 48.92,-123.23 48.93,-52.15 114.93,-56.08 13.46,-87.38 80.38,-144.38 66.92,-57 155.77,-57 100.29,0 170.14,69.86 Q 720,-620.29 720,-520 v 40 h 24.62 q 57.46,1.85 96.42,42.19 38.96,40.35 38.96,97.81 0,58.85 -39.81,99.42 Q 800.38,-200 741.54,-200 H 524.62 Q 497,-200 478.5,-218.5 460,-237 460,-264.62 v -232.15 l -84,83.54 -28.31,-27.54 132.31,-132.31 132.31,132.31 -28.31,27.54 -84,-83.54 v 232.15 q 0,9.24 7.69,16.93 7.69,7.69 16.93,7.69 H 740 q 42,0 71,-29 29,-29 29,-71 0,-42 -29,-71 -29,-29 -71,-29 h -60 v -80 q 0,-83 -58.5,-141.5 Q 563,-720 480,-720 397,-720 338.5,-661.5 280,-603 280,-520 h -21.54 q -55.69,0 -97.08,41 -41.38,41 -41.38,99 0,58 41,99 41,41 99,41 h 100 v 40 z m 220,-260 z" id="path1" style="fill:#000000" transform="matrix(2,0,0,2,-0.443564,879.63236)"/>
  </g>
</svg>
