<?xml version="1.0" encoding="UTF-8" standalone="no"?>
<!-- Created with Inkscape (http://www.inkscape.org/) -->
<svg xmlns="http://www.w3.org/2000/svg" xmlns:svg="http://www.w3.org/2000/svg" width="48" height="48" viewBox="0 0 48 48" version="1.1" id="svg1" xml:space="preserve">
  <defs id="defs1"/>
  <g id="LightThemeEnabledLayer" style="display:inline">
    <path style="display:none;fill:none;stroke:#000000;stroke-width:1px;stroke-linecap:round;stroke-linejoin:miter;stroke-opacity:1" d="M 5.9784948,40.066513 18.560973,27.471989" id="path104"/>
    <path style="display:none;fill:none;stroke:#000000;stroke-width:1px;stroke-linecap:round;stroke-linejoin:miter;stroke-opacity:1" d="m 18.557971,27.707358 v -0.09159 l -0.1,-25.801814" id="path105"/>
    <path style="display:none;fill:none;stroke:#000000;stroke-width:1px;stroke-linecap:round;stroke-linejoin:miter;stroke-opacity:1" d="m 18.591669,27.471762 25.16084,7.581801" id="path106"/>
    <rect style="fill:#11ad38;fill-opacity:1;fill-rule:evenodd;stroke-width:1" id="rect113" width="4" height="3.9829555" x="28" y="4" rx="0.59999996" ry="0.60000002"/>
    <rect style="fill:#11ad38;fill-opacity:1;fill-rule:evenodd;stroke-width:0.999998" id="rect112" width="4" height="4" x="10" y="12" rx="0.59999996" ry="0.60000002"/>
    <rect style="fill:#11ad38;fill-opacity:1;fill-rule:evenodd;stroke-width:0.999998" id="rect109" width="4" height="4" x="38" y="40" rx="0.59999996" ry="0.60000002"/>
    <rect style="fill:#11ad38;fill-opacity:1;fill-rule:evenodd;stroke-width:0.999998" id="rect111" width="4" height="4" x="3" y="28" rx="0.59999996" ry="0.60000002"/>
    <rect style="fill:#11ad38;fill-opacity:1;fill-rule:evenodd;stroke-width:0.999998" id="rect110" width="4" height="4" x="40" y="20" rx="0.59999996" ry="0.60000002"/>
    <path style="display:inline;fill:#9dcda9;fill-opacity:1;stroke:none;stroke-width:2;stroke-linecap:butt;stroke-linejoin:round;stroke-dasharray:none;stroke-dashoffset:0;stroke-opacity:1" d="m 10.352593,27.86113 5.892908,-11.135805 c 0,0 6.183152,-6.258129 11.384025,-5.725325 5.200874,0.532804 11.648307,10.82446 11.648307,10.82446 L 36,37 C 36,37 27.825981,31.054373 23.983022,29.361589 20.140061,27.668806 10.352593,27.86113 10.352593,27.86113 Z" id="path107"/>
    <path style="display:inline;fill:none;stroke:#000000;stroke-width:1;stroke-linecap:butt;stroke-linejoin:round;stroke-dasharray:6, 1;stroke-dashoffset:0;stroke-opacity:1" d="M 5.9860358,30.431783 13.341763,16.335791 c 0,0 7.718021,-8.5244697 14.209927,-7.8500334 6.491906,0.6744361 14.041225,13.7011994 14.041225,13.7011994 L 38,42 C 38,42 27.796912,34.473871 23,32.331103 18.203086,30.188333 5.9860358,30.431783 5.9860358,30.431783 Z" id="path111"/>
    <path style="fill:#ffffff;fill-opacity:0.362205;stroke:none;stroke-width:0.999994px;stroke-linecap:butt;stroke-linejoin:miter;stroke-opacity:1" d="m 19.808324,17.439376 c 0,0 3.917188,-2.578613 5.815863,-3.217416 1.19796,-0.403048 2.167877,-0.229002 3.266154,0.29486 C 30.980196,15.51365 35,20.434461 35,20.434461 l -2.164972,11.281102 c 0,0 -6.003533,-3.727339 -8.806794,-4.542161 -2.803262,-0.814822 -8.881469,-1.221964 -8.881469,-1.221964 z" id="path113"/>
  </g>
</svg>
