<?xml version="1.0" encoding="UTF-8" standalone="no"?>
<!-- Created with Inkscape (http://www.inkscape.org/) -->
<svg xmlns="http://www.w3.org/2000/svg" xmlns:svg="http://www.w3.org/2000/svg" width="48" height="48" viewBox="0 0 48 48" version="1.1" id="svg1" xml:space="preserve">
  <defs id="defs1"/>
  <g id="LightThemeEnabledLayer" style="display:inline">
    <path style="fill:none;fill-opacity:1;stroke:#000000;stroke-width:2;stroke-linecap:butt;stroke-linejoin:miter;stroke-dasharray:none;stroke-opacity:1" d="m 15.195674,21.373534 -5.056518,5.056517 5.401413,5.401413 5.04981,-5.049811" id="path1-1-1-0"/>
    <path style="fill:#e5e5ff;fill-opacity:1;stroke:#000000;stroke-width:2;stroke-linecap:butt;stroke-linejoin:miter;stroke-dasharray:none;stroke-opacity:1" d="m 20.597087,26.774947 -5.056518,5.056517 5.401414,5.401411 5.049809,-5.04981" id="path1-1-1-0-1"/>
    <path style="fill:#e5e5ff;fill-opacity:1;stroke:#000000;stroke-width:2;stroke-linecap:butt;stroke-linejoin:miter;stroke-dasharray:none;stroke-opacity:1" d="m 20.554398,16.041365 -5.056518,5.056517 5.401413,5.401412 5.04981,-5.04981" id="path1-1-1-0-9"/>
    <path style="fill:none;fill-opacity:1;stroke:#000000;stroke-width:2;stroke-linecap:butt;stroke-linejoin:miter;stroke-dasharray:none;stroke-opacity:1" d="m 25.955811,21.442777 -5.056518,5.056517 5.401414,5.401412 5.049809,-5.049811" id="path1-1-1-0-1-0"/>
    <path style="fill:none;fill-opacity:1;stroke:#000000;stroke-width:2;stroke-linecap:butt;stroke-linejoin:miter;stroke-dasharray:none;stroke-opacity:1" d="m 25.610916,10.984848 -5.056518,5.056517 5.401413,5.401413 5.049809,-5.049811" id="path1-1-1-0-5"/>
    <path style="fill:#e5e5ff;fill-opacity:1;stroke:#000000;stroke-width:2;stroke-linecap:butt;stroke-linejoin:miter;stroke-dasharray:none;stroke-opacity:1" d="m 31.012329,16.386261 -5.056518,5.056517 5.401413,5.401411 5.04981,-5.04981" id="path1-1-1-0-1-2"/>
    <path id="path11" style="fill:none;stroke:#000000;stroke-width:1.75;stroke-linecap:round;stroke-dasharray:none;stroke-dashoffset:0.4;paint-order:fill markers stroke" d="M 42.084413,31.135777 A 20.921202,22.641141 0 0 1 23.685226,43 v 0 A 20.921202,22.641141 0 0 1 7,34.017871"/>
    <path style="fill:none;stroke:#000000;stroke-width:1.75;stroke-linecap:round;stroke-linejoin:miter;stroke-dasharray:none;stroke-opacity:1" d="M 37.206305,31.059187 H 43 v 5.881625" id="path3"/>
    <path id="path11-8" style="fill:none;stroke:#000000;stroke-width:1.75;stroke-linecap:round;stroke-dasharray:none;stroke-dashoffset:0.4;paint-order:fill markers stroke" d="M 5.96703,16.864223 A 20.890526,22.641141 0 0 1 24.339239,5 V 5 A 20.890526,22.641141 0 0 1 41,13.982129"/>
    <path style="fill:none;stroke:#000000;stroke-width:1.75;stroke-linecap:round;stroke-linejoin:miter;stroke-dasharray:none;stroke-opacity:1" d="M 11.119221,16.940813 H 5 v -5.881625" id="path3-23"/>
    <path style="fill:#c9ddc4;fill-opacity:1;stroke:#000000;stroke-width:2;stroke-linecap:butt;stroke-linejoin:miter;stroke-dasharray:none;stroke-opacity:1" d="M 24.98854,10.181257 37.206623,22.412771" id="path3-2"/>
  </g>
</svg>
