<?xml version="1.0" encoding="UTF-8" standalone="no"?>
<!-- Created with Inkscape (http://www.inkscape.org/) -->

<svg
   xmlns:dc="http://purl.org/dc/elements/1.1/"
   xmlns:cc="http://creativecommons.org/ns#"
   xmlns:rdf="http://www.w3.org/1999/02/22-rdf-syntax-ns#"
   xmlns:svg="http://www.w3.org/2000/svg"
   xmlns="http://www.w3.org/2000/svg"
   xmlns:xlink="http://www.w3.org/1999/xlink"
   xmlns:sodipodi="http://sodipodi.sourceforge.net/DTD/sodipodi-0.dtd"
   xmlns:inkscape="http://www.inkscape.org/namespaces/inkscape"
   width="573"
   height="376"
   viewBox="0 0 151.60625 99.483336"
   version="1.1"
   id="svg8"
   inkscape:version="0.92.5 (2060ec1f9f, 2020-04-08)"
   sodipodi:docname="Slicer-SplashScreen.svg"
   inkscape:export-filename="c:\D\S4\Applications\SlicerApp\Resources\Images\Slicer-SplashScreen.png"
   inkscape:export-xdpi="96"
   inkscape:export-ydpi="96">
  <defs
     id="defs2">
    <path
       d="M3225.3,4190c-298.6,0-658.1-34.3-922.8-69.3c-38.9-290.2-48.7-604.5-48.7-935.8    c0-1335.2,347.7-2436.4,789.5-2539.1c-1340.3,73-2404.8,1193.7-2404.8,2565.7c0,1419.1,1139,2569.6,2544,2569.6    c1356.8,0,2465.5-1073,2539.9-2424.7C5653.6,3827.9,4538.4,4190,3225.3,4190z"
       id="SVGID_1_" />
  </defs>
  <sodipodi:namedview
     id="base"
     pagecolor="#ffffff"
     bordercolor="#666666"
     borderopacity="1.0"
     inkscape:pageopacity="0.0"
     inkscape:pageshadow="2"
     inkscape:zoom="2.0954054"
     inkscape:cx="390.21586"
     inkscape:cy="116.58841"
     inkscape:document-units="mm"
     inkscape:current-layer="layer1"
     showgrid="false"
     units="px"
     inkscape:window-width="2256"
     inkscape:window-height="1410"
     inkscape:window-x="-11"
     inkscape:window-y="-11"
     inkscape:window-maximized="1" />
  <metadata
     id="metadata5">
    <rdf:RDF>
      <cc:Work
         rdf:about="">
        <dc:format>image/svg+xml</dc:format>
        <dc:type
           rdf:resource="http://purl.org/dc/dcmitype/StillImage" />
        <dc:title></dc:title>
      </cc:Work>
    </rdf:RDF>
  </metadata>
  <g
     inkscape:label="Layer 1"
     inkscape:groupmode="layer"
     id="layer1"
     transform="translate(0,-197.51665)">
    <rect
       style="opacity:1;fill:#ffffff;fill-opacity:1;stroke:none;stroke-width:1.9991672;stroke-linecap:round;stroke-miterlimit:4;stroke-dasharray:none;stroke-opacity:1"
       id="rect1317"
       width="151.60625"
       height="99.48333"
       x="0"
       y="197.51666" />
    <g
       id="g1008"
       transform="matrix(0.00899764,0,0,0.00899764,7.5969653,208.48327)">
      <path
         id="path817"
         d="m 5739,3107.3 v 0 l -0.1,-812.6 -783.5,-0.4 V 1512.1 H 4170.7 V 728.2 l -644.1,-1.5 -167.7,1.4 c 0,0 -45.3,-171.2 -457.2,-136.3 C 1573.6,729 537.6,1851.6 537.6,3216.2 c 0,1457.2 1181.3,2638.5 2638.5,2638.5 1362.6,0 2483.9,-1032.9 2623.8,-2358.4 22.9,-294.1 -60.9,-389 -60.9,-389 z"
         inkscape:connector-curvature="0" />
      <g
         id="g827">
	<defs
   id="defs820">
		<path
   d="m 3225.3,4190 c -298.6,0 -658.1,-34.3 -922.8,-69.3 -38.9,-290.2 -48.7,-604.5 -48.7,-935.8 0,-1335.2 347.7,-2436.4 789.5,-2539.1 -1340.3,73 -2404.8,1193.7 -2404.8,2565.7 0,1419.1 1139,2569.6 2544,2569.6 1356.8,0 2465.5,-1073 2539.9,-2424.7 -68.8,471.5 -1184,833.6 -2497.1,833.6 z"
   id="path947"
   inkscape:connector-curvature="0" />

	</defs>

	<use
   id="use822"
   style="overflow:visible;fill:#afb8d1"
   xlink:href="#SVGID_1_"
   x="0"
   y="0"
   width="100%"
   height="100%" />

	<clipPath
   id="SVGID_2_">
		<use
   id="use824"
   style="overflow:visible"
   xlink:href="#SVGID_1_"
   x="0"
   y="0"
   width="100%"
   height="100%" />

	</clipPath>

</g>
      <g
         id="g833">
	<g
   id="g831">
		<path
   id="path829"
   d="m 3172.6,5795.8 c -683.5,0 -1326,-268.8 -1809.3,-756.9 C 880.1,4550.7 614,3901.8 614,3211.6 614,1838.6 1676.4,705.2 3032.6,631.3 c 7.7,-0.4 14.2,5 15.3,12.5 1.1,7.5 -3.8,14.6 -11.2,16.3 -436.4,101.4 -778.2,1210.5 -778.2,2524.9 0,263.3 17.7,605.2 59.4,922.8 164.5,21.5 546.6,67.7 897.5,67.7 637,0 1244.5,-85 1710.6,-239.2 465.6,-154.1 739.8,-360.7 772.1,-581.8 1.1,-7.7 8.2,-13.1 15.9,-12.4 7.8,0.8 13.6,7.5 13.1,15.3 -75.4,1367.3 -1197.4,2438.4 -2554.5,2438.4 z M 2938,667.5 C 1643.5,787.5 643.2,1886.7 643.2,3211.6 c 0,1408.8 1134.7,2555 2529.4,2555 1301.8,0 2384.9,-997 2516,-2291.3 -96.6,187.2 -357.7,357.7 -753.4,488.7 -469,155.2 -1079.7,240.7 -1719.7,240.7 -360.7,0 -746.4,-56.7 -904.2,-77.6 -6.5,-0.9 -11.7,-6 -12.6,-12.5 -43.3,-322.4 -65.2,-662.3 -65.2,-929.6 0,-645.3 77.5,-1261.8 225.7,-1736.1 127.5,-408.6 295,-680.4 478.8,-781.4 z"
   inkscape:connector-curvature="0" />

	</g>

</g>
      <g
         id="g839">
	<g
   id="g837">
		<path
   id="path835"
   d="m 4936.8,4096.3 c -10,3.2 -20.6,6.5 -31.8,9.9 -283,750.9 -936.2,1315.8 -1715.2,1518.5 9.3,0.1 18.7,0.2 28.1,0.2 587.1,0 1150.2,-210.9 1585.5,-593.9 370.6,-326.1 622.7,-753.7 725,-1222.8 -138.3,109.6 -338,207.2 -591.6,288.1 z"
   class="st0"
   inkscape:connector-curvature="0"
   style="fill:#909caf" />

	</g>

</g>
      <g
         id="g845">
	<g
   id="g843">
		<path
   id="path841"
   d="M 3301.7,887.5 C 3295,737.8 3177.8,699.4 3121.1,697.7 c -176.5,-5.3 -389.1,244 -545,717.7 -157.1,477.2 -330.3,1285.3 -207.2,2656.2 l 340.4,-329.3 c 0,0 -2.3,-25.8 -4.5,-52.8 0,0 -26.7,-330.8 -29.9,-499.6 -9.8,-512 34.8,-991.3 143.8,-1353.5 109.7,-364.3 310.7,-673.7 467.4,-673.7 54.1,0 54.1,130.4 105.3,177.8 z"
   class="st1"
   inkscape:connector-curvature="0"
   style="fill:#626e7f" />

	</g>

</g>
      <g
         id="g851">
	<g
   id="g849">
		<path
   id="path847"
   d="m 4946.5,3883.1 c 292.9,-102.9 917.3,-382 651.3,-797.3 -16,-24.9 -35.6,-47.4 -59.8,-64.6 h -497.3 c 62.2,58.9 93.8,120.7 93.8,183.7 0,156.5 -194.1,303 -546.6,412.6 -350.4,108.9 -816.2,168.9 -1311.6,168.9 -194.2,0 -385.8,-9.3 -569.4,-27.7 l -0.9,-0.1 -334.4,313.3 c 164.7,21.5 559.9,58.2 888.9,58.2 633.9,-0.1 1232.7,-87.8 1686,-247 z"
   class="st2"
   inkscape:connector-curvature="0"
   style="fill:#afb8d2" />

	</g>

</g>
      <g
         id="g855">
	<path
   id="path853"
   d="m 3297.3,1226.2 c -268.5,0 -556,760.1 -556,1891.6 0,173.9 15.3,402.5 29.4,568.7 l 718.7,-709.3 -2.9,-1676.3 c -51.9,-54.9 -137,-74.7 -189.2,-74.7 z"
   class="st3"
   inkscape:connector-curvature="0"
   style="fill:#bcc9cb" />

</g>
      <g
         id="g863">
	<g
   id="g861">
		<path
   id="path857"
   d="m 3332.1,3733.7 c -150.6,0 -363.5,-11.7 -506.9,-28.5 l 729,-704.3 1566.2,-0.9 c 42.1,46 61.6,99.7 59.7,163.5 -3.4,109.7 -159,276.4 -492.6,382.9 -332.6,106.2 -791,172.4 -1290.8,186.3 -19.8,0.7 -41.5,1 -64.6,1 z"
   class="st4"
   inkscape:connector-curvature="0"
   style="fill:#feffff" />

		<path
   id="path859"
   d="m 3332.1,3748.5 c -148.3,0 -346.3,-11.5 -492.7,-28.6 l -29.4,-3.4 698.8,-730.2 h 6.3 l 1611.7,-0.9 4.4,4.8 c 44.8,49 65.6,105.9 63.5,173.9 -1.9,63 -47.3,135.3 -127.6,203.5 -90.7,76.9 -220.4,143.6 -375.2,193.1 -333.8,106.6 -793.7,173 -1294.8,187 -20.1,0.5 -41.9,0.8 -65,0.8 z m -496.7,-54.6 c 141.7,15.1 359.2,25.1 496.7,25.1 22.8,0 44.4,-0.3 64,-0.8 498.5,-13.9 955.5,-79.9 1286.7,-185.6 151.1,-48.3 277.4,-113.1 365.2,-187.5 72.9,-61.8 115.6,-128.1 117.2,-181.9 1.8,-57.8 -15.1,-106.4 -51.5,-148.4 l -1573.3,0.9 z"
   inkscape:connector-curvature="0" />

	</g>

</g>
      <path
         id="path865"
         d="m 5672.3,3217.8 c -21.4,280.6 -228.1,483.5 -632,620.4 -706.6,239.6 -1404.4,278.7 -1865.5,269.3 -315.7,-6.4 -566.6,-35.8 -709.6,-56.8 l 312,-300.9 c 147.2,20.2 379.9,35.1 554.7,35.1 23.6,0 45.8,-0.3 65.9,-0.8 504.5,-14.1 967.9,-81.1 1304.9,-188.7 157.7,-50.4 291.2,-119 385.9,-198.4 89.6,-75.1 140.1,-157.4 142.4,-231.8 2.5,-82.7 -26.1,-154 -85.1,-212.1 l -4.3,-4.2 -1615.9,0.9 -2.9,-1648.9 c 0,-9.3 -3.6,-18.2 -10,-25 -56.2,-59.5 -148.8,-114.7 -215.8,-114.7 -154.4,0 -301.3,222.9 -413.5,575.6 -115.4,362.9 -179,853.5 -179,1381.2 0,185.5 17.3,423.3 27.1,542.2 l -385,371.3 c -8.3,-1.6 -12.9,-2.5 -13.3,-2.6 0,0 0,0 0,0 l -20.7,101 c 14,2.9 348.1,70.3 857.4,80.8 43.8,0.9 87.6,1.4 131.3,1.4 254.4,0 506.5,-15.4 751.1,-45.8 358.6,-44.7 702.1,-122.1 1020.9,-230.2 234.4,-79.5 412.3,-184.6 528.9,-312.5 103.1,-113.2 161.3,-247 172.8,-397.7 z m -543.5,-55.7 c -1.3,43.5 -40.9,102 -105.8,156.4 -84.6,70.9 -206,132.9 -351.2,179.3 -328.1,104.8 -781.5,170.1 -1276.3,183.9 -188.1,1.3 -411.8,-5.8 -531.6,-15.3 l 637,-614.2 1595.4,-0.9 c 23.5,32 33.8,67.4 32.5,110.8 z m -2351,-44.2 c 0,-1194.5 304.5,-1852 516.8,-1852 45.8,0 113.4,13.8 155.4,50.6 l 2.9,1645.6 -124.9,123.1 -528.1,509.2 c -9.6,-126.9 -22.1,-320.7 -22.1,-476.5 z"
         inkscape:connector-curvature="0" />
      <g
         id="g899">
	<g
   id="g869">
		<path
   id="path867"
   d="m 7521.4,3258.9 c 26.8,24.1 48.9,54.3 66.3,90.6 17.3,36.4 26,83.3 26,140.9 0,57.1 -10.4,109.4 -31,156.9 -20.7,47.5 -49.8,88.9 -87.3,124.2 -41.9,39.2 -91.3,68.1 -148.1,86.8 -56.8,18.7 -119,28.1 -186.7,28.1 -69.4,0 -137.6,-8.3 -204.7,-24.8 -67.1,-16.5 -122.2,-34.5 -165.3,-54.1 v -175.3 h 12.6 c 47.5,31.3 103.5,57.3 167.8,78 64.3,20.7 126.4,31 186.3,31 35.2,0 72.7,-5.9 112.4,-17.6 39.7,-11.7 71.9,-29.1 96.5,-52 25.7,-24.6 44.9,-51.7 57.5,-81.4 12.6,-29.6 18.9,-67.1 18.9,-112.4 0,-44.7 -7.1,-81.8 -21.4,-111.2 -14.3,-29.4 -34,-52.4 -59.2,-69.2 -25.2,-17.3 -55.7,-29.2 -91.4,-35.7 -35.8,-6.4 -74.4,-9.6 -115.8,-9.6 h -75.5 v -139.3 h 58.7 c 85,0 152.8,-17.7 203.5,-53.3 50.6,-35.5 75.9,-87.4 75.9,-155.6 0,-30.2 -6.4,-56.6 -19.3,-79.3 -12.9,-22.7 -30.8,-41.2 -53.7,-55.8 -24.1,-14.5 -49.8,-24.6 -77.2,-30.2 -27.4,-5.6 -58.4,-8.4 -93.1,-8.4 -53.1,0 -109.6,9.5 -169.5,28.5 -59.9,19 -116.3,45.9 -169.5,80.5 h -8.4 V 2664 c 39.7,-19.6 92.7,-37.6 159,-54.1 66.3,-16.5 130.5,-24.8 192.5,-24.8 61,0 114.7,5.6 161.1,16.8 46.4,11.2 88.4,29.1 125.8,53.7 40.3,26.8 70.8,59.3 91.4,97.3 20.7,38 31,82.5 31,133.4 0,69.4 -24.5,129.9 -73.4,181.6 -49,51.7 -106.7,84.3 -173.3,97.7 v 11.7 c 26.8,4.5 57.6,13.8 92.3,28.1 34.9,14.4 64.3,32.2 88.3,53.5 z"
   class="st5"
   inkscape:connector-curvature="0"
   style="fill:#afb8d1" />

	</g>

	<g
   id="g873">
		<path
   id="path871"
   d="m 8966.2,3237 c 0,113.6 -24.7,216.5 -74.2,308.7 -49.5,92.3 -115.4,163.9 -197.6,214.8 -57.1,35.2 -120.7,60.7 -190.9,76.3 -70.2,15.7 -162.6,23.5 -277.3,23.5 H 7910.7 V 2611.2 h 312.1 c 121.9,0 218.8,8.8 290.7,26.4 71.9,17.6 132.7,41.8 182.5,72.6 85,53.1 151.3,123.9 198.8,212.3 47.6,88.3 71.4,193.2 71.4,314.5 z m -173.7,-2.5 c 0,-97.9 -17.1,-180.4 -51.2,-247.5 -34.1,-67.1 -85,-120 -152.7,-158.6 -49.2,-28 -101.5,-47.4 -156.9,-58.3 -55.4,-10.9 -121.7,-16.4 -198.8,-16.4 h -156.1 v 964 h 156.1 c 80,0 149.8,-5.9 209.3,-17.6 59.6,-11.7 114.2,-33.6 164,-65.4 62.1,-39.7 108.7,-92 139.7,-156.9 31.1,-64.8 46.6,-146 46.6,-243.3 z"
   class="st5"
   inkscape:connector-curvature="0"
   style="fill:#afb8d1" />

	</g>

	<g
   id="g877">
		<path
   id="path875"
   d="m 10697.4,3503.8 c 0,48.7 -11.3,96.8 -34,144.3 -22.7,47.5 -54.4,87.8 -95.2,120.8 -44.8,35.8 -96.9,63.8 -156.5,83.9 -59.6,20.1 -131.3,30.2 -215.2,30.2 -90.1,0 -171,-8.4 -242.9,-25.2 -71.9,-16.8 -145,-41.7 -219.4,-74.7 V 3575 h 11.7 c 63.2,52.6 136.2,93.1 219,121.7 82.8,28.5 160.5,42.8 233.2,42.8 102.9,0 183,-19.3 240.4,-57.9 57.3,-38.6 86,-90 86,-154.4 0,-55.4 -13.6,-96.2 -40.7,-122.5 -27.1,-26.3 -68.4,-46.7 -123.8,-61.2 -41.9,-11.2 -87.4,-20.4 -136.3,-27.7 -48.9,-7.3 -100.8,-16.5 -155.6,-27.7 -110.7,-23.5 -192.8,-63.6 -246.2,-120.4 -53.4,-56.8 -80.1,-130.7 -80.1,-221.9 0,-104.6 44.2,-190.3 132.6,-257.1 88.4,-66.8 200.5,-100.3 336.4,-100.3 87.8,0 168.3,8.4 241.6,25.2 73.3,16.8 138.1,37.5 194.6,62.1 V 2872 h -11.7 c -47.5,-40.3 -110.1,-73.7 -187.5,-100.3 -77.5,-26.6 -156.8,-39.9 -237.9,-39.9 -88.9,0 -160.4,18.5 -214.4,55.4 -54,36.9 -81,84.5 -81,142.6 0,52 13.4,92.9 40.3,122.5 26.8,29.7 74.1,52.3 141.8,68 35.8,7.8 86.7,17.3 152.7,28.5 66,11.2 121.9,22.7 167.8,34.4 92.8,24.6 162.8,61.8 209.7,111.6 47.1,49.9 70.6,119.6 70.6,209 z"
   class="st5"
   inkscape:connector-curvature="0"
   style="fill:#afb8d1" />

	</g>

	<g
   id="g881">
		<path
   id="path879"
   d="M 11143.7,3860.4 H 10986 V 2555 h 157.7 z"
   class="st5"
   inkscape:connector-curvature="0"
   style="fill:#afb8d1" />

	</g>

	<g
   id="g885">
		<path
   id="path883"
   d="m 11658,2766.4 h -177.9 v -163.6 h 177.9 z m -10,1094 h -157.7 v -937.1 h 157.7 z"
   class="st5"
   inkscape:connector-curvature="0"
   style="fill:#afb8d1" />

	</g>

	<g
   id="g889">
		<path
   id="path887"
   d="m 12710.4,3801.7 c -52.6,25.2 -102.5,44.8 -149.8,58.7 -47.3,14 -97.5,21 -150.6,21 -67.7,0 -129.8,-9.9 -186.3,-29.8 -56.5,-19.8 -104.9,-49.9 -145.1,-90.2 -40.8,-40.3 -72.4,-91.2 -94.8,-152.7 -22.4,-61.5 -33.6,-133.4 -33.6,-215.6 0,-153.2 42.1,-273.5 126.3,-360.8 84.2,-87.3 195.3,-130.9 333.5,-130.9 53.7,0 106.4,7.6 158.2,22.7 51.7,15.1 99.1,33.6 142.2,55.4 v 175.3 h -8.4 c -48.1,-37.5 -97.7,-66.3 -148.9,-86.4 -51.2,-20.1 -101.1,-30.2 -149.8,-30.2 -89.5,0 -160.1,30.1 -211.8,90.2 -51.7,60.1 -77.6,148.4 -77.6,264.7 0,113 25.3,199.8 75.9,260.5 50.6,60.7 121.8,91 213.5,91 31.9,0 64.3,-4.2 97.3,-12.6 33,-8.4 62.6,-19.3 88.9,-32.7 22.9,-11.7 44.5,-24.2 64.6,-37.3 20.1,-13.1 36.1,-24.5 47.8,-34 h 8.4 v 173.7 z"
   class="st5"
   inkscape:connector-curvature="0"
   style="fill:#afb8d1" />

	</g>

	<g
   id="g893">
		<path
   id="path891"
   d="m 13770.6,3408.2 h -690.5 c 0,57.6 8.7,107.8 26,150.6 17.3,42.8 41.1,77.9 71.3,105.3 29.1,26.8 63.6,47 103.6,60.4 40,13.4 84,20.1 132.1,20.1 63.8,0 127.9,-12.7 192.6,-38.2 64.6,-25.4 110.6,-50.5 138,-75.1 h 8.4 v 172 c -53.1,22.4 -107.4,41.1 -162.8,56.2 -55.4,15.1 -113.6,22.7 -174.5,22.7 -155.5,0 -276.9,-42.1 -364.1,-126.3 -87.3,-84.2 -130.9,-203.7 -130.9,-358.7 0,-153.2 41.8,-274.9 125.4,-365 83.6,-90 193.7,-135.1 330.1,-135.1 126.4,0 223.9,36.9 292.4,110.7 68.5,73.8 102.8,178.7 102.8,314.6 v 85.8 z m -153.5,-120.8 c -0.6,-82.8 -21.4,-146.8 -62.5,-192.1 -41.1,-45.3 -103.6,-68 -187.5,-68 -84.5,0 -151.7,24.9 -201.8,74.7 -50.1,49.8 -78.4,111.6 -85.2,185.4 z"
   class="st5"
   inkscape:connector-curvature="0"
   style="fill:#afb8d1" />

	</g>

	<g
   id="g897">
		<path
   id="path895"
   d="m 14623.2,3095.3 h -8.4 c -23.5,-5.6 -46.3,-9.6 -68.4,-12.2 -22.1,-2.5 -48.2,-3.8 -78.4,-3.8 -48.7,0 -95.6,10.8 -140.9,32.3 -45.3,21.5 -88.9,49.4 -130.9,83.5 v 665.3 h -157.7 v -937.1 h 157.7 v 138.4 c 62.6,-50.3 117.9,-86 165.7,-107 47.8,-21 96.6,-31.5 146.4,-31.5 27.4,0 47.3,0.7 59.6,2.1 12.3,1.4 30.8,4.1 55.4,8 v 162 z"
   class="st5"
   inkscape:connector-curvature="0"
   style="fill:#afb8d1" />

	</g>

</g>
      <g
         id="g905">
	<g
   id="g903">
		<rect
   id="rect901"
   height="681.59998"
   width="681.59998"
   class="st6"
   y="830.59998"
   x="3386.2"
   style="fill:#f7bf21" />

	</g>

</g>
      <g
         id="g911">
	<g
   id="g909">
		<rect
   id="rect907"
   height="681.59998"
   width="681.59998"
   class="st7"
   y="1612.8"
   x="3386.2"
   style="fill:#129a68" />

	</g>

</g>
      <g
         id="g915">
	<rect
   id="rect913"
   height="681.59998"
   width="681.59998"
   class="st8"
   y="1612.8"
   x="4170.7998"
   style="fill:#f26b31" />

</g>
      <g
         id="g921">
	<g
   id="g919">
		<rect
   id="rect917"
   height="681.59998"
   width="681.59998"
   class="st9"
   y="2398.1001"
   x="4955.5"
   style="fill:#1f65b0" />

	</g>

</g>
      <g
         id="g927">
	<g
   id="g925">
		<rect
   id="rect923"
   height="681.59998"
   width="681.59998"
   class="st10"
   y="2398.1001"
   x="3386.2"
   style="fill:#ee3128" />

	</g>

</g>
      <g
         id="g933">
	<g
   id="g931">
		<rect
   id="rect929"
   height="681.59998"
   width="681.59998"
   class="st11"
   y="2398.1001"
   x="4170.7998"
   style="fill:#cf582c" />

	</g>

</g>
      <path
         id="path935"
         d="m 5739,3107.3 v 0 -812.5 l -783.5,-0.5 v -782.2 h -784.7 v -784 h -811.7 c 0,0 -5.3,-20.1 -28.9,-45.2 0,0 -41.5,11.1 -41.5,34.7 0,23.2 0,2446 0,2446 l 43.3,15.6 H 5696.5 Z M 4067.4,3078 H 3390 v -681 h 677.4 z m 0,-782.2 H 3390 v -684.1 h 677.4 z m 0,-785.3 H 3390 V 829.3 h 677.4 z M 4852.5,3078 h -683.9 v -681 h 683.9 z m 0,-782.2 h -683.9 v -684.1 h 683.9 z M 5636.7,3078 H 4956 v -681 h 680.7 z"
         inkscape:connector-curvature="0" />
    </g>
    <text
       xml:space="preserve"
       style="font-style:normal;font-variant:normal;font-weight:normal;font-stretch:normal;font-size:4.23333311px;line-height:1.25;font-family:Arial;-inkscape-font-specification:Arial;letter-spacing:0px;word-spacing:0px;fill:#000000;fill-opacity:1;stroke:none;stroke-width:0.26458332"
       x="41.288441"
       y="279.85989"
       id="text1012"><tspan
         sodipodi:role="line"
         x="41.288441"
         y="279.85989"
         style="font-style:normal;font-variant:normal;font-weight:normal;font-stretch:normal;font-size:4.23333311px;font-family:Arial;-inkscape-font-specification:Arial;fill:#000000;fill-opacity:1;stroke-width:0.26458332"
         id="tspan1022">See https://www.slicer.org for details.</tspan></text>
    <text
       xml:space="preserve"
       style="font-style:normal;font-variant:normal;font-weight:normal;font-stretch:normal;font-size:4.23333311px;line-height:1.25;font-family:Arial;-inkscape-font-specification:Arial;letter-spacing:0px;word-spacing:0px;fill:#000000;fill-opacity:1;stroke:none;stroke-width:0.26458332"
       x="9.9105129"
       y="273.53177"
       id="text1012-1"><tspan
         sodipodi:role="line"
         x="9.9105129"
         y="273.53177"
         style="font-style:normal;font-variant:normal;font-weight:normal;font-stretch:normal;font-size:4.23333311px;font-family:Arial;-inkscape-font-specification:Arial;fill:#000000;fill-opacity:1;stroke-width:0.26458332"
         id="tspan1022-3">Supported by NA-MIC, NAC, BIRN, NCIGT, and the Slicer Community.</tspan></text>
  </g>
  <style
     id="style815"
     type="text/css">
	.st0{fill:#909CAF;}
	.st1{fill:#626E7F;}
	.st2{fill:#AFB8D2;}
	.st3{fill:#BCC9CB;}
	.st4{fill:#FEFFFF;}
	.st5{fill:#AFB8D1;}
	.st6{fill:#F7BF21;}
	.st7{fill:#129A68;}
	.st8{fill:#F26B31;}
	.st9{fill:#1F65B0;}
	.st10{fill:#EE3128;}
	.st11{fill:#CF582C;}
</style>
</svg>
