<?xml version="1.0" encoding="UTF-8" standalone="no"?>
<svg
   height="48"
   width="48"
   version="1.1"
   id="svg1115"
   sodipodi:docname="Add.svg"
   inkscape:version="1.1 (c68e22c387, 2021-05-23)"
   xmlns:inkscape="http://www.inkscape.org/namespaces/inkscape"
   xmlns:sodipodi="http://sodipodi.sourceforge.net/DTD/sodipodi-0.dtd"
   xmlns="http://www.w3.org/2000/svg"
   xmlns:svg="http://www.w3.org/2000/svg">
  <defs
     id="defs1119" />
  <sodipodi:namedview
     id="namedview1117"
     pagecolor="#ffffff"
     bordercolor="#666666"
     borderopacity="1.0"
     inkscape:pageshadow="2"
     inkscape:pageopacity="0.0"
     inkscape:pagecheckerboard="0"
     showgrid="false"
     inkscape:zoom="15.6875"
     inkscape:cx="24"
     inkscape:cy="24"
     inkscape:window-width="1920"
     inkscape:window-height="1017"
     inkscape:window-x="-8"
     inkscape:window-y="-8"
     inkscape:window-maximized="1"
     inkscape:current-layer="svg1115" />
  <path
     d="M22.65 34H25.65V25.7H34V22.7H25.65V14H22.65V22.7H14V25.7H22.65ZM24 44Q19.75 44 16.1 42.475Q12.45 40.95 9.75 38.25Q7.05 35.55 5.525 31.9Q4 28.25 4 24Q4 19.8 5.525 16.15Q7.05 12.5 9.75 9.8Q12.45 7.1 16.1 5.55Q19.75 4 24 4Q28.2 4 31.85 5.55Q35.5 7.1 38.2 9.8Q40.9 12.5 42.45 16.15Q44 19.8 44 24Q44 28.25 42.45 31.9Q40.9 35.55 38.2 38.25Q35.5 40.95 31.85 42.475Q28.2 44 24 44ZM24 24Q24 24 24 24Q24 24 24 24Q24 24 24 24Q24 24 24 24Q24 24 24 24Q24 24 24 24Q24 24 24 24Q24 24 24 24ZM24 41Q31 41 36 36Q41 31 41 24Q41 17 36 12Q31 7 24 7Q17 7 12 12Q7 17 7 24Q7 31 12 36Q17 41 24 41Z"
     id="path1113"
     style="fill:#f7bf21;fill-opacity:1" />
</svg>
