<?xml version="1.0" encoding="UTF-8" standalone="no"?>
<svg
   height="48"
   width="48"
   version="1.1"
   id="svg4"
   sodipodi:docname="BookmarkAdd.svg"
   inkscape:version="1.1 (c68e22c387, 2021-05-23)"
   xmlns:inkscape="http://www.inkscape.org/namespaces/inkscape"
   xmlns:sodipodi="http://sodipodi.sourceforge.net/DTD/sodipodi-0.dtd"
   xmlns="http://www.w3.org/2000/svg"
   xmlns:svg="http://www.w3.org/2000/svg">
  <defs
     id="defs8" />
  <sodipodi:namedview
     id="namedview6"
     pagecolor="#ffffff"
     bordercolor="#666666"
     borderopacity="1.0"
     inkscape:pageshadow="2"
     inkscape:pageopacity="0.0"
     inkscape:pagecheckerboard="0"
     showgrid="false"
     inkscape:zoom="15.6875"
     inkscape:cx="24"
     inkscape:cy="24"
     inkscape:window-width="1920"
     inkscape:window-height="1017"
     inkscape:window-x="-8"
     inkscape:window-y="-8"
     inkscape:window-maximized="1"
     inkscape:current-layer="svg4" />
  <path
     d="M10 42V8.75Q10 7.55 10.9 6.65Q11.8 5.75 13 5.75H27.5Q27.5 6.6 27.5 7.25Q27.5 7.9 27.5 8.75H13Q13 8.75 13 8.75Q13 8.75 13 8.75V37.45L24 32.8L35 37.45V20.75Q35.85 20.75 36.5 20.75Q37.15 20.75 38 20.75V42L24 36ZM13 8.75Q13 8.75 13 8.75Q13 8.75 13 8.75H27.5Q27.5 8.75 27.5 8.75Q27.5 8.75 27.5 8.75Q27.5 8.75 27.5 8.75Q27.5 8.75 27.5 8.75H24ZM35 17.75V13.25H30.5V10.25H35V5.75H38V10.25H42.5V13.25H38V17.75Z"
     id="path2"
     style="fill:#f7bf21;fill-opacity:1" />
</svg>
