<?xml version="1.0" encoding="UTF-8" standalone="no"?>
<svg
   xmlns:dc="http://purl.org/dc/elements/1.1/"
   xmlns:cc="http://creativecommons.org/ns#"
   xmlns:rdf="http://www.w3.org/1999/02/22-rdf-syntax-ns#"
   xmlns:svg="http://www.w3.org/2000/svg"
   xmlns="http://www.w3.org/2000/svg"
   xmlns:sodipodi="http://sodipodi.sourceforge.net/DTD/sodipodi-0.dtd"
   xmlns:inkscape="http://www.inkscape.org/namespaces/inkscape"
   enable-background="new 0 0 24 24"
   height="24px"
   viewBox="0 0 24 24"
   width="24px"
   fill="#000000"
   version="1.1"
   id="svg10"
   sodipodi:docname="SlicerLoadDICOM.svg"
   inkscape:version="0.92.5 (2060ec1f9f, 2020-04-08)"
   inkscape:export-filename="c:\D\S4\Base\QTGUI\Resources\Icons\SlicerLoadDICOM@2x.png"
   inkscape:export-xdpi="192"
   inkscape:export-ydpi="192">
  <metadata
     id="metadata16">
    <rdf:RDF>
      <cc:Work
         rdf:about="">
        <dc:format>image/svg+xml</dc:format>
        <dc:type
           rdf:resource="http://purl.org/dc/dcmitype/StillImage" />
        <dc:title></dc:title>
      </cc:Work>
    </rdf:RDF>
  </metadata>
  <defs
     id="defs14" />
  <sodipodi:namedview
     pagecolor="#ffffff"
     bordercolor="#666666"
     borderopacity="1"
     objecttolerance="10"
     gridtolerance="10"
     guidetolerance="10"
     inkscape:pageopacity="0"
     inkscape:pageshadow="2"
     inkscape:window-width="2256"
     inkscape:window-height="1410"
     id="namedview12"
     showgrid="true"
     inkscape:zoom="27.812867"
     inkscape:cx="15.559573"
     inkscape:cy="15.485516"
     inkscape:window-x="-11"
     inkscape:window-y="-11"
     inkscape:window-maximized="1"
     inkscape:current-layer="svg10">
    <inkscape:grid
       type="xygrid"
       id="grid833" />
  </sodipodi:namedview>
  <g
     id="g4">
    <rect
       fill="none"
       height="24"
       width="24"
       id="rect2" />
  </g>
  <path
     style="fill:#eeb308;fill-opacity:1"
     d="m 20.09162,16.951216 v 3 h -16 v -3 h -2 l 0.022498,3.035955 c 0.00815,1.09997 0.9000028,2.002484 2,2 l 15.91905,-0.03596 c 1.099996,-0.0025 2.027705,-0.900031 2.035954,-2 l 0.0225,-3 z"
     id="path838"
     inkscape:connector-curvature="0" />
  <path
     style="fill:#eeb308;fill-opacity:1"
     d="M 7,7 8.41,8.41 11,5.83 V 10 h 2 V 5.83 L 15.59,8.41 17,7 12,2 Z"
     id="path6"
     inkscape:connector-curvature="0" />
  <path
     style="opacity:1;fill:#eeb308;fill-opacity:1;stroke:none;stroke-width:0.23509131;stroke-linecap:round;stroke-miterlimit:4;stroke-dasharray:none;stroke-opacity:1"
     d="m 5.3403373,19.017808 c -0.057761,-0.03037 -0.1335559,-0.09534 -0.1684416,-0.144366 -0.06211,-0.08728 -0.063603,-0.125805 -0.071844,-1.843484 L 5.09162,15.275619 5.1685107,15.14032 c 0.051509,-0.09064 0.1206496,-0.157148 0.2094937,-0.2015 0.1282002,-0.064 0.1754874,-0.0662 1.4231105,-0.0662 H 8.09162 l 0.00903,-1.460702 c 0.00807,-1.290774 0.014997,-1.471723 0.059942,-1.555448 0.1255999,-0.233981 0.3529231,-0.35282 0.6139171,-0.320944 0.1971272,0.02408 0.3304747,0.112185 0.4236012,0.279904 l 0.075398,0.135786 0.00868,1.697572 c 0.00868,1.688668 0.00836,1.697573 -0.053593,1.697573 -0.061809,0 -0.062266,0.01217 -0.062266,1.640248 0,1.085162 -0.011083,1.670334 -0.032669,1.729154 -0.04645,0.12643 -0.1471801,0.230215 -0.2889056,0.29767 -0.1142098,0.05436 -0.2334515,0.05834 -1.7609803,0.05894 -1.5001987,5.91e-4 -1.6473463,-0.004 -1.7434976,-0.05457 z M 8.0944882,17.05183 V 15.978017 H 7.0685219 6.0425555 v 1.073813 1.073815 h 1.0259664 1.0259663 z"
     id="path833"
     inkscape:connector-curvature="0" />
  <path
     style="opacity:1;fill:#eeb308;fill-opacity:1;stroke:none;stroke-width:0.22950929;stroke-linecap:round;stroke-miterlimit:4;stroke-dasharray:none;stroke-opacity:1"
     d="m 10.400521,18.814784 c -0.05383,-0.03127 -0.138125,-0.106756 -0.18734,-0.167772 l -0.08948,-0.110944 v -3.16149 -3.161489 l 0.07806,-0.130248 c 0.04293,-0.07164 0.117713,-0.157998 0.166188,-0.191914 0.0865,-0.06052 0.119801,-0.06182 1.793397,-0.0698 l 1.705259,-0.0082 0.168956,0.07817 c 0.12254,0.05669 0.194458,0.115696 0.261793,0.214801 0.08222,0.121012 0.09154,0.157334 0.08151,0.317666 -0.01281,0.20478 -0.09861,0.35273 -0.257196,0.443576 -0.08781,0.0503 -0.207596,0.05561 -1.56257,0.06925 l -1.467478,0.0148 V 15.460858 17.9705 L 12.54581,17.98525 14,18 l 0.13159,0.08237 c 0.155418,0.0973 0.253763,0.23712 0.253927,0.36103 1.56e-4,0.121598 -0.127293,0.289356 -0.271178,0.356937 -0.111843,0.05253 -0.223975,0.05634 -1.867473,0.06357 -1.678786,0.0073 -1.752388,0.0054 -1.846347,-0.04916 z"
     id="path837"
     inkscape:connector-curvature="0" />
  <path
     style="opacity:1;fill:#eeb308;fill-opacity:1;stroke:none;stroke-width:0.13589133;stroke-linecap:round;stroke-miterlimit:4;stroke-dasharray:none;stroke-opacity:1"
     d="M 15.516377,18.84376 C 15.36442,18.81565 15.241999,18.716955 15.155456,18.552783 l -0.04944,-0.09378 -0.0047,-3.195463 -0.0047,-3.195469 h 0.04991 c 0.03452,0 0.05539,-0.01248 0.06766,-0.04045 0.01755,-0.04 0.02173,-0.04045 0.37568,-0.04045 H 15.9478 l 0.03757,0.06671 c 0.05776,0.102576 1.096652,1.612944 1.109896,1.613594 0.0064,3.15e-4 0.272646,-0.34931 0.591618,-0.776945 0.318977,-0.427634 0.633056,-0.832128 0.697957,-0.898869 l 0.118002,-0.121348 h 0.244306 0.244307 l 0.0485,0.05062 0.0485,0.05062 -0.0047,3.252713 -0.0047,3.252705 -0.04056,0.0759 c -0.103485,0.193679 -0.268892,0.300035 -0.462055,0.297106 -0.197225,-0.003 -0.336504,-0.08693 -0.417321,-0.25151 l -0.05083,-0.103519 -0.009,-2.469931 -0.009,-2.469931 -0.355052,0.507037 c -0.195278,0.278871 -0.355052,0.518839 -0.355052,0.533264 0,0.01442 -0.02225,0.03609 -0.04944,0.04814 -0.02719,0.01206 -0.07736,0.04054 -0.111497,0.0633 -0.0508,0.03387 -0.0817,0.04043 -0.170333,0.03612 -0.0929,-0.0045 -0.111244,-0.01124 -0.129206,-0.04741 -0.01151,-0.02318 -0.04897,-0.07172 -0.08323,-0.107863 -0.03426,-0.03613 -0.201739,-0.265949 -0.372168,-0.510688 -0.170428,-0.24474 -0.325039,-0.463164 -0.343579,-0.485387 -0.03299,-0.03955 -0.03373,0.01145 -0.03448,2.404505 l -7.74e-4,2.444912 -0.0424,0.09106 c -0.106827,0.229418 -0.312695,0.351251 -0.526651,0.311674 z"
     id="path820"
     inkscape:connector-curvature="0" />
</svg>
