<?xml version="1.0" encoding="UTF-8" standalone="no"?>
<svg
   height="48"
   width="48"
   version="1.1"
   id="svg1028"
   sodipodi:docname="Update.svg"
   inkscape:version="1.1 (c68e22c387, 2021-05-23)"
   xmlns:inkscape="http://www.inkscape.org/namespaces/inkscape"
   xmlns:sodipodi="http://sodipodi.sourceforge.net/DTD/sodipodi-0.dtd"
   xmlns="http://www.w3.org/2000/svg"
   xmlns:svg="http://www.w3.org/2000/svg">
  <defs
     id="defs1032" />
  <sodipodi:namedview
     id="namedview1030"
     pagecolor="#ffffff"
     bordercolor="#666666"
     borderopacity="1.0"
     inkscape:pageshadow="2"
     inkscape:pageopacity="0.0"
     inkscape:pagecheckerboard="0"
     showgrid="false"
     inkscape:zoom="15.6875"
     inkscape:cx="24"
     inkscape:cy="24"
     inkscape:window-width="1920"
     inkscape:window-height="1017"
     inkscape:window-x="-8"
     inkscape:window-y="-8"
     inkscape:window-maximized="1"
     inkscape:current-layer="svg1028" />
  <path
     d="M30.25 32.15 22.55 24.55V13.85H25.55V23.3L32.4 30ZM24.15 42Q20.4 42 17.1 40.575Q13.8 39.15 11.325 36.7Q8.85 34.25 7.425 30.95Q6 27.65 6 23.9Q6 20.15 7.425 16.9Q8.85 13.65 11.325 11.225Q13.8 8.8 17.1 7.4Q20.4 6 24.15 6Q28.15 6 31.725 7.75Q35.3 9.5 37.9 12.55V7.25H40.9V17.65H30.45V14.65H35.7Q33.5 12.1 30.525 10.55Q27.55 9 24.15 9Q17.9 9 13.45 13.275Q9 17.55 9 23.75Q9 30.1 13.4 34.55Q17.8 39 24.15 39Q30.4 39 34.7 34.6Q39 30.2 39 23.95H42Q42 31.45 36.8 36.725Q31.6 42 24.15 42Z"
     id="path1026"
     style="fill:#f7bf21;fill-opacity:1" />
</svg>
