<?xml version="1.0" encoding="utf-8"?>
<!-- Generator: Adobe Illustrator 24.2.1, SVG Export Plug-In . SVG Version: 6.00 Build 0)  -->
<svg version="1.1" id="Layer_1" xmlns="http://www.w3.org/2000/svg" xmlns:xlink="http://www.w3.org/1999/xlink" x="0px" y="0px"
	 viewBox="0 0 512 513.3" style="enable-background:new 0 0 512 513.3;" xml:space="preserve">
<style type="text/css">
	.st0{fill:#909CAF;}
	.st1{fill:#626E7F;}
	.st2{fill:#AFB8D2;}
	.st3{fill:#BCC9CB;}
	.st4{fill:#FEFFFF;}
	.st5{fill:#F7BF21;}
	.st6{fill:#129A68;}
	.st7{fill:#F26B31;}
	.st8{fill:#1F65B0;}
	.st9{fill:#EE3128;}
	.st10{fill:#CF582C;}
</style>
<g>
	<path d="M500.3,245.7L500.3,245.7l0-77.3l-74.5,0V93.9h-74.6V19.4l-61.3-0.1l-15.9,0.1c0,0-4.3-16.3-43.5-13
		C104,19.4,5.5,126.2,5.5,256c0,138.6,112.4,251,251,251c129.6,0,236.3-98.2,249.6-224.3C508.2,254.7,500.3,245.7,500.3,245.7z"/>
	<g>
		<defs>
			<path id="SVGID_1_" d="M261.1,348.7c-28.4,0-62.6-3.3-87.8-6.6c-3.7-27.6-4.6-57.5-4.6-89c0-127,33.1-231.8,75.1-241.5
				C116.4,18.5,15.1,125.1,15.1,255.6c0,135,108.3,244.4,242,244.4c129.1,0,234.5-102.1,241.6-230.6
				C492.1,314.2,386,348.7,261.1,348.7z"/>
		</defs>
		<use xlink:href="#SVGID_1_"  style="overflow:visible;fill:#AFB8D1;"/>
		<clipPath id="SVGID_2_">
			<use xlink:href="#SVGID_1_"  style="overflow:visible;"/>
		</clipPath>
	</g>
	<g>
		<g>
			<path d="M256.1,501.4c-65,0-126.1-25.6-172.1-72c-46-46.4-71.3-108.2-71.3-173.8C12.8,125,113.8,17.2,242.8,10.1
				c0.7,0,1.3,0.5,1.5,1.2c0.1,0.7-0.4,1.4-1.1,1.5c-41.5,9.6-74,115.1-74,240.2c0,25,1.7,57.6,5.6,87.8c15.7,2,52,6.4,85.4,6.4
				c60.6,0,118.4-8.1,162.7-22.8c44.3-14.7,70.4-34.3,73.4-55.3c0.1-0.7,0.8-1.2,1.5-1.2c0.7,0.1,1.3,0.7,1.2,1.5
				C492,399.5,385.2,501.4,256.1,501.4z M233.8,13.6C110.7,25,15.5,129.6,15.5,255.6c0,134,107.9,243,240.6,243
				c123.8,0,226.9-94.8,239.3-218c-9.2,17.8-34,34-71.7,46.5C379.2,341.9,321.1,350,260.2,350c-34.3,0-71-5.4-86-7.4
				c-0.6-0.1-1.1-0.6-1.2-1.2c-4.1-30.7-6.2-63-6.2-88.4c0-61.4,7.4-120,21.5-165.1C200.4,49,216.3,23.2,233.8,13.6z"/>
		</g>
	</g>
	<g>
		<g>
			<path class="st0" d="M423.9,339.7c-1,0.3-2,0.6-3,0.9c-26.9,71.4-89.1,125.2-163.2,144.4c0.9,0,1.8,0,2.7,0
				c55.8,0,109.4-20.1,150.8-56.5c35.3-31,59.2-71.7,69-116.3C467.1,322.8,448.1,332.1,423.9,339.7z"/>
		</g>
	</g>
	<g>
		<g>
			<path class="st1" d="M268.4,34.5c-0.6-14.2-11.8-17.9-17.2-18.1c-16.8-0.5-37,23.2-51.8,68.3C184.4,130.1,168,207,179.7,337.4
				l32.4-31.3c0,0-0.2-2.5-0.4-5c0,0-2.5-31.5-2.8-47.5c-0.9-48.7,3.3-94.3,13.7-128.7c10.4-34.7,29.6-64.1,44.5-64.1
				c5.1,0,5.1,12.4,10,16.9L268.4,34.5z"/>
		</g>
	</g>
	<g>
		<g>
			<path class="st2" d="M424.9,319.5c27.9-9.8,87.3-36.3,62-75.8c-1.5-2.4-3.4-4.5-5.7-6.1h-47.3c5.9,5.6,8.9,11.5,8.9,17.5
				c0,14.9-18.5,28.8-52,39.2c-33.3,10.4-77.6,16.1-124.8,16.1c-18.5,0-36.7-0.9-54.2-2.6l-0.1,0l-31.8,29.8
				c15.7,2,53.3,5.5,84.6,5.5C324.8,343,381.8,334.6,424.9,319.5z"/>
		</g>
	</g>
	<g>
		<path class="st3" d="M268,66.7c-25.5,0-52.9,72.3-52.9,179.9c0,16.5,1.5,38.3,2.8,54.1l68.4-67.5L286,73.8
			C281.1,68.6,273,66.7,268,66.7z"/>
	</g>
	<g>
		<g>
			<path class="st4" d="M271.3,305.3c-14.3,0-34.6-1.1-48.2-2.7l69.3-67l149-0.1c4,4.4,5.9,9.5,5.7,15.6
				c-0.3,10.4-15.1,26.3-46.9,36.4c-31.6,10.1-75.2,16.4-122.8,17.7C275.6,305.2,273.5,305.3,271.3,305.3z"/>
			<path d="M271.3,306.7c-14.1,0-32.9-1.1-46.9-2.7l-2.8-0.3l66.5-69.5h0.6l153.3-0.1l0.4,0.5c4.3,4.7,6.2,10.1,6,16.5
				c-0.2,6-4.5,12.9-12.1,19.4c-8.6,7.3-21,13.7-35.7,18.4c-31.8,10.1-75.5,16.5-123.2,17.8C275.6,306.6,273.5,306.7,271.3,306.7z
				 M224.1,301.5c13.5,1.4,34.2,2.4,47.2,2.4c2.2,0,4.2,0,6.1-0.1c47.4-1.3,90.9-7.6,122.4-17.7c14.4-4.6,26.4-10.8,34.7-17.8
				c6.9-5.9,11-12.2,11.2-17.3c0.2-5.5-1.4-10.1-4.9-14.1L291.1,237L224.1,301.5z"/>
		</g>
	</g>
	<path d="M493.9,256.2c-2,26.7-21.7,46-60.1,59c-67.2,22.8-133.6,26.5-177.4,25.6c-30-0.6-53.9-3.4-67.5-5.4l29.7-28.6
		c14,1.9,36.1,3.3,52.8,3.3c2.2,0,4.4,0,6.3-0.1c48-1.3,92.1-7.7,124.1-18c15-4.8,27.7-11.3,36.7-18.9c8.5-7.1,13.3-15,13.5-22.1
		c0.2-7.9-2.5-14.7-8.1-20.2l-0.4-0.4l-153.7,0.1l-0.3-156.8c0-0.9-0.3-1.7-0.9-2.4c-5.3-5.7-14.2-10.9-20.5-10.9
		c-14.7,0-28.7,21.2-39.3,54.7c-11,34.5-17,81.2-17,131.4c0,17.6,1.6,40.3,2.6,51.6l-36.6,35.3c-0.8-0.1-1.2-0.2-1.3-0.2
		c0,0,0,0,0,0l-2,9.6c1.3,0.3,33.1,6.7,81.6,7.7c4.2,0.1,8.3,0.1,12.5,0.1c24.2,0,48.2-1.5,71.4-4.4c34.1-4.2,66.8-11.6,97.1-21.9
		c22.3-7.6,39.2-17.6,50.3-29.7c9.8-10.8,15.3-23.5,16.4-37.8L493.9,256.2z M442.2,250.9c-0.1,4.1-3.9,9.7-10.1,14.9
		c-8,6.7-19.6,12.6-33.4,17.1c-31.2,10-74.3,16.2-121.4,17.5c-17.9,0.1-39.2-0.6-50.6-1.5l60.6-58.4l151.8-0.1
		C441.4,243.4,442.3,246.7,442.2,250.9z M218.6,246.7c0-113.6,29-176.2,49.2-176.2c4.4,0,10.8,1.3,14.8,4.8l0.3,156.5l-11.9,11.7
		L220.7,292C219.8,279.9,218.6,261.5,218.6,246.7z"/>
	<g>
		<g>
			<rect x="276.4" y="29.1" class="st5" width="64.8" height="64.8"/>
		</g>
	</g>
	<g>
		<g>
			<rect x="276.4" y="103.5" class="st6" width="64.8" height="64.8"/>
		</g>
	</g>
	<g>
		<rect x="351.1" y="103.5" class="st7" width="64.8" height="64.8"/>
	</g>
	<g>
		<g>
			<rect x="425.7" y="178.2" class="st8" width="64.8" height="64.8"/>
		</g>
	</g>
	<g>
		<g>
			<rect x="276.4" y="178.2" class="st9" width="64.8" height="64.8"/>
		</g>
	</g>
	<g>
		<g>
			<rect x="351.1" y="178.2" class="st10" width="64.8" height="64.8"/>
		</g>
	</g>
	<path d="M500.3,245.7L500.3,245.7l0-77.3l-74.5,0V93.9h-74.6V19.4h-77.2c0,0-0.5-1.9-2.8-4.3c0,0-3.9,1.1-3.9,3.3
		c0,2.2,0,232.7,0,232.7l4.1,1.5h224.9L500.3,245.7z M341.2,242.9h-64.4v-64.8h64.4V242.9z M341.2,168.5h-64.4v-65.1h64.4V168.5z
		 M341.2,93.8h-64.4V29h64.4V93.8z M415.9,242.9h-65.1v-64.8h65.1V242.9z M415.9,168.5h-65.1v-65.1h65.1V168.5z M490.5,242.9h-64.8
		v-64.8h64.8V242.9z"/>
</g>
</svg>
