<?xml version="1.0" encoding="UTF-8" standalone="no"?>
<svg
   height="24"
   viewBox="0 96 960 960"
   width="24"
   version="1.1"
   id="svg4"
   sodipodi:docname="Measurements.svg"
   inkscape:version="1.1.2 (0a00cf5339, 2022-02-04)"
   xmlns:inkscape="http://www.inkscape.org/namespaces/inkscape"
   xmlns:sodipodi="http://sodipodi.sourceforge.net/DTD/sodipodi-0.dtd"
   xmlns="http://www.w3.org/2000/svg"
   xmlns:svg="http://www.w3.org/2000/svg">
  <defs
     id="defs8" />
  <sodipodi:namedview
     id="namedview6"
     pagecolor="#ffffff"
     bordercolor="#000000"
     borderopacity="0.25"
     inkscape:pageshadow="2"
     inkscape:pageopacity="0.0"
     inkscape:pagecheckerboard="0"
     showgrid="false"
     inkscape:zoom="36.375"
     inkscape:cx="12"
     inkscape:cy="12"
     inkscape:window-width="3370"
     inkscape:window-height="1376"
     inkscape:window-x="70"
     inkscape:window-y="27"
     inkscape:window-maximized="1"
     inkscape:current-layer="svg4" />
  <g
     inkscape:groupmode="layer"
     id="layer1"
     inkscape:label="Layer 1"
     style="display:inline">
    <path
       style="fill:#f1c336;fill-rule:evenodd;stroke:#f1c336;stroke-width:0.00151203;stroke-linecap:square;paint-order:markers stroke fill"
       d="M 6.936963,2.2081186 C 5.3478856,3.7656535 3.7845585,5.349628 2.2087629,6.9207475 c 0.6061763,0.6438994 1.2554626,1.2700412 1.8782169,1.9071117 1.1327934,1.1416921 2.2655387,2.2834318 3.3983079,3.4251478 -1.5034219,1.506314 -3.0136345,3.00813 -4.5127791,4.517289 0.00469,1.411065 0.00938,2.82213 0.014068,4.233194 0.893061,0.02607 1.8039545,0.0093 2.7038735,0.01889 0.5152759,-2.38e-4 1.0320627,0.0073 1.5463948,0.0022 1.5040987,-1.503992 3.0081971,-3.007983 4.5122961,-4.511974 1.792119,1.739933 3.548494,3.5162 5.315775,5.281411 0.635111,-0.601988 1.252227,-1.24742 1.880418,-1.866115 0.949547,-0.949482 1.899094,-1.898964 2.848642,-2.848447 -0.604204,-0.64058 -1.251512,-1.263413 -1.871927,-1.897519 -1.136549,-1.14408 -2.27245,-2.288817 -3.408357,-3.433547 1.309915,-1.32534 2.648155,-2.6233047 3.931218,-3.9747098 C 20.809072,7.3834733 20.903758,6.8064198 20.844609,6.2913446 20.791627,5.8455643 20.586896,5.4193157 20.249001,5.1196181 19.707138,4.5668442 19.176942,3.9980218 18.59073,3.4920902 18.072485,3.1173005 17.368771,3.0511042 16.768018,3.2417706 16.280155,3.3967345 15.95671,3.8268461 15.58787,4.1554241 14.468055,5.2624858 13.360329,6.3819263 12.24608,7.4946843 10.481869,5.7314507 8.7315005,3.9539681 6.9531788,2.2051654 L 6.9410438,2.205058 Z M 6.932453,5.0949311 C 7.363352,5.4806766 7.7638507,5.9020421 8.1783184,6.3063788 7.7909765,6.7060558 7.3768093,7.0946683 7.0059601,7.5011277 7.4829391,7.9686625 7.9488624,8.462767 8.4327211,8.9138208 8.8290903,8.5266606 9.2257509,8.139799 9.6225836,7.7531142 10.016255,8.1471181 10.409941,8.5411079 10.80364,8.9350837 10.180577,9.5579219 9.5575282,10.180774 8.9344932,10.80364 7.6478559,9.5168957 6.3612184,8.2301509 5.0745812,6.9434065 5.6906059,6.3248124 6.2994109,5.6985952 6.9233248,5.0882194 Z m 8.366462,3.6042741 c 0.235127,0.2342857 0.470254,0.468571 0.705381,0.7028567 -3.201009,3.1899921 -6.4019862,6.3800151 -9.602932,9.5700711 -0.4583334,2.03e-4 -0.9166666,4.35e-4 -1.3750001,6.98e-4 0.00481,-0.461108 0.00964,-0.922215 0.014498,-1.383323 3.1842331,-3.197729 6.3684761,-6.395449 9.5527281,-9.5931591 0.235109,0.2342853 0.470217,0.468571 0.705325,0.7028563 z M 15.06497,13.231637 c 0.413791,0.359465 0.789776,0.762342 1.183258,1.144813 -0.39322,0.404027 -0.813532,0.796983 -1.189916,1.207904 0.482535,0.461681 0.954378,0.949794 1.443567,1.395081 0.3856,-0.384231 0.771179,-0.768484 1.156734,-1.15276 0.453342,0.376321 0.843996,0.823349 1.268417,1.231798 -0.625365,0.613719 -1.240233,1.266179 -1.876719,1.851911 -1.301215,-1.2651 -2.582534,-2.551928 -3.873228,-3.828447 0.625592,-0.619343 1.240222,-1.250726 1.877792,-1.857066 z"
       id="path863"
       transform="matrix(40,0,0,40,0,96)" />
  </g>
</svg>
