<?xml version="1.0" encoding="UTF-8" standalone="no"?>
<svg
   xmlns:dc="http://purl.org/dc/elements/1.1/"
   xmlns:cc="http://creativecommons.org/ns#"
   xmlns:rdf="http://www.w3.org/1999/02/22-rdf-syntax-ns#"
   xmlns:svg="http://www.w3.org/2000/svg"
   xmlns="http://www.w3.org/2000/svg"
   xmlns:sodipodi="http://sodipodi.sourceforge.net/DTD/sodipodi-0.dtd"
   xmlns:inkscape="http://www.inkscape.org/namespaces/inkscape"
   height="24px"
   viewBox="0 0 24 24"
   width="24px"
   fill="#000000"
   version="1.1"
   id="svg21550"
   sodipodi:docname="SlicerWWW.svg"
   inkscape:export-filename="c:\D\S4\Modules\Loadable\SlicerWelcome\Resources\Images\SlicerWWW.png"
   inkscape:export-xdpi="96"
   inkscape:export-ydpi="96"
   inkscape:version="0.92.5 (2060ec1f9f, 2020-04-08)">
  <metadata
     id="metadata21556">
    <rdf:RDF>
      <cc:Work
         rdf:about="">
        <dc:format>image/svg+xml</dc:format>
        <dc:type
           rdf:resource="http://purl.org/dc/dcmitype/StillImage" />
        <dc:title></dc:title>
      </cc:Work>
    </rdf:RDF>
  </metadata>
  <defs
     id="defs21554" />
  <sodipodi:namedview
     pagecolor="#ffffff"
     bordercolor="#666666"
     borderopacity="1"
     objecttolerance="10"
     gridtolerance="10"
     guidetolerance="10"
     inkscape:pageopacity="0"
     inkscape:pageshadow="2"
     inkscape:window-width="2256"
     inkscape:window-height="1410"
     id="namedview21552"
     showgrid="false"
     inkscape:zoom="22.627417"
     inkscape:cx="14.07942"
     inkscape:cy="6.3574324"
     inkscape:window-x="-11"
     inkscape:window-y="-11"
     inkscape:window-maximized="1"
     inkscape:current-layer="svg21550"
     inkscape:pagecheckerboard="true" />
  <path
     d="M0 0h24v24H0V0z"
     fill="none"
     id="path21544" />
  <path
     d="M19.21 12.04l-1.53-.11-.3-1.5C16.88 7.86 14.62 6 12 6 9.94 6 8.08 7.14 7.12 8.96l-.5.95-1.07.11C3.53 10.24 2 11.95 2 14c0 2.21 1.79 4 4 4h13c1.65 0 3-1.35 3-3 0-1.55-1.22-2.86-2.79-2.96zM12 17l-4-4h2.55v-3h2.91v3H16l-4 4z"
     opacity=".3"
     id="path21546"
     style="fill:#f2f5f8;fill-opacity:1;opacity:1" />
  <path
     d="M19.35 10.04C18.67 6.59 15.64 4 12 4 9.11 4 6.6 5.64 5.35 8.04 2.34 8.36 0 10.91 0 14c0 3.31 2.69 6 6 6h13c2.76 0 5-2.24 5-5 0-2.64-2.05-4.78-4.65-4.96zM19 18H6c-2.21 0-4-1.79-4-4 0-2.05 1.53-3.76 3.56-3.97l1.07-.11.5-.95C8.08 7.14 9.94 6 12 6c2.62 0 4.88 1.86 5.39 4.43l.3 1.5 1.53.11c1.56.1 2.78 1.41 2.78 2.96 0 1.65-1.35 3-3 3zm-5.55-8h-2.9v3H8l4 4 4-4h-2.55z"
     id="path21548"
     style="fill:#4f92dd;fill-opacity:1"
     inkscape:export-filename="c:\D\S4\Modules\Loadable\SlicerWelcome\Resources\Images\SlicerWWW@2x.png"
     inkscape:export-xdpi="192"
     inkscape:export-ydpi="192" />
</svg>
